<mxfile host="app.diagrams.net" modified="2022-08-12T17:44:17.228Z" agent="5.0 (Macintosh; Intel Mac OS X 10_15_4) AppleWebKit/537.36 (KHTML, like Gecko) Chrome/104.0.0.0 Safari/537.36" etag="zlFVBkhRA0hYvuQuUQZp" version="18.1.3" type="github">
  <diagram id="zLPXTbo4op4BL5zgQA8r" name="Page-1">
    <mxGraphModel dx="1577" dy="1022" grid="1" gridSize="10" guides="1" tooltips="1" connect="1" arrows="1" fold="1" page="1" pageScale="1" pageWidth="827" pageHeight="1169" math="0" shadow="0">
      <root>
        <mxCell id="0" />
        <mxCell id="1" parent="0" />
        <mxCell id="BfwlwAvqfzgkCYm5cFhf-3" value="" style="shape=image;verticalLabelPosition=bottom;labelBackgroundColor=default;verticalAlign=top;aspect=fixed;imageAspect=0;image=data:image/png,iVBORw0KGgoAAAANSUhEUgAAAggAAAE1CAYAAACC8BiNAAAAAXNSR0IArs4c6QAAIABJREFUeF7svYd3W9edLvqxgATRSIK9997EJlIU1YvVLMuW3NNmMpncyczc9968u94/cde6k8kkdhInduzEjossWZZs9S5RYu+9F7CAJEgQBNFY3vr9IMi0LFMADVKkeLbNJRI4Z5+9v73P3t/+VZeFhYUF2FHoMoPBABcXF3h5eX3rDp1OB09PT3h4eDz8nK7X6/UQiUT83dzcHH/n5ub2xKfNz8/zs+haupeeuZxiMplgsVgglUqXVQe1g/pG/bL1eWRkBOfOnYO3tze37ciRI8uqezn9Ee4REBAQEBAQEBAQWC0EXOwlCKvVoPXwHI1Gg6mpKYSHh8Pd3X09NFloo4CAgICAgICAgIBDCAgEwSG4hIsFBAQEBAQEBAQENgYCAkHYGOMs9FJAQEBAQEBAQEDAIQQEguAQXMLFAgICAgICAgICAusXAavV4YJdtnMCQVi/4yy0XEBAQEBAQEBAQMABBBbAfgn04+ICFxfXJe8VCIID0AqXCggICAgICAgICKxXBBawgPmFeW6+q4srXLC0h6BAENbrSAvtFhAQEBAQEBAQEHAAASII1sgGJD14Ej0ABILgALjCpQICAgICAgICAgIbBQGBIGyUkRb6KSAgICAgICAgIOAAAgJBcAAs4VIBAQEBAQEBAQGBjYKAQBA2ykgL/RQQEBAQEBAQEBBwAAGBIDgAlnCpgICAgICAgICAwEZBQCAIG2WkhX4KCAgICAgICAgIOICAQBAcAEu4VEBAQEBAQEBAQGCjICAQhI0y0kI/BQQEBAQEBAQEBBxAQCAIDoAlXCogICAgICAgICCwURAQCMJGGWmhnwICAgICAgICAgIOICAQBAfAEi4VEBAQEBAQEBAQ2CgICARho4z0M95PawpTKtZfKM64NeY4//Uwvek3n30DyLevfXDHt+7/YeA9rv7vtvGHPeNxdy9+Lv0uFAEBAQEBAUcQEAiCI2gJ134Hgfn5eRhNJri5uvEmPGMwQuLlBYvFDItlFlKpBAaDEW5ubvDwEGFKp4NUKsXCg/skXhIYjAbexBVyGSYmtfD0EPH1MzMGKBRyGI0mmM1myOUy6Gdm+Fmenp6YnJyETCbjNtFz5TIpZmZmMDs3Bx9vb36WSOTOdel00/D18eF2GYx0rQx6/Qzc3Fy5jrFxDSQSL85uNmMwwMdbwd+bLRb+fUo3DU9PD4jc3TGumYDS1wdzc3P8XG+FHFNTOiYl3t4KaCYmGQPiJfTcwAB/TE/rGSeqa1I7BbGnJyQSCYZHRuDr6wPCkZ7n76fk+4nI0DPoWdQu6vPY+DiCggJhMpkYUx8fb2g0ExB7iiFXyDA8rOa2zC8sYFo3jZCQYIxrxjE/v4DgoCDGwkZMnuZUpr5Rfx9H1p5mu4RnCwisBwRonXF1deX1ZqWLQBBWGuFntP7Z2Vle5GnTu3TlGuJjYyEWe6KyuhZFhZvR29uPfpUKe3btQEVlNZS+voiOjsTX5y9h+7YiJg/NLa3Iz81BXWMjXOCKvbu34/PTZ/k62sxr6xqwc/tWdPf0oqenD7t370B5ZRW85QrExcXgzNmvUFRYwC9LU0srtm4pQH19IzSTkziwfy9u3ylBQEAAb5ol98tw+OB+jKjVaGvvREF+LuobGpms5Odm49SZc0hOSuJNtKW1DTu3bUVTcyvUo6PYVlyEyqoa3nCVSh9cuHgV+/bsxLRej67uXhTk5aK8qgru7u7Ysjkf12/eRnxcLFzdXFFTU4cjRw6ipaUNg4PD2Jyfg/KKaoSHhSImJgqnz5zjdhMR6ejowo7txbhfWo7ZuVn+/NadEsTGRMPLS4xr12/hhaOHMTI8gv4BFfJys3H3XilCQ0KQnpaMs19dQEZ6GmZn59DW1o7nDx/A3ftlMBlN2LVzG4xGI/yUSiZdT6PQnNFqpzA0NAz16BgTMSKKQhEQEBCwAwEXwMXVFVKJBIEBAQgNCYJCoeAD0EoVgSCsFLLPcL20mdXU1vGpOXtTJj757BQy09MRFBSAuoYm3nBVg4MYHBpGcdEW1DU0wkehQER4GK7fuo3Nebl8+u7s7EZ6ehraOzpIJ8Cb69XrN3jDo4nf1taB3JxNGBoegmpoGAV5OWhqboNEKuG6bt0tQWZaGlxdXdDT24+MtFR09/Twad9KAJrg46Pgk3pzSxvy83Kg1WqhGhxCUmICevv6+SQfHx+L+2UVCA8N5U2e2p6WmgyVahDaKR2SkxLR09vHUgmSUtTWNyI9LYVP8mNj47yBd/f2wtXVHfGxUWht62CpARGXftUgMtJTMTKihnZqClGRkejvH2BJgtJPiYbGJkRHRWF+bo6lGLGx0ejvG2ApQFRkBD9XqfRl4tLd3Yuk5ETop/VcF+E0oFJBIZcjwN8f7R2dCAwMYImBZmICCXEx/HwiCHTauFdahuKiQsTHxXF9q3UKISJJkg4ij9W1dRgfHcfc3CxcXQDKSC8UAQEBAfsQmOd0zYCruxsffnKzNyEnO4sll/Q+O7sIBMHZiD7j9ZGon0T+98srMTQ0hKNHDrEkwUvsCQ8PDxbvkxiePpubn4eHSAQ6OdIGRUyX7heJRIwSXevu5s5kgQptWmazhcX+dD19Ths21UU/9Dt9ZhOxWSwW/ozK3Bx978bfk+ianmF77uK6bOJtagu1j7Yn+p2utb1g9Cz6jDZaup7aQ59x/vQH7aLv6Tv6ofvoe9Ip0LXUhu/WRSJ1MJmhexbXZbv223XRtd88l/po+/7R59rqsrWRrwXg+sCOgj4nMjegGmSyUVZeyaSGSA71YyVFlTQuJO04e+48GhobEaL0RVZiPCKCAiD1ItUJjfUz/tII3RMQcAICtH7Mzc9BN2NE/8gIalrbMabVISMzndfhkOAgp0sTBILghIHbKFXQ5l5eUcUn8G1bt0Amk8LLy+vhJr1RcFiv/SRiQaL9P7zzHqsn9uzazqRupQgCERPV0BA+O/kFOtvasTs/B1sy0yCXSFZNerFex0pot4DA9yHAh5yFBWh107hTW48blTVIz0jDS8eOMklw5vssEARhHtqFAE1KMoyrrKrGiHoUO3cUsz7bmZPRroYIF/0gBEi6QWoRsnEY6B9ETGwUqydWYhwnJiZx7vwlVFdUYm9+DgoyUiFeQULyg4ARbhYQWGcIEEkwGE24V9eA61W12FJUiOf272WbK2cVgSA4C8lnvB6y/K+pqYevrwKREREQi8UrovN6xmFcE90jstfQ1Izr129h167tSE1OcrpokogI2Wp8/PFnyIiOxP7CPMil0jXR/43QCBpjmwqNDNtI3fRoIQmPmYyN5+bZwPhx12wErNZzH2mcp/R6fH3nHjqGR/Haq8fZUNlZ9ggCQVjPs2MV207uhydPfcHGgeSZYLMjWMUmCI9yIgI6nY4NGMkdkwwb2S3TiYU8Jj79/Au0NjTi5T07ER8ZLmxATsR3qaqInA2OjmFArYbIXYTwoEAE+PpYN40H9i+0sWimdKhr72RPpG3ZmWxDI/USL9nKxZImmy0N3fCoy+pKSKRWCb519xgiei09fTh59SYyczfh+LGj7AbujCIQBGeg+IzXQS8/xRcYGFCxdwH54juLoT7j0K3Z7tEm0tHZhTsl99mdkrw6nLmoU8yG3771RwRIvHB89w4oZIL0YLUmw5hWi9NXbyHIzxcKqQThgYGICg2GyWyB0WyGxNOTDYKJHFS1tCE+Ihwh/kp09atQnJ3F39GmY5md5SZ7icXskkoGrVKxmMmAzmBgw142NCXjY4sFYpGIdeMmegbZJq2g+91qYblenjOp0+GTS9cx4+KCf/uXX8BboXBK0wWC4BQYn+1KaEGgWAaVNbU4duQQnzgFgrC+x5w2AHJDpfgRKUmJCAsNceqYkgvpr//rdyhMScJzRZvZm0Uoq4PAwMgI3vvyAo7tLEZ0aAg8RO5QayZwq7oWeoMBCokUm9NTUdbQxCfPzMR4DI2OQaUexbbcTQjw8UZ73wBLFogIxIaGYmh8nInFjpxNmMMCSmrquS5/X2/kJiehsasbUcHBGJmYYL34rrxseAr2Jqsz4AATv3O3StDUr8L/+x//znZFzigCQXAGis94HbSZlFdWo6qmDi8+fxiBgVYff6GsbwRMJjM0Gg08xZ4c48GZY9rV3Y3//PXvsDcvB7vzs51u47C+kV/Z1tMJ/kZFNaqa25EaF4W8tGTcr2tkA9HCzDRcKCmDUiGHTOKFkfEJ7MjNQkNHN9r6+vGz5w+yZKGmtQM7crJwu7YO2qlpvLh7O+7VNSIuPBTJMVHQ6WcwotHgVmUtXti5DURK6tq7WB/+o8PPISIo0KkSqZVFbP3XTtKe8yWlqGhtx//3v/4fPsQ5o6wZgrBAntsLwPwC+c/PceCYuQVrOFabfksIzeqMIV9eHSRCnJ+fg4fIw6kbyfJa82zexWZkrhTsmeJGkWGZK2NNYZY5lDVFUnNiYCEK3nT26wuIi4nB1qICdnl0ViEJwn/95i0UpCTiuS2CBMFZuNpTD6mPSJ1ANgi3q+uZDGj1eiRFRyInORFXSytZZRAaEAD15ASf9us7utDc1Yt/PHaYyUG3SoXtOZtQUteA6RkDDhUX4k5VHXwVCpgtZqtEQSxGZ/8gXt63k0+wp6/dgkImwU+PHIRMIrGnqcI1TkLAaDLj7O27aO5X4X/9x/+E/7MiQVhYmGf9ld44DZ1eB51BhxnjDIwWIyyzZnbHImtcIhAUlpWJhFAEBJ45BFzYiM9mce7m6s4GZmKRGBJPCaReMiikCsi9ZPAQeXLAJWsSquUXyg/R1t7BuSAiI8KdesofG9Pgt2//Af5eYrZB8JZbc2YIZeURGJ/Uoq1vAG6uLmjvV8FHRnPGHRNTOrZFaOzsRlJUJAepIinAzrwcdPYP4Fp5JQ5vK8KkTo/hcQ0bLpbUNsBgMjLJu1Ndz0aMnQODkEnECFD6orGjG3s256J3aJjzkoxrtdiUlICclCQOmCaU1UHAaoNwDQa44t9+9c9OC6f+1CQIJCkwmU0Y045ieHwI6slRTOmnWCzlKfJknaW7GyXtcYWbiy3amzWSHZ+kftjauDqjJjxFQOBJCJDgjIVn1l/oP4rgODc/y+SYyLN51sRRJ6ViCfwV/gjxC0GgMghenpIHSbKe9JDHf0+JpJqamjnkc0x0lFMDXlHMDPJ6aWloxIk9O5AQGSF4MSxvmBy+a2xiEmVNzaBTpVwqQWpMNIcUr+/ohHZ6GgqplDdxUh2QZIHGhqKj3qqugY9CjiClkucdqRO6VENsrJgSE4XOfhW8PD1ZjdA3PAKZRApPkTtCA/xBhpERgQHQ6mdABCU3NUmIeeHwyC3vBvZi6O7FyWs3kZWbwwGTKLGcM8pTIQjUocnpSbT0NqF/dIDPQf7e/ghSBkMuVcDLw4tPT9YwrDYf3gfk4EEqX4EgOGP4hTqeOgLMCx7IxR78a42URuGl55gkGM1GlqyNToxCPTEC86wZgb6BSI5MQaBvEIerXo4HAkVVvHT5Kud8KNic51QVA4m5KRfG3//+KdKiwrF/y2bemISy8ghYk6iZMTtvDXvOxoIAb/q02dNndAAjySyRUQpRTt/PGE0cpNt28icvBCKmVOgzSgJmTSE+D5OFQqKT6ssaFp3qEbm7sRcDXUeZW4W4Cis/1rRWaKf1+OrOPXSrx/DaqyeQRiHUnWQjtuoEgRYO1ZgKFa3l0BumERkUibjQePjKlfD0oGAdVr2rUAQEBASsCFiD3szBMmuBbkaH3pEedKjamRhkxGQiLix+WSSBjNnIHdHLU8ypo5393k1OanHuqwuorKjE/oI8FKanOu1kI8wNAQEBAXDq+pK6Rlwpr8LW4iLOYiuXy5Z1YHgcnqtKEMhvdmC0DyWNJbzg5SfnIyY4jg3flnMCooWT8gNQIhpKLawaGIReP8MsVigCAusdAXon6CQWEOCP6KhIDm1NEe9o3g+OqVDZXokpvRabkwuQEJHIJMGRQhkWKZ10aEgwNmVlOFWCQO2gkywliPr4s1Po7erGvoJcFKanQyL2fJiQy5H2CtcKCAgIPDgwzM1BbzDibk0DrlVUITE1GS+/eBShoSHL2ku/D9dVIwgc+13dj7LmUrYt2JK+hcWjJDFwlBzQAkmpdilp0N17paitr8fUlBYeHu5WQytB/yC8R88EAgscBtdsmeXNPyEuwRrUKCkBMqkUE7oJVLZVQDU6gC1pRSxJILJtbyHpwfUbtxEWFspptUkU7exC2RwpbfaXX51HQ0MjQvx8kRkfi7AAyuYotgbTEd5XZ8Mu1PcsIkDqm7k59iohD5Xa9i6MaqeQlZWJo4cPIDg4yOlSwFUhCKSzIv1peWs5eybkJxcgxD+EyYGjhcgBWV9XVtfg6o1bMBinEJcYhri4UAQG+sJL4gkXtvAWioDA+kaABGEW0ywmJ3Xo7RlGW2s/dFoz8rJzsGvnNgQG+DNJKGu+D61+CoVphYgMirLbcJHCIasGhyGReHFdTK5XoJAkYVwzgdraes7PMDY6ilmLGQvzD9Jer8AzhSqXhwCNFameyDicwqk70612eS0S7rIhQHJxa3hrV7iTZDEwENlZ6cjMzIDvCqgI6bkrThA4C6DJgNqOajZI3JSQjZjgGDZCXE4hnUtpWQUuXL4CH6Untu3IQnRMMKQyL6ezp+W0T7hHQMDZCFhVaRYMDY6joqwZjXV9yM7MxnP790Dp64PRyVHcqb8FqViKgtQt8JX72iWVo6yOl65e5yiKZKRIlu4rWSwWCzQTkxgaHuEATWQ5T4cHoawNBGieUabWe/fLORhadlYmk0ehrB0EiBx4eYlZ3UgSAyIGK5kXZ8UJAueEH+3HvaZ7CPMLQ3ZiLiTi5QXRoLo6Orrw8clT8PCaw8EjhYiMsopVHFVTrJ0hd35LbAGlHk2sYnvSo1jRSfVpS3kfFwRLGNNvzw2yFCdpwp2bNaip6MaB/ftRXFTI7onNfU2o76pDanQ60qLT7CLgumk9mltaOYpiTHTkii40D09BDwKfUV84MppQ1gQC9P4Rgbt+8w4n2SK7lJ+8+SriYmOEg9eaGKFvN8K25630GrniBIEME8tbSqEaVaEwbQtC/cOWPeFmZgz4+uIllFWW4vljRUhNj+HEIhux0AtN7kQUFILdlBZpVUwmC3Q6PRQKKRu5UaETqG5qhlUwxECp0OltdnYe5FlCdVjr+aYi+px0yByLws2Nf6d7aHI62+KdFie1ehJ+ft5s3EaBgMiXd6VfgPU2d2jc1eoJfHHyNmaN7njj9ZcRERYGvVGPO/W32TVya3oxfOS+T+waRdPr7uljX3kybiKiIZSNiQDNq+FhNX7/p3fR1NzKZPHEsaM4fGg/G68K7+HGnBcrThD0M9P4uvQrKL39sDV9K8QeyxdZkbHTH/78HkIjFTh8tAje3hs3OtvUlB63rtdAKhNjy9YMiMXfGJgN9Ktxv6QRxdszERzix4F4xsYmcedmLZOqxKQInu3ayWlcu1LJG3N6Rgxy85MWkYcFtLX0ofR+I9cfFx+GgQE1Gmq7sGdfLsfvd7jQgfF7zEO0Wj3eeftLnHh1J0bVE9yflLRouLGPv8NPeqZvINJdeq8Jl76uwItHX2DDRYqk0NzThMaeBhSkFCI6JOaJi/rwiBonT51BdFQEp/D2cnLK52d6EJ6xzhEpv3TlOt7/60cPsziS9ODff/XPLE1w9oHgGYPvme3OihIEYqX96j7crruFjNgspMekL3uiUV3VNXX4y9/+igNHNvOmRSfbjVjoJN/W0ouvz92Dt48ch5/fwkRgbFSL4eFxaCem0dWpwt7n8tktbqB/BAaDGe2t/cjdnIzklCiGradnCOfO3EVYWAAbv+zck8MneCokAq6pbsPXX95DdGwwjrywFerhCZTcqceJV3dhWm/AqHqSN6Hw8ECIPNx5YydJBUl16G/DjBFm89wDaYAIuikDFN4SREYGQaebweDgOOZm5xAUouR73v7vU/jxz56DyTzL91BwFrqH4sr7+cnhq1Rw/wwzZv47JHRjJo2iserrGcbf/3YFqUmZePXEi3z6J2+G+033EBsaj/TYdHi4L+2VQNEO+/r7IZVIWJ8pSBA24mpi7TO9t6e/PIvGplb09w9ALpciMiICB5/bi+SkxBUzYN24iK+Pnq8oQSARdW1HDVoHWrEtczvC/MOeeKqxbk4k+p7lSWnTtdCieO3GbXx18Rxefm0Xn4Q3qtiLjLtuXq/B4MAoRB4ipKZHIyU1Gl+evs2bp6eniHXVBw4XorKiFZMaHbx9ZFCPTGL3vpyHBEGlGsWpT2/yZpyRFcefS6RiyGReLHWoq+lAfV0ntNpp5OQmwcdXhrJ7TdizPw/lpc2s4jAazPD2kSI9Mw43r1XDXeTGbRkdmUBrSx8iIgMxMDAKX6Ucnh4iDA9N4Bf/cgSjo1quf3hIg5BQP+QXJOPdd77Ca2/uZWt9Igz+/t7o7hrm64qK07gPtdUd7KVCFvCvvL4big0qRZqY0OGjv16G2M0b//LLn7OBIXk03Gss4dwN+cmbIfVaOnKhbnoa9Q2NbIMQHxf3UB21GkuXkHhtNVC2/xm05lKURZLS/u3vnyIpMYHJAZFHwcbLfhxX68rV2vtWlCBQ5LdbtTehnZ7E7pw9dulFCWBauBqbmiGRSDhADPl8U7l87QYuX7uEV97YjaTkyA1LEDTjWnzy0VW2GbBY5hAQ5INt27Pwt/cv4vDzRXBzd0PZvUbk5ifj/Ff3ceBQAdsj3LpZg+zcRCYCRABK7zWgoqyVCUV0bAhMRgti40KQnBrFrjR1Ne3o61VD6SdHY0MP4hPC0NczguzcBLQ09aJ4RyZmZxfw6d+vYt+BfN68N2UnICUtCtcvV2JoSMOGpLdv1sLf3wdJqZF4709f45e/OsrShoH+MYwMa9gGYteeXPzt/Qt49c29aG3ug0TiiZy8RJTfb8HIiAbbdmRyW0eGJxAcqsRA/yheOr4dIWH+G3IekATmow8uYd4ixv/1r7+EWCzmJGeVreUcbbEooxg+Mp8l1yvNxARu3r6LwIAAjoOw0l4MNrsZvV7P3gx6/TSPvWCquFrbyhOew6pIq2dLZEQYCvLz+AAilLWBAAdOE3nA21vBkU/pfV0p12Rbj1eUIFAM+UvlFzkmNxEEiXjpE40ttbN6dBR//+RzDA4NIyU5Efm5OYiPi0FpeRXOnDuD46/sQMamuA25MRDTb6zvwo1r1UhLj4FhxoTe3mHs3Z+Hs1+WYM++PI6JTu5wBUXpuPDVfezYtYnF87du1CC/IIUJAqkQPnz/IpMJ2vjLy5pZGkDSmYjIIDYWIIKgGhhD3uZk3L/biKamHvj7K1BUnIGGui5sLkyF0WjG1+dKmCA01vdy/UQyLl8og1Y7g/0H8nH3dj38/BRISonEH9/+Ej/62XMsbfDxlcNkNGNKq8euvTlMcGwEwcvLA37+3qgqb0XxjiwEBvly+0l9QmNPBCcmNoSJz0Ys42NaJggKaSD++ec/haenJ6fhre2sYYPg4sxi+HsvnRPeaDJheHiE1VD+fn4rqmIgIjAyOorq6lq0t3didFzDwc5oPgtl7SBgscxCq6Wgcx6QyWQPsoaunfZt7JZYDdLpwEyuyVmZaUhOTmIpz0pJFFaUINCJ5ty9s3yS2ZG1k3MtLFVoclbX1HIQpKqaOlAsd7KmDfBTIjMzHaEhITh/6SJ27duE7Ts3bUgPBhLrX75YzvYXFAOC9PyXzpchNi4UtGn09Y1AJpewxwGdypubetj2gNQDc7Pz2FKcjviEcLY5uH+3AWWlzZBKxZy4ZdYyz6L8rOxEnnBNDd0YHhpnIqDXG1lS4MM2D4WormpnGwKjwYSklAjExYWhqqINm3ISEBEVhJvXqzE9bcCOnZtQVtoCpa8csQmh+PCDSzj+yk7cvl6L8XEte1WQtGBLcQY+//QmXnipGJ3tKj5Vjo9NssSCpATUPx8fGSrLW3kK+XhLsOe5zZBIrB4ZG6nQ2HW0DbAUaXNOIV54/jC/CxSttKG7AR0D7SjO3IZgZfCSsIyPa9gwLSgoAFsKN8NL7Hwsbe5zpMo4f+kqBvoHEaAMRHR4NPx8/ayJhAQr1I00fYW+LhMBWqOnZ/QYGhlEn6oX5jkz8nI34cC+3QgMDFy2fd9SzVlRgjA9M40zd05z1MTizO2PNZparIskV7e3/vAn1NQ2cDQv+psKnY4y01Oxa8c2XL91G24eZrx4Yjv8A3w23OJCJy6SGtDJn0JLU6FTPC2y7u6u0OsMcHV359/JxZEjT+oMDyKjubONAG0mnACI4nlPGzl8p5eX54N0w+DfSe9IhktENOg5VD8ZOpKbI31Pn8/oDRxAgWwWSOJgNlnYOJHIi8k0i4X5eXh4urMahOqjNs3MmCGReMBotLD0wMNTxN/RM2ZmTCDJgdV9E9w+csMkJwZ3kTvEYhEMBhP/kFpEJrPqRzdaMZnM7MFScrsZr7/yMnI2ZTEOlN+kubcJTT1NKM7Yxu/dUpHwtNoplJVXcrCldE6ktAzPlCeATxkEK6tqOB/DnHkez+95HimJKRB7ijfk2G20uSr01/kI0LqomdTg2t1rKKspQ1paEn76o9c5Z4uz18MVJQikCz19+3NEBUVha8a27ySToU2KEi2RSoE6p5DLOZIX6cHOfX0RvX19bEFbvHULkhMTeFO8feceLl69hJ17slCwJe1b7n3OH4r1V6M1FOe3/QIfFzjJ1rOlvntS73/IvVT349r6pGfa7qN/N+LJk3IzdHcP4fRntxDoF45Xjr/A74415e48WvpbUN9Zy+9bWEDYkgSBEp2p1WNM0pS+vk5XMZChcUtrOz49eRru8MSh3YcQGRYpGL3ZM8mFawQEvgcB27prMhtRWlWGm6U3kL0pHc8fOQil0r4oqvaCu6IEYWpmCqdunkRcWByK0ou/EyOe3Kwom1zsmJLaAAAgAElEQVRNbR0OHtiHtJRkXjymdNMoL69k3WhKSjKHk7RtBpSg6eTpMxjVDGHvvlykZ8byArcRNwt7B1m4bv0jQIsCkQPVwCiuXq7EyKAOLx59Hps2ZbI7KJX5hXm09behpr2KCUJ4YPiSBIFUDBevXOM8DBRLwdlxEMY1Gpw+cw4dbb04vOswkuKTVtyoav2P9Mr0YDGZ57k0T0HPFpxOClem9UKt34eAfkaPm/duora1BseOHsTm/DyneiOtLEGYnsLntz7jVLRFaVu/I/6gQC0ff/o52xkcO3oYIcEUkMOFRcukXiC/bLLSXLz50+ctrW0sYdDqxpFfmIKU9Cj23yeROt0vFAGBZwUBm+U/eS10dw6i7F4zNGMz2LNrF4oKN3Pu98XSoPaBNlS2VaI4oxjhgRFLEgRKjd7W3gGpVMreQraom87AjjagpuYW/O2jz5AWl4GdRTsh8VpeiHVntGcj12Eym9A70IuggCB4y71ZFTWiHgF9bpPo2PCxrbVPdEOlZfYR9xPhkLb6s4zGaXBkEKfOn0JwmD9OvPQC/JwoRVhxgnDy1qdIikxmgvDoBJrW69He0QlvhQKREeF2s1kSjXZ19+D6zdtobG6C0l+OiIgA+Af6QMz6c4EkrP5UFZ7obATYwM9M2RynMTgwhkHVGHy9/bF753ZOpCOTSb/1TrHxoqodFa3lLEGIeAJBoKyoDY3NkMqkSEqgOAjOS/dMRP7y1eu4fr0EL+w7huT4JEHK5+wJYmd9U7opXLx5EXlZeYiJiGHpweDwIBOEkKCQBynFzWzkSgSCDmz03bR+mnN6yKRWEkp/0+dSiRReYi8YjAaWQpAqidxsya5EIAl2DooTL6NxuHL7CjoH2vGjN15BQnys02wRVoUgJEelYEtq0XcWM8KILDNpO3fUn5MmpXZqCk3Nbaitr+PoXzq9jiPzrQm/6iXCCjtxbghVOROBNTZm9F6Qyo0W38CAQKSnpiAzIx3BQYGPjY//LYKQ/oAgLOEhQCqAi5euwc9PiW3FWyBxYqhlCub1/t8+wohKgxOHT/DpVShPBwGtTotzl8+hMLcQcVFxLKGtb6nH9PQ0FApv/t3T3QNT+inEx8QjPSkdlfVVGNOMggxii/O3wtdHiZrGGqjHRtgbbdfWXahrrINKrYJcKkd2eg7CgkMFgvAUhpjGs6KuAlfuXMIrr7yE/LxsuDnJeHvFCcJntz5FalQKCh8hCAaDAQNDQ/D3VXLQh+UwT5sujSaxTqcDBWAhi/ynXci/fGKCEg9RCGHKqS6UtY6A0WRm/28KQkIL4FrxvHN9kN5VLpdznoylUrvS+9A52IHyljJstYMgEMmenp5hrxNK6+soSV9qTCmx2lu//xPmzC5MEHwUSwdtWuvzYz2373EEobymHJM6LUsMaptqcfzQS+js6UB9awPyMvNQVV+F+Oh49Kp6eW1+8cCL0ExOQDU8gLsVd/Ha0ddQWVeJ8clxHN13FAqZwrrWrZUXZz0PmINtp/eeSN7p85/jxPGj2Lq10Gnv8lMjCAMDKvz293/C7l3bsWfn9h/UoSfqyxwE/Ide3tDUhBs37+L5wwdYdSK8ND8U0ZW/v6OrG1eu3MCO7UUcZtbZ7kLO6MGT5pGjBIEkcKVllVAoZMjKSHeqkSIdAP7wzl9gmLYwQVD6KJ0BgVDHMhAggnD20llszt6MmEirioEIgFY3xQSBfOqP7j+K7t5ulFSVsASB3OcClAGsYvD1VUIp90V1UzUHT2rvasdPT/wU1Y3V8PDwxJ7i3d/xUFtGM4VblokAjWddcx3OXD6Dl48fRdGWzT9oP13cjKdGEPoHVPiv3/6eycG+vbvstj9YJoarchst0LQwvvfBR6iqqcULRw5h356dTl14V6UjG+whJIH69PPTuHb9Fvbv3YUjhw58y/hvvcDhKEGYmNTixs3bUHgrsGVzHoc2d1YhTClTZFNjO04cOoGI0AiBKDsLXAfrIRuELy99CX9fPwT4BbJNwfikBmQBT/ZfA0MDOLz7MHr6u3G/phRFOVtQ21SHQL9AKOQKJhEkSaAfMmokVcMrR15BbXMtvDy9sL3whx3wHOyOcPkjCJC9T0lFCe7V3MObrx9HZkaa0w44T40gUBz4O3fvcZKYpMR4pzGepzl7iMnV1jXgrT/+GRSEJiMtFT9581VERgqL49Mclyc9u6u7F7/+ze8wNKJGQlwsfvzmazwn16IUYam+OEoQyIuhoqqaT5R5udmQy5yXPp30oiX3y/DFF19jb/E+5KTnPBOHgCfNpbX4vdFkRENLAzRaDc9pf19/3vTZuNBTDJIwJMcnc/Cd/qF+JMUmYWBwAEPqIU4jHhsZx2qotq42iD0o6uocMlMyMTw6zJKD2CjnGcWtRfzWepu0U1p8dfUrTJu1ePP1lxEeFuq0teupEQRaQMgbgVwZ6edJ4tO1PkjUvimdDu+8+z7ul1awda9cJsUbr76MHduLnepCth6wWC9tpDn4wd8+Zot7MpilcMNHjxzEoYP7Ocb5eiqOEoSxcY01iJG7G46/eBR+SuepAagtvX39+OuHn0DqocDhPYfhr/TjiJtCWV0EbJ4GtLFTIZLA5HfBGmyMvif7E1t0VVqPrdkdLfwZJQiiYZu1WDiJG91D19vyaDzqir66vdvYT6N9tLWzFV9ePoP8zZs4nhDlanDWfvrUCAKxVxKNuLq5caCX9XZae3Ra0stCPuUffPh3jIyMYlo/A29vObujvfzSMfj70+IolLWEAC1+A6oh/P6dP0OtHmWCRzpW8hZ45cSLnBBlPRVHCYJ+ZgaNTS1wd3NDcnKiU70YCLeZmRlcu3kbly/fQFFOMbbmFwmucOtpQgltXbMI0LtOP+RVQuoj05wBr716HIkJcU7dS58aQaDTy6kzZ5GSmIiCgjx4iNZ3WlEaLDqNzhgMKC2twIXLV/H6K8c5VLRUKhHEq2vwVeM4AxYLaKNsbm7DR5+exNHDB7A5P5c3S2fGBViN7jtKEMjT4Pbde+jr78ehA88hLHTp5E6O9oHaQ2HTyRahrq4ZOwp2YOvmrZzzgbwznHXKcbRdwvUCAusZAZukRz2qZsPEoTEVXj5+DFsKNsPT03mxTAijH0QQ2HvAhf5/vNhwanoK3+fmSKmc//M3b6Fgcy6eP3TgByWKsbIpiu2/NlLH0qJ79qsL+NmP3+B01U97IaTn237Wyoth8zyhtNPfCcn2FBpZ39CE9z74kCORbSnIX5dj5ihBoFDLn506wyf9V18miUmo05EnydrQ8AjOnP0adXWNiAyJQk5mDkIDQznYzrOiXnQ6cEKFAgKLECBbkIX5BU7pTjYHnb2dKK0phas78Ny+Pdi+rYjVo87ea+wiCLTwGM1G6A16NkqRSWSsf9IbpiERS+Dp8fg0sUsRhNHRMfz905NITU7mzi3ntGbTrY1rJvikQoaBFOmLyMLTLG3t7aiprUdxUSGnqH6aTvUidze2yFcqlfD3U7JHxdMkC9Yxm8Pk5CRGecy0oKA680950AZUKj5N5+fmID425qmOGRmEkR6RbAIolgZJoOyJUeAoQSDcOzq7MDE5iejICIQ50bhp8ftHa8XY+Dju3a/gzI5kHClyE8FD5Mnqjaf5fjzNdWJtP3uNRQ1b22CtSuvoAGyZnYXJZKSjPULDgrG9uAipqckQe1LsFufb99hFEIi1tPQ1Y3xqHB5uHpxGViFRQDU6gIigKCgVjzduWoogkBvUiFrNhmC+vj4O60045eXEBKqra9HY3Mqbjdk8a42iyEA5Hyx7ZwEtiPPzc4vySDyNtlh1VJwq2c2V7SES4+OQvSmTrVxXIrXvk/AhXIjE1TU0ob6hEUPDak7rzdxgjYzZQwOupzJ/HoyZC+Dm6sJGrrHR0TxmsTFRPGZLLQKOEgQKdX7vfhmqquvYNYpCODtbRGmbEzZ1zuDQCHp6+6BWq0HPpwRUa0GC9KS5u1G+p3eR3lEyUKR1mQmcUNYEAvTui0QeHFiQyHxMVBSv67RmrQQ5sFvFQCE4KTpbREAEN2ZEMwKxpxdMFiMSwxPh7xPwWACXIgi2bGJ0o6MdJANHspC+cu0m6hubEBQShti4BAQEBMJLYjttPY1NeU3MoweNsGZss5jNfFrv6+1Gf28P/JQ+2Lt7B7KzMlbVLoLaQqm8L166iuraevgo/RAXn4TA4CCO7e7GGQmFMeNTgmUW2skJ9Pf3oa+7C1KJJ2/eJN2gDfz7FgNHCcKkdorzmeimdExCEuLjOIPqShab/pSkSESin7KwbyW7ui7rNhlN7J6q0Wiwa+d2KH19BAnPGhlJPvY+8CAh1dxqGPbbJUEg1UJZSxmSI5Pg7x2Ace04mnoaoTfpUZi6BQHLIAhkIEXZ3ry9vREdFbFkCNlHxZUUZOnk6S/R09uP4p27kZ6eCZncGurTUbKxRsZ+RZphs3QlacuMXo/Ozg7cvXUDRsM0fvEPP2GL15Vinos7xNa2o2P4/PSXqGtsRkFhEXLyCuDj4wORh4cwZovAstlmEAk2Ggzo7+vFnVs3oBlX4+WXXsDmvO+PJ+AoQSAiMqmdxNSUjlVi4eFhXP9qzIkVmfBCpT8IAZo/g0NDeP9vH7PdyM9+9Do2ZWXYpd76QQ8Wbl6zCNhFEMh/tn+kH3KJDEqFH+edV0+ooRpTIT4sHj6yx8dZX0qCoB4dx1u/fwdJSfF44fnDdrtY0WJ25uxXuF9ehX0HjiBvc4Fg6GTn9KJNp7urC6dPfgIPd+A//ue/IiDA3867l38ZRZc8f/EKe3bs2vsctm7b+ZDMLb/WjXEnkbuhQRVOffYx9Lop/PuvfoHYmOjHbuKOEgSyPbh05TrMJjMTuLTUJOzbs0vYEDbG1PpOL0m/fafkPv7ywUccEZaiwL752stOjbC5QaFdt922myBQSskpvRaT05MIVgazaFAhVcDN1e17RR1LGimOjeMP77yL+LhYHD1yiJPFPKnQYllX34iPPzuFhOR07Nn3HCRS6ZNu++b7hQUOhsNKb7LsJ5GNA/obmx6Vg4d4WEW99DsHDHlgZEf1rYbox9YW6oW7yP5AU4RhTVUFPvrr+3jhyAG8+MKRFVU10PPa2jrx4SefwS8wBEdfPA6ZTG7/mFHGT0rA9cBjhtQQjkqJyJVxbnYWHuRe5+r6nTGjuWCPEaBDjX7MxYvnj03aZU+dHGOjuRl//eBd5OVk4advvsoZHh896TtKEIhs3ystY9uG1JRkmM3k8qlHbHSU3RI9e9ovXLP2EbBK+cbxp3f/gpq6en7dAvz98a+//DlSUpJW5f1Y+yhtvBbaRRBMZiM6VZ1QT45iakbLKgXyY44Li4e3zJstkh9XliIIlIu+orIaSqUvkpMS7PJiIFb71flLqKxtxJEXXkJsnGPhcGmj6WxvY3ZMOhylnx8CAoMeTv7FC65N1Lv4M1qou7s7YZiZQUpqOt9nMhqhGhjA9LSONx+ygwgM/saf/HGLOGH18PMHZIXxe/C77dm269jY8AEZWUxKujs7raFQ4xwLVW00GPGHt/8bFpOepQiUPnilxMpGo5FtRW7dLcXBIy8gOSWVg2PZW6jvfT3dbEdBeHv7+CAoKJhVE9/CkeGzarQfHbNB1QD6enuwubCIx53sMuhUTnXSmEllckTHxDBhfGi7vcgi+LHjYX3QojHjAVyyTSTB6enuYrISExdv15y34UQ4nj75Kbo7W/Bv/+MXTKx/KEGguB3DI2orrt4KXLh4hUXLP37jVf57peaEvWMvXLd6CNAcb2xsxoefnMTwyAhmLbO8NpPty+GD+1f0ELF6vRSe5CgCdhEE8mLoHe7BoGYQmikNqxRm52YRERiJyMBIdnV0lCDQZksbts3owp7FiFylPvjrx4BIjMPPH4OPr69D/aUF+v0//xESiRSh4eEIC49AeEQk9PppGGYMTBjIDdBsNvHmQadz+ow2EbpmWjeNluZGGA0z2HfgML80ExoNrly+wIs+bVxRMbGIjIrGlHYSJpMJ3t4+8BSL2QaACruoAGxMSZnQJjUayBQKfgaRDTpZUp52upeS6EilMvZTn38QmppsNiittcEwg+amRq6jsGirQyc+8qe9f/8uzp85jX/82Y84f/hKST0Ix79/egqTOgOeP3YcAYGBDo0ZzZMvT5/E5MQkb+JBwSGMMeFImCq8fSCVSjmuvHZykueUr9KaZpuIoG5Ki57ubjQ11uPHP/u5FV+dDjdvXIVuagqBQcHw9w9AanoG9NM6xpokHCSZovvJkI4IxdzsHLykUj65kwGhl5eE6zIaDUxWqC1kVyOTy0GpmelzstCndsrlCg6ipdNNobW5iaVWhVu28hywtxAOjQ31+PzjD3Hs6CE2NH1U6uGoBIGs1a9ev8lppLduKWQ1A6VN9/H2hlwhg9LXd8Xmhb39Fq5bHQRo7lBcjL7+Ady6U8Ju4+RfHxkRxrYpqyFhW52eCk9xBAG7CAK5vJDNQf9oPwZHByD1ksE8a0ZUUBTiQuMh9Xq8mH8pCQIv6FM6dqORyaR2TUAyTvzt2+8gNSMbu/c959AJjEChZ/7xrd8gLTMLmZnZfH9fXy/aWprg7u4BkYcI2Tl5bPE/qFKxC15sTCxiExJw/+4d3jDGxkYRGBiAw0dfYoIwPj6Gq5cuIDQ0HClp6bzo0+m0troCrq5ukMpkyMnJR2trM0ZGhq0W+25uUPr5wz8gANevXELGpmwoFN4YVY8gODgUvT3dLJEg3Iu37URbSzNGhoeg8PZmaUFZ6X3WC1J98QmJ2Lpth0MEgbAg47c//u43eOH5Aziwf69d+DsysWzX0on0T+++D//gCDx36Ahv5o4U2hg/+/hD3rS3bN3GaoKxUTVqa6oYfyI2Obn5GBke5tM5jTFt+JmbslFdVYHJCQ2mpqZ44/+nX/6KcSJicOPaZSYXaemZEHt58XWV5aUsxCESkJ2bz+PY1dXBY0Yx6L19fRAZGYVrVy7xOASHhGJwoB/hkVEs5SC3PSJu+QVb+N7BgQGuKyUtDZUV5TwfqO0RkVHYtmOXQ7pdFgGPjODPf/wd8rOzOBS0h8e3JXeOEgSSSnT39nGoc0pLTngSCf/y3AXEREVia1HBQ3dYewj8k8aVjWbn5jFvtmDePAfMCT4MT8JsNb+n8aE58Q1B2A0/Pz+rb9EK+NivZt+epWe5iFzh6ukOV5G7VVW+gmNjF0EgMTadhkYnRzEwNgAvDzF0Bh1ClKEI9A3klJ+OShBI/3n6zFko/ZQsxrInMU5vbx/+87/fRsHWHdixa4/DmxptHr//7a/5BBceHomY2Di0tjTz6T8yOoY3lPSMLAz09/EpkE59JCHYtXcfW5IXFW/nzZpc0UhcbiMIX335BZ/6g4NDkJ2bh4b6WvZXjY9P4Ptos6HNi06QO3fvgWpAhdFRNQe36O3ugofYE5GR0RwEIzMrG+Njo9BMaJiUkKSktaWJhddkkNnS2MDEgDaY2uoqyBWKZREEIiO/+T//Gwf37+bkRCt1QlCpBvH2O+8iJj4F+547yNIURwoRhE8/+gDDQ8MsOYiOjWV1weTEBJOj5sYGxCcm8eZJ40EEoqOtBfsPHEZVRRk25eYxuero6MA//tMvmSAQYbh04SuMjowwSUtJz4R6aJA/z8zahPKy+4iJjYdhRo+mpkYcOnwUExMaHkOSgFRXVrD0iuYMSQ5y8/KhGR/joE9l90tQUFTM7SFVVH5BIdTqEdRVV7KBZlNDPUt9infsdJggUJ//+PZvkJaUgB+9+So8H6hZbHg6ShAoLHhLSxu7mJJHC0Vis+VnoBgMFOmQfOEp0NYPkjAtgN+xWZ0RpiEt5qZmrASBomhudM9WR16GVbiWpIskoSQ3VMru6eZOgaxW4cHCI56MgDXID1zcXeDqJYLIXw6PQDncxR68p61EsYsg0IOZ/RNReJDlizwZKPUnG4wtI9Qy5aJ/6+13EBgciNdOvMSL0JOKTYKQkpHNBoqORl+0SRDiE5ORmkZxANxw8fxXmJubR1BQEFxdXaBQ+KCxsY5zptPmK5HIEB4ZifLSe3jhxeOor6vD5KSGNyAbQbhy4Tz8AgKQlJwCHx9ffP3Vl4iLi0dSShq++PxTxCckQT08BKlcjt179/MGd7/kDksMNhdu5U2FNh4iLBaTCV1dXRwfoK66BoePvoDurk4EBAWxdOPsmVPs8bFr735UlNGJdwGFRcWOSxB6e/GHt36DY0cP4sA+x8nWk8bqWxKE9z6Af2CYVYLgYEphmwSBMsrlF25hgnH54nlWE4SFhfP88/VVsrqFxsNX6Qs3N3dERkWhuqoS+w8expBKhcqKsocqBiIC169eYjVBUnIqu1veuXmdVQhkp3DtykWW6FhP7cM48eobGBsdxdXLF1iqFBkRxRIYkg5EREVB5C7ijT84NAxtrU3czomJSXgrFCxNuFdym6UJR48dR011JcwmE5MIkgLZW6gtIyMjePehBOHYd+a/owRBo5nAF19+xbEPDh96jttLdbBhaXsHzpw7j6Itm7Flcz7Pr2WdVKg+8ywM/RoYe8awMDsPd18J3BRecBOL4OJG64dQBAQEBJ6EABvEW+YwN2PC7OQM5vUmuPlIIYkPgodSClc355MEuwnC4sY/arT1fR1bSsVAmfM+P30Wvr7e2Ld7p12i53GNBh/87RPMu7jj8NEX+RTnyKJFBOHPf3gLeQVbkJ2Ty4l6bl67wqJhiqVARmZisRdvLJTVLzQsnPXLYi8xrl68gKSUVPT39fBJ68ADCYJmfBw3rl1hkXNG1ibesO7euski77CIcDQ3N2HL1mK0t7ZAJvfGzl27MTk5gQtfn4N6eBiv/+gnuHLxPHT6aezatdeqo3ZzZWnErZvXceDgEfT0dCEoKITF5jVVlSxep5MpST/I7oEkG7SA21to/Epu38aFr7/AL/7hp8jNyfphJ8QlHjw5qcXHJ09hfGIaR188wUTIkTEjgnDqs7/D3z8Q23ftYYJ67+4dqAb6eQxJxEbSntrqaj7pWI0NXSFXyHHz+lVEREVjQjOO4aEh/MMDCQJJcm7fvM7YZWXnMKGorihHe3srk7T2tlZkZuVgQjMG9egoXjrxCquXLnx9Fqr+fhw7/gpqqysxMNCHHbv2snqBTl0UrOv+vdssRSJ7CCKLOXmbmeAR6cjfXMgqCx9vXxRv3+mwDUJDXS0+//QjHD/2PHbv3PaDbRBo/lOYciLGvhST4sEcovlBLpDtHZ0IDAhgw8WQkGBEhoc55EHCZMNowUzPKMyqSbh5e0Ec7Q+Rwguu7g+iv62geNTe90G4TkBgvSDAB/X5BcybZmEe0cLQp2HtjyQxCJ4BCriSxMeJxS6CwO5ZsxbOxUCiaDJKJMNFvVEPuUTOkoTHlaUIAp1SdNPT7CZJJymKP/+kwov05asorajBwSPHkJDomPsNPZNOitGxcawHpo1qfHwUDXV1rJcmwkGbPBnEtbU2s9FgZHQ0SwDIyI02dGqrn78/0jKyGAuyFWhtbkZgUBDCwyNY1EPi6LqaakxNaVl1EJ+YiI62Nj79kpSBFmY6cbJ4enMBOtrboNGMISsrB0ODg2hvIzIh5/pp0yHxtdzbGxERkWwgWXqvhHNOiMUShEdGIDbWfi8GGkvazN55+7dwxRz+73/7H2xTsVKFjC2v3biNa7fuYv/BI0hLy3gQNdG+J1J7yTaA8EhMSuExo7Gqq6liNQyd9DMys2A0mVjdQGJ9krZkZG5ij5X+/l5IJTLGckvxNpYy0DwijOleMiglUkfGjA0NdRgfHUNQcDBSUtOgUg1Ap5tmFQIZiRIhI3UBSRlIIqBS9SFrUy4mJjVoqq+Dp9iLyYp/YCAbvZLrblR0LGZnLagovQ8iSxKpBCEhoYiNt89zxya9IxuKUyc/wWBfD/7tX/4JMdHW+fsoce8c7OCop1vTtyEiMGJJMkbqhNraeiZIGemp33I15tPK/DwoZwq5qKalJiMvOxtmi4VTl5PdwpOIHkkOjAMaGPvGIQqQQxLtDzfJysSMt282CVcJCDwbCNiIglkzjZmOEZbiSxKD4eErhYur82RydhEE8ljoHurG4Nggp2UO9AmEbkYHy9wskiKSOB6CowSBFp9Z8m+nXAFkbGbHSYI2+KbmVnxy8jRCw6Owe/8BFi/bWxjUBy6DtsXN9hnV/U0cfqvvPX3nRiqURb7zdN/in++r0xZK2uazv/i5tnuo3Ta3xcW/072PPsMKj3XgrffTNVZS5Yh+mIyQKsrL8OWpT/kkeuTQcw7dby/WtuuoL51d3ezJ4CVTsE0FGWg+aXNZ/ByOM8H9/CbHhs0Lhj4j4z8q1hwY8w9zYNg2ORs+NkyXmgd0/+Ixs+G71JjRNTaPHOszvgnbYJs7C9S2hYWHdTvSf/KiaKivw6mTH2NrYT5effkltl95tDiqYiCCXlJSyu9fweY8NhZ+tBDB6+0fgK+3AvWNzUwYdu4oZoxJR/19OT34UKHRY7plkEmBNCEI7jLH7E8cnWvC9Usg8GjupcX2oc7bT548BEIOqCdj5MAVtF6Z1FOYaRuByE8KSWygVXVnx35qz2PsIggGkwGlzfc5zPLsnIWjKob4hyIiIBx+3v6c4fFxZSkJAmWSq6yu4ZNIRnoau1rZU0h/fPHyVZSUViEnfzO2bd/FVujOAsSeNqzXa0giQrp6MtAL8lfiZz9+fUWlBzacyP3v+q3buHT5OtIzs7Fr3372ShDGbOmZRJssqcW6OtpZJeXuMo+f/eRNREdHPpZQO0oQKDASxUEgch4YFMDk/3Gkw2aX0NreAYpfQjYw5ZVV2Lm9GIEB/pibX+DEUosNXedn5zDTpYZ5WMsnG89AxYoZUq3X93E57WbiNWOExWhm9Zq7WASR2CqVsRhM/EMWzS7urhDLpcxUTTNGzBrNcPNwh1hutXsxTRsxazLD3VMED6kX66/NdJzgAdAAACAASURBVJ3BDLhSvR4QeXrw5yY9fW7i+6gOd08PmPQGNjIlS3oPiSeLthcfumbNFvZYoba4ebrzv0YduWvPw1PmBREZ1jlpE1sOjs/SPXMmC/Qdalg005Amh8LTT+Y0KYJdBIGkBaVNpYgOjmZxaetAK9Ki0+Ar94VC6s1GWo4SBLL6f/f9D9lA6tUTL3JOBnuKNemPGmfOnuesgCTqL9q2gwMU0UlIKN9FgBYVEsuTgdz9e3egkHjhZz95g13bHJE+LBdber5mYhLnL1zG7ZL7iE9KwY4duxBCNh4O2E4s9/nr8T6rKmiaVVEld28Dcxa88cpLSElJgYjcmx5THCUI2qkpXL5ynTf2Pbt3QCH//giXVrJiTbBESbfKK6qQn5eLuvoGdo3cv3c3XLDA8SPIwHfeZIGurh+uIjfIUkLhLnlyEih6Bh0caDexZa4UNpFvDzTF41C392GyXw1XkYi9QwLiwuEbHoCxLhU0vcPw8BLDQy5BSEoUtINjGO0a5I3ezUOE0LQY6MenMNY1CDeRG2/YvpFBCIgNxUhrH8a7BpkwLLgA/jGh8AkPgLqtnz/3Ukgh8VNAFuCLvopmJgo0ZvIgJYISI+DuIbJGKaVMu/1qzJoswMI8vEP8MTWigVY1ykTBUyFFcGo0PCXfjQa6Ht/Vp91mfm9GtJhpGYI40o9Vec7yarCLIOgN0yhpLIFWr+UJQPYIZFVOBCEnIZf/dZwg6PGn9z7gU8vrr70MXx/7CAI9h0gCGSySPcK167dZP0+6/bi4RA5s9H2E5WkP5Go/n0TaFPynr7eXJQfqkUEkJcTh6POHEB8bsyrkwNZnmjd0+rx09TouXroCkYcYCckpSEhIYldDcgtdTUnnao+Fvc+jMZuZ0UPV34eW5iaoBvoQERaKY0ePICU5YUlC5ShBMBiNaG1tZ9VNQny83VI8Vg/OUibGBVRW1bBtRUR4KG7cuouszDQEBQahpa4JqR5BkIX7wSsmAFJWX1gjgn5fqGySllRW16KhoQl5udmIj49laYVNNWQvhs/ydXOWWQw19WB+dhZ+saHQj2sx3NSD6IJ06IbH2b4pKCESbh5umDXPoq+8GfIgP/jFhDAs85ZZdN6tQ0BCOHwjAjExMIrRDhWSduVgpLUXpmkDQtPjMDGghm5kHJF5KRjvGYRpyoCInESrpMFgRsetGsQUpsEwpcdE7zAi8pIh8Zbx2qzpG8F4z9DDKKMBcWEQyyRsfG2cmoG6rQ9hmXGQ+fsIUgQnTVaLzoDpBhVcZZ6Qp4Y5zaPBLoJANggzphm4ubh9E87W1QWUxMnLw2tZEgSayO3tndwRMrj6Pl3m9+FHi6HJZOYTzO2799Dd08eGamTh+bR3GlKzPbQ5cNIEWF411pwTIlc3BAYFomBzLjbn5cJP+XQi5NlE5rQp3bhdgvaODo4+SC6zT3vQWCW7KEfH8vB23l10qvf380Vu9iYUFuYjODDwiR4EjhIEegdJGkCSXoq776jbsM0ugzYFimvS1tGB4KAgdHf34PqlGziUmI+uKTXcQxTIz8/hPCoJCfHwV/piaFiNsNAQjlpKtkghwUEcve9eaTm+/OoC3FxdkJ29CTu3bUVUVAQbB1tdqjd2sRKEXtrqEZwSjfn5BXRcr4QyJgSzRgsmh8Yg8/eFVKmAu8QDQ/VdiKLN29cqHaKTfPfdeiTvy4dYIYVBq0fbjWok7srGeLeKN//IvGSYp43oKWtCaFospkbHMdGrhm9EEKT+CnhKvNB+swrBqTGsNliYnUP4pgSWXMxaLFA1dGK8e4jVCGQfFJgUAWVkMK+Jmu4h6EYnEJoRx+oOQULknPk8Z7BA1zAAuLlAkRXhUDj7pVpgF0GYMc6gY6gDMUExmH5gnKiUKzE4rkKQMhje0sef/peyQbAZkNk20uUE6rHVQW6KtLjQYkehYkls9jQLncw0ExPWRfdpitBdXNiYjfTEQcGBbGFP7XmaL6VtzDgq5biGdeBT2ilrQqanWIhcUlhoH28fVns9teIC3qj9/fx406Rw2zRm9qiCHCUItKlfunKN66bQzQrF442N7cHCNq507YzBCM3AMObaNeg3TUAc4YeAAD9cuXYD2dlZ8BSJcPdeKYq2FDJJnNRqcfzYUXx68jSaW9ugVo+ytwRJNoICA3Bg315s21bE81cgCFYJApHZoJQozM/Oo/1WFasZyP6A1AfeYf7wIvsDN1eoajsQmZMEqZ91bHXqCXTdqUPinlx4ecswMzGNjju1VoLQpYJ5xkoQjFN69FW2IiwjFtoRDXTDGgTEh0OskMDVzR2tVysgC/SBWW9gouAXGcyHPeM0SQj6MdGvhodUzGoHUid4KWTQDo1hok8NZUwwvIP9rEGYhOIUBGb1JpYguHi4QZ5JBOHJXoH2PNgugkA2CJVtlciIzcDQ+BDMFhOigqJBLlWxIXHw93l8yuClCAI1jiIVdnUTG15gKYItQ6I9DbddQwvTWivNLa0ouV/GetnwsNCnuiE/is3TJAeL27LWxo1OvTdv30VRYQGLtu3ZkFdr3tk7Zo4SBPJQ6OsbYOEN2aM4KsVbqv+WaQO0Vb0c+4ACucDdBZT7gVw/SZUwOqZhSdbIqBomowmJCQmsrqiqqeUkbqRqCQ0JQkpyEvJysjnSI7kJCwRhFoON3bwxk4pAr9FhenQC4TmJmFKNwThtgF90iPX07u6Kvqp2eCkk8A715zlNRoa9ZU2QBSqhCFIyYZhWTyBuexaGm3tYZRGYEAGdehJmgwkRm+Ix2qliIhGaGg03Tw8+gHXeqUN0QSqmhsdBBolk2+AhEcM8Y2IJgmFCx4aOJCXwjw3DzIQOI809kAcr4RMeCC9vKUeQFYoTEFhYgHlSj+nGQYj8ZJAmWsmaM4rdBOFeYwmHVJ6aoRP6LLxlPjBZTMiOz4a/z+P96J9EEMhQ8dz5S+jvV+Ho4QO8MC9HkuAMIJxRh03t8dcPP0ZFVTVeOHqEA9o8ziXNGc8T6nAOAiRqP/XFWVy5fhP79+zGoQN77Qrc5ZynO68WRwkCSXHqG5pY9JuenmpXuHN7W0uW1brmQSwYLJClhsJd8W1Po8cRRItlFvfLynHr1l3ExERzbIbYmChOrmZ1cRUKeYeMdg9ianAM7l5WEb4ixA/yAF9o+oahHRyFyNMTnjIx/OPCMaXWsKEiuUTTid4/NhQzGi0mB8asYLoCimA/+IYFYrRbhYneEYjlXmwASad8eaAvRrtUbBRJ3gekqpAoFVC39rGaYM5swXjvMHwiAiH39+Eqx/tGMGc2s6Gc1FcOD5kEg/Wd0I9pWa0hknhCGRHEddlLfoWR/34EiLAZBsZh7B6DV3wQvEJ9VtdIkYhA30gfjGajVV+8QJ4wLvAQeSI8MBxSsePJmqi7lHugprYeX5+/xBkF9+ze+Z348utpYtCi19zchv/63e85Et2mrEz85I1XERYWIrwIa3ggKV/E//71f0OlGkJyYgJ+8uPX2YhzvS1ejhIEUsddvX6LR2bXzu3wVny/F4Ojw0eW7MahScy0j0IcrYQkwu+JUd44MNPYOCfWIhWLvQHUHG3bur6evEnMs5izWNhuh7xE3EmN6UKOLrN8mnch0yM3V4i8PEHxNywmC4hYkEifXCLJuNRiMPNBj1Kvs7TBjYwaLex5QPOePBzcRO680dg+J9yoDvqcPqP7qNDvdD99bvvbhjF9ToF7SP1hU/3S3+QBIagYnDMTWb1AZHx2HrLUEIjkXk5LrmWXBIEWHtIRU+TECd0EqwS8pT6QSWQcA+H7FtInSRDYPcNkgmpwiIOuBPj7PTTuW0siXnuHkZLfvPPuB7hz957V/Ucuw89+/AaKiwrXtWTE3v6vx+toXn/08Umc/fo8G3xRfoWXX3oBz+3bzb+vp+IoQeB3Wj/DXZRKKZqpc3XClmkj9C1DmDeYIU2x+mc/KSugLeDUenz/19NcEdr6bCBApNDQO87RSsUx/vAKVz4kas7ooV0EgaQGw5ph1HbUsBSBpAcikSdSIlNYgiByczwOwuLG28SNtDiQ8RL9nZmeykZTtGhZoxJa1xbbwmGzoH70c772gU38o9fSM21uVouNquhzm+uVLQLi919LblqLIxp+YwPR2dWDP/7pPTa8IyMrctGiCHXWOA/fGIA9GtHP9iwb0bJFDrS1i/619XfxtdR3iqj4kK2TlbeLywO8rO16XH8Xf/ZovYTDYmwWu5g9vJaiBT7A7FG8vtsHK16Pa9fiwCoPvT4eRKr8vnGwtcHWB+rj4vmxGFvSYzMGD9q6uK82zEZG1Pg/v3mLY2uQDz7l2cjISMebr51gI8H1VBwlCBRy++69Mo5tsHVLARsBOrPQidE8No2ZtmG2rpbEB0LkQ0ZubhyMZ71JaJyJjVCXgMCyEKA1n/6jyKwcynyCCQJldZTGB9kVb8SR59pFEEjFUN5cBpmXDPHhCVx/z3A3ezSkxWRwPobHlSdJEB4lCRQG+C8ffIi2jk7kZG/C4YP7OcNca3snW5hTetvY2Gj4eHtjfFyD7p5eWGbnEBwUgKjICN4o6F4yhvLwECE1OYlPgbT4D6iGQEFGIiPDeeEnT4Oe3n5MabWsb05NSeIFi67t7x/kXYX0nyTqJFe8js5uzBhm4KdUIioynIMyDQwOYmhwmH3TOeiQmyu6e/px5eo1bvOuHduQl7sJ4WFhnK5YMzkBLy8vREdGcDIoUkN0dfUw8aGkOKGhIax2IYM5ihlA1vRkvEV9oY2MkuYQiYqICGfPBJJY9PUOcLIpuVyK+Pg4Jm9EUIaHR3gRjo2O4kQ8dFIkvAhj7kOUFa+hoWGMqMfg6SlCRHg4Exm6prWtHXPz8+yJQXgRcejq7gEF1yHiEx4exlKf8fEJ9PX3M3aU0yE4KJDb2N7ZBaPByHptivxHBnCqoSGMqkd5yya1iw3b/v4BHg86xZIbHLFBapd6lHSnLoiNiYZCIWcPlb7+Ac6oaB2HCH7W4NAwe7GQkWt0VASPJ4URJhyJJFCbCF/aQAkDsn2ha8jNjvz5m1paUVpWwfp4shnJzcnm9smkj1edOfKCrea1jhOEGZSWV7DkhFxgaTydXUi0TaFgST9Kpx2PIAVEvlK4kf6cDKkE2wJnQy7U9wwjsDC3gAXLLCx6EywjU5idMkCklMErNgAimdhpERRtENpFEKYN05wAJiUyFUoF5T5YgGZqAj0jPUgIT4Cfwu8HEwTbSZA2wvqmZojc3ZCfm8Mb6kefnERzSxt8fLzx4tHDiI+LRWNTM0dTpE2yID8Xz+3bw14RH392Ch2dXSx9+PlP34RS6YvyympcuXaTk/RQ7oGC/Dx2Q/zq64ug8LG0uf/jT9/kTZCupVDOVF46dpQlGeSO9/GnpzA4NISsjHQcJCM2iQTXb93B9eu3+ORF9ZLF9ejYGH79m7d4kz6wfy9/TmSC0urWNTSy29bzhw/y5tbS2so5CuiEvaVgM3bt3MZk5PPTZ3gjo835pz9+Awq5jP3Db9y8A6PJiCOHDmBzXg67dZ45+zVvmtFRkfjxm6/C3c0Nd0pKcePWHZa+kPQiOSmBN9HPPv+CiUZeziY8f+Qgb56kg75z9z6Uvt44dvQw4mJjODLe7995DxSKt6hwM7ZvK+KQ2B9+fJKJAxGZ5w8fYKJTXVuPz09/yd8Xb92C7cVbWG303vsfMkkhQnbipWPw91OySx2rX+DCuFAfBlSDOH3mHIaHRhAdE4mf/8NPmB3TeN0tuc99+MmPXkdcbDQ6O7tx6sw5Joe0ob34whEeUwq+dO9+Ofz8lHj9lePsOdLT24f3PviQLeb37t7Jah4iG+//7WN2rYuJjuY+EPlpbGrBH9/9CwwzRpx46Sh279zOY7ZWTrg2qciT2uMoQaD3RTU4zFIoIkvO9GJYvCAQSTBPzsA0rMXchJ5jlbh6uLOVvZUgPCMGiJQj5YH8cnHulGd4v3oGukZ5bagb1iBea3ouciZHkhzMcRhrV7E7RAEKeAZ5c8yLJ60PyxksuwgCuTneqb8DL08xPClzIwUpMptgtBiRm5iHgGV6MTyuwbTIkVU5nQxtC9b/z957v0eVZNmiC+RTLuW9994LgbASvqDwpijTftyd784P7694783Muz3Ttqary0BVUXhvJLwTyAt57733Hr1v7SRBUCBlgoQkUHTzUUjnxIkTESdixd5rr606ufZKPDg3HErC0qJQXVsv11I5kWPLU2RhSQl6unuhq6cLH28vGOrro7W9A41NTWJB4OZhY2Mtp9DaunowtwM3e17LDmYd5ESw8JRtaaHE0PCInPS5GVlYKKUOEoN4yuUmSOlbF2cnKJVKOQk/epSGhqYmhIeGwNfHW1BddVWtWAyYc4IWAJ7W+O9KCfMEbG2t4ejAE+3Y01Nuv7y/r6+XvB/BAJ/13IJgJfHm1dW1kp2RiXb4DgQbTU0qa4Ocvj3dxOJCCwJDSoeGBuXk7ubmKuNIy0pzczP0DQzkZ0ozU3mHwsJisSDY2dlKql9aJkrLKtAtFheFABxaQQgmWC+TWvGk7uBoL/1cVFwq/cV2eXp6wMjQQKJV2C4WVzcX2NnYiKWEYIjENHI2AgL8pF21dQ3yvgRt7ANakmgZ4rMYFmdjZwMvDzfpL9bb1NIqFhf2gYmxAj29fSgqKhYQRAsOQ+ZYikpK0dXVI3PIw91V3qWtoxNZmdloaWtHZEQY/Hy85wVrno4cAhUzc1M42NsLuJwKuGgLEGhluX7jtgpEJa6VeTJbRVLUjoxhrHcQY31DeDIwAp6GZD99TwotclyXSOxTKcO+J8DnPRmfV+83HLNuWesYdqtOgDdfX5n5+Zbo60LH2BA6ZgbiUiAhdTbAAftAI4DA1M71bfUS1vhszk9MQE9XHw6WDpL++VVFGxfDVAMivuOXPjeV3HKnmIazsnPQ2d2NCYyr8x1KdWpEKHc/RYlEEioPuqrOp/DxpWufrlqTr32mt6DK1seOUNX73Nev/hlBC/9wg+eJ/vljVG/xqvtV7VIVNaLV7tqX33e6d3jOo3i2Sk/5vioehLq82Lfqn6vf7TXXyv1TtYvvoIrfVT1Lk3d4fgKYPOYyvur2vvRe6rk0+R24SY4Mj0DfQF+sIfNjcWfKZdVcUxipQCytNLTcvCqHhbYAQSwI9Y0SmUTQO1sWhBe+7af57FWJfN4fdMA36entxeXLybCytpREVqp5tFjmcw/w4HT91h1ZaRLXroaJQjE/Pv3XdhqJeEueg4JZxqAaAQSJYngyjv7BfknzPD4xDlMjU+EkqE7vr27lTAGEl/uKfmOeOk+dPY+CwkI4OVsjMtoXTi42MDY2gi59m7PccfN50i+27T3ogQmSL5m8aARtbd3Ie1yBgvxqWJgrxcUUFxst/JrJ396bAITqmjohKdIiNOtRG/JOT8Q8Snlemkuh5tgucKwgIc7lZfjLN9/C2cEBn+7dAyc7Wq0WF6L5+jVyzGoa6vHl4cPCX/ps7x54urjOTyuCehrpqMCBZM8kUFg6M4JIrxsjjQACwUF1UzXyKvPwZGIMS5foyLz3cfKFl6OXJG6aTQvC5Lp50iMR8cSps2hrb0bipkhERPrBxJRa7Spm9GyZW+brRF9s1/vZA5MjdcgHKS+rQ9LlNHS09WP71i2IXx4nyoTqoi1AIOnz0pVkDI+MYtvWjbC0eHXStbftXXmPsXEwXnu4pRej5CEMjkjctlgRmD9lgZehkREcT72JB+V5UOgbYnvYCqzwDYH+ohVh3o7s6PgYrmQ/wtX8NOjpLMWm4FisDYgUt/S8LOTrMFKNLgZTA+hbm0Lf0ljULZfozA4Q1QggMBfDw4KHsLOwg5u9m2DihvZGNHc2P0v7/C4AAhca+rBPnD6L+sZqbNoai7AI73lFKJuXE2uxUQu+B9RgoaG+DRfPp6CzdRB7du0Q0qw6zbm2AIFuMJJpeapnkiUDg5lfGMX6ODSKoYZODNV3YsnYBJYq9LHUWP8pUXHSSWh21rhZH3taQgqKS/HHo4fROzQg62Oolx8+37kbdjbW02o/zHoDFx/wsx7gmNU1NOK/j3yLxk6VqqS3kyt+vWc/XBwd5s+YqTL/CbFXrG+jY3gyNIrx/hFJqa5rpoChqyX0LU1UQmQz/A1pBBCY5jmjOB1hXmGwMLWURlAwqbS2BJ6OnrCxsH3q139xHGbaxUDt+Dv3HiDpejLi1wRheXwIDA1nh70537+p5zwFNffgeYvHx5mOd0zIk2otCE4uStkyKkD3aZIUlY6Cytf/KsvLy5yDn3MQZq6X2D5m52RIp7q8Li3wzD11YdWk0qeYQEV5Pc6cuAtHO1fs2fWxRLtw/LQFCAxnfZxXIBn4QkOChVA6k4XtGRsYwVB1G0ZaeqFrbgh9ByX0mPBHX0dl6ZM/M/nUd18Xv7ULl5Jw9/4DIRNTWp2RUbt2bEdQoN+8yuvx7ntnfj5Rrblz4dJVSQ5GUz0jmphWPSYyfMbDBd+6F54a2eSgMP4E40MjGGntw2hzFyiFQ5EkA1tzUcCcyaIRQBgcHkRqUSpMDU3gZOssH3ZTeyN6B/oQ5BEEpYlKg/vlMtMAgXHxh48cxROdfuzYswp2dpYfrDuBJue62hYhQjk6W7+ggtfR0YPysnr4+rrAXKmKbe/tHUAp9dOdbGBnz1BVJssaRU11M7q7+uDgaAU7e6tJ4GECrKe5sQNOzjYwMzdGb88A2tq64Opm9+zUOlOTcWBgCHduZSM6xl/aqqenAwdHG+jMUNKRmWrnfKhncHAYt25kIvNRGfbv3YuIsFDZhLQFCAypTU1LFxfD8rgYieyYyUKd/sHaDgzXdkDfzhxGrlaif0Df6ftUuNkwIorWGIYSExxsSFgrKdYZBbWoCjn/RpuHqKbmZolEu3T1mhymNiaug5OTo0QLzXc3tRoojHT2Y7CiDRNPxmHsYy+WhJn8vjQCCOQgNLY1orSuBIOjQzLaBnoG8LT3gLOtixAVZxIgqM2pL6r4AQWFRfjqm28QvyYQaxMioTfptDn/puDstUhcLQ1tuHQ+Bebmxti4JRbmSlMR/eEpvLGhHZlpRVi9LgI2tkoMDY2is70bj1IKEBzqCV9/V2lcfX0rki49gpHCEKZmCqxcFQrl07zxPKnm5ZYj6XIqYpYFIG5FEOpqW5GeWogdu1ZJGCkJdOTIMLxQTosknhHhTkw8WxT5M27yXCQJSGgh4MfID3R4aETYw4aGeujvH8Zf/ngahz7bINfRymFja/GM6M46eN/oCENgn0DfQFXPh1g4NgR7J366hWVRcfh421YBbNoCBJ58qfFBkiJDX0nUmqnCtnDxoka8rrGBZHTk3/N94X3T9+f7dnR04v/84c+Sz+PAvt0C2t/X933TfppP93HMmPL8m8M/invt0IE9qpTiryHdz6e2q9siaqWtPegvaYaelTGMveyw1GDmNFw0Awjj4xK9wI4jWKBJWmepruRhMNBnKN+rF+o3tSCI6l91tcSl0nyq1oi/e+8BTl84i937ViM03HtBDeRMTq6x0TFkpBfj4YN8mJoqsCYhHO4ejsjOKMGD+7myWfCQtm1nPNpau3DzWhb0DPizJVibGAn/ADdpTm1NMy6euw8bGwsYGOpj1ZowmJmbiNWXnofH2WW4dzsbI6Nj2HswAYMDw0i5l4ude1cjL7cCuVnlGBsfx4ZNMVBamiL9URE62ntga2chrp+6mhb09PZLSJ6ZmQJNTR1wcbXDRx8vR1VlE+7ezsHI8Chi4vzh4emEL/90Bp98tkHuo8mP0sflpfXo7u5FWLgvAoLccP/OY7S2diMwyA3rEqM+2IQv7W3d+OFwEswUNviH3/xSQhS1BQhUlLySfEM0KLZt2SSiYjNVmKxpsKodQ7UdMPa3FzGXmV541S6vya6vmWr/m9SjAgh/EWEyCpTNdG6LN2nT4j1T9wABwrdHVADhk/17RYtlvhX1d/O672d8ZAz9pU1C/pWcJ7QizBDI0QggUEkxsyQDAR6BsDFTpXbu6utCTXM1XGxdYWH66oXlTQACfdE01R3+4Se0tbZh5YrliI4Oh4XSQvgH124l4+CnifDxc5mxTphvE2K69vT1DeLyhRQhrvB/9g5WCIvwwTf/cwGRMX5ysmZY3JqECFy59AghIZ6wsjbHo5R8rFwdBv9AFUCor2vF8aM3xBKwaesysUbwQ6G7gXoEj7NLUVHeiP6+ARgpDKTPM9NKELc8EJkZxQgN80bfwDDSUvKRuCkKd2/lwsPLAVExfkhNKUBxUS02bYnFvTs5Yg3w9nXG6eO38b//r30YH3uC1pZOFBfVoL9/EKvWhuPw11dw4NP1KC6sgZGRPiIifcXKcfXiI6xJjBCw09rcJS6VrPQSfPaLTbBzeLWK53R9uNB/TzfMD4eT8WRYH//2r/8kIYraAgRyEPIKCsXFEBYcNKMcBGYF7M2txZInEzAJcoKu8cwmvqL1o7e3XwTQGPLc2NgoAl9zWaggSsVXinpR2XQxRfVcjoZmz5booIpKAXMUTnuVvohmNc30VUuEy2JvbwsPdzcRq6ML8JX6JwyHZubUkiYYednCyNlixsIfNQII3X1dyChJR6hXOKzNrWUhIkAoqS2Gh4PHjJEUaY4uLi1Ffn4h7t5PkYgFmj2ZEyE2OkpyBDxMf4j9n6xDQJD7BwkQ2Pf1dW049uN1mCuNMTw0Kqf19Zui8dP317Fr3xox6afcz0N4hA8uX3yIHbtWShjo7ZtZYnmhBYH1nD99H02N7bC2VYpZn1yEFatCEBTMVMcqgEC3gq+/C24mZ8JMaSxWBG7cJSW1WLMuXCwN3319SawIRQU1iF4WAG8fJyRfTkVnZ58ADwIES2tzBAS64ss/ncOvfrsNhQWVEt/f3zsobUnYEI0j3z4HCAqFAQKDPXDreoZYOMIjfXDjWgaamjrh7GwjeR7oZrK1/zB5KF1dffjhuyTo1oOB/wAAIABJREFULzXDv/zjb5+5ecobykQWPT54FVxspwbRjGKg9Da/OwcHRjEYzNgqx5DG7swq6CoVMPVzkIiFmSg8QFABsqioBI9S01BVWwMsGRcLGEXJZujg9IZNnRyu+X7xLN6wQxbIbc+F3uZLg3nw4yGKVtTxsSVwcXIRefmggABJOfAyr0XceXl1krRJ4W2vynMyA0UjgDAwPID0ojQYGxqLxYCNa2xvQE9/NwLdg9/KgjDZPMhN6rvvfxQU3tHZJUl1+Cwi8pDgAEm48yA1BR99HIfYuKAPksBGQhQ3f5reyQvo7x9C6sMCrFgZjJT7+XBx40Kvh8qKBqxNiMDtG1lCPiS3oLioGitWhjwDCMeP3kR/74Dck5NdhrHRcRz4NBFu7vYi8PI4pwwNda1YvjJE7r1y4ZGIUiVuiEZmRgns7CwwMDgsLoH4VSHIyS5HdCzdBQ5IvpompEYClwf38mBlaSZA429/PY9PPt+Iq5ceCcBh7nrWQWvH999exf5DiSgpqhWSItuQn1sh70YLRHVVk1g9vLydoK+vK5YQSld/aIWgrLa2GUePXIOPR4DknyCQ1taCQInuazduobevH1s3bZhRF8No7yB6Mqpg4KCEgn5R5l14y8L36+zsFOU75vQwtzQSV5O7pwOsrMxl3i+e2t+ykxdvnxc9QJ4RLXud7T1CJC8sqEZXxyBiIqOwds1K2QsngwRKmPfl12OpsQFMAp3eLUCQrH/tDShvqMDo+Kj4spcuWQonG2e42rq+sVASP3hq8TPBERPtMHteRVW15BK4fuOW5DOgPy8yLBR+fj6SyOibw9/D1cMCW7YvlwyGc3tiePdziQCBGzfNT9xwR0bGkJtTDktLU/lvbhwUz6EVgT771qYulJfXQ2FsKJuup5fTsygGbriF+ZUy0QyNDEDCi4ubLTw8HeVn3IxpVfD0dpJTZmpKvpzUeJqvrWlBY32bZNOkxcDCwlR4BYxwsLQyQ1FhNYaHR+Hn7ypgxVhhBBs7pYCYmFh/lBTXgn50Y2NDGBrpw8vHGempRYiI8kVLc6dsdj3dfejo6BV1TDt7C6m3rLhOULWJmUIsGbMRu//uR1W7JzJcNT2tCEmX0rF981asWrlCTKTaAgSmJGcmTQJzZtxkquuZKkzO1JNZJZELCg8bUX9728JcHMnXb+LOvXsICnVDXHywuMMIFhcF0t62dxfvn289oD48c11vaenEowf5KMyvRURoOLZs2giludkzK/r4wAh68+qwRE8HpqEu7xYgsKGjY6MgF6F/qF/60UjfCCYKE+jr6r82jGc6DgIX+oeP0pCanolNGxIQHBQgdTExE8OvmMmRmRttrK1kASSZ6tyFy3hckIOPd8fL5qOO6Z9vgztb7RF2+MioJEdiJIGMzeiYPI59xD7l79iPujyFTwCDQ8MC6HR0lwpwUJOnCPzIP+DfjC5Qayvwv7ngEhQQyapO86qwSNbHCALRLRgaVc0FxdMohtFxIQ3yGaMjY8KPIB+ClgmG3kgkw/Ao9A10pW5ew/Hj7/g3AQWfzSgFPojPVv035PfqKAaSJvnvD1EDg+Pd3t6NMyfvYqAH+PTgPpFJfpMwR0a85BcWiesudIY5CCNd/ejJqIaRhzUU7jZvHXpFMEOXwpnzFxEY7CyWKUbuLFoMZmulWax3PvWAynrWi5vJGcjPrcGu7R9jWWz0s3BzipHRxTCxdAnMwggQZkYPQSMXA3UQimuK0TPQ/SwBDhO8GBsoEOAWAFPjV2eBmw4gMAaVKXnp+yTrl2mEudDxlEz/qI6OrmoDeWom4M/pfvj+p2OwsTcW37q1tfKtF5/5NBEW27LYA6/rAS4S1EBIuZ+Lm8k52JiYiIR1a6AwUskta2tBIOC+dvM2env7sGXj+hl1MQhAyKwW64HCzfppWuepx5btJ9GPxUD/+cGDP6cGyk/HT6G9uxGHPt8gxNyZYmovtBlHcE7wzLVyMkBiPxH00TVHd4taPIvAnuBf/TO+L+9nPWRK0F/9ck4PVbgyDx0qyw+BOq+ZaUCmFnDj3yTgMfU4DzCL2hE/n5Xso4b6Vpw6fgc6MMa//ONvxP0u46MGCEueAoSnYnhvO7c1AgjM5tjc1YyhkUFJi9nb34valmoY6BliRdAKWJiphHdeLtMBhO6eHuTm5cPS0lIy1WmS/WxgcBA3b93FpatJ8PV3wPadK8W/zon8oS4YbzsJFu+f3z0g6QrE2jMsfJOky+kI9AsQFcXJvkhtAYIQ/nr7RQeBKoozyeB+BhA8nwIEDXyBo2NjyMjMRnFxKaIjw+Hm7irghxSy3Nx8/HjsOKLjvCRU90N0Lak29icikEb3nq+/GywsVeJWaksi+Ul02UVF+8tGy2iP7MwS0UKhngmtbuIybmhHYUGVWP+CQzxhbv48vI9WxaKCKrEG0krLzbqkqBoWluawd3i+1r8IKqQVr/iQVJlzWdTXT+ad8b/JZ2pr6RJOESOb+ExTs+eqni/f96Gu8+wrHpLJK7uelIV/+t1vERTgr5IfGH5qQcAcAARp2JNxDAwOoKG9AXVtdTA2MIa3kzcszSzkpK8tQFAhVBWKVSFhzXyUvIfA4ubtu7hz9z5MzPURvcwf7u52wknQ038uLzy/l/3F1i32wDQn6ieUzB7H4OCI8DKyMktQVtIIXy8f7Ni+Bc5OTi/E2msLEAg40tIz0T8wgOVxsTA3mzklRW0BAi2G7R0duHsvBRevJEnYZmhIEOJiouHo4IDM7GzcfXAHO/auhH+A+4yfZBfKXOzrG8Cdm1nIzizD5o/ihA/EOcKIoIH+QWSml8DaxgIrV4WgvaNHSMgkuHGzX5cYCSMjA3ErJl9NRVNjhwieLF8RjMAQj2drcHd3H04dv42Wpg7sObBW1FfPn70HHx8XiR6j1gktWaZmRlAqTeW/hwZHRMSMOip9vQPAUmBkeEy4T3Qrjo6Ow9ZOKVYMKrT29Q4KWLG2USLtYQEaGtqFDE1Snr2jlYio8b1oseA1dEd2dfaK6dzWVimcqQ+x8LBQWlKDw19fRcLqBGzbuknWgDkFCGPjY6hvq0dlYyVoTXC0doSjlSMUBgohKL5uc5/KgkDzZk1tPaytrUQQSRtUyIWQDOycx/lIeZSG5tYmGBjpwNxcIap8S5fOjP/lQ5yAi+88f3qAbrzRkXH09w2ip3sIxkYmCAsNEd+jvZ3tz747rQHC8DAyM3ME+MfGRM2o1LI2AEHtQjh7/qK4EBsam+SkxDXBydEB69asQkdHB2oaKrDvk3Ui/a3NejF/RvTtWsJ+oon5wd1c2eR56t+wJVZO3Xdv5YgaKhnvfv5uCAx2R/KVNFhamohAmYOjNdZvihGAQDcET6GlxbWwsDLD8vhgsUSYmCjEpUuAwCij1tYumJsZY8u2OFxLToenp5Osr6UldcJvGugfQmxcIJqbOkXa3craDAFBHrh87gEcnK3l9yQ+W1qaoa6uVRLrBYV4CIGZ/+7u6BMuSUV5g1g0QsK8UFXRIIRl1kkhN0ZprV4bjpqqJvT29GNgYFjUYBmuremh8u16ff7dzdD0//nzOfh6BuBXv/hUeAhzChAkm2N+Cpq7mmBjbgsTIxMZHCMDhegg8N/aWhDIP/j2yFHEr1iGFXGxWquO8WMR5NzejorKKtTVN6CzqwsjIyOvtnS9w3EeHhkGGdcWFhYauU3eYdMWH/WaHiAJrqenR6RWGTI4X6LYeTqgupudrS08Pdzh5OQg0Qav2iC1BQg0Pzc2N4PKnI4O9jOqg6AJQOC3yjbTtdHZ2YWr126gsrIKBYXFQnBlm8LCQhHo74u8vEJUN5TiwKEEydHxIRaCppysMpFMt7YxBzN77ju4DqWldaiuaMJ6ipXdfiwhnxQaY9jxjt0rxapAIjDDkwkQenr6ceXiQ1SUNcDZ1RbhEd4SaZSwPgrGJgoBCNeupsnJnaJlDFtubesSFVS6ApQWJggK8cT1q2ni3uVeQJCydn2kgIzf//sxbNuxAsyvUphfjXWJEdKWsbEn2PxRLMpK6tDS3IXszFJs3xmPrq5eAQh0LRA8EBBwfrONDk7WIhefci8PNjZKdLR3i2rrnv3rPlipdfb1X/90Fh7O3vjdb34x9wBhdGwELZ2tGB5TseHV6deYg8HKzBKG+q8Oj5rKglBTW4f/+D9/wIbEddi8MfGNk/+ogMKYMOxpppSUmHO5ekxMoLS8Ag9SUrFxwzo42NnNn9Shc9kv8/nZExOora/HnbsPsHxZjCiXUep5rgtBChdKnhBUOSxoHXt9u7QFCLTiJV27KXr0NFXOpNTydACB7o3M7BwBBqvil8PYWCHteJSWjrv3H4pvNTIiVJLn8J2Tkm8g83Ea9hxYI2G4H6IFgaZ85kbh6ZsaJNzUqYXCn3e294qE+Y1rmTA2MRKAy5M5dU1SHxZKxNG69ZEiqFVT3YTzZ+4hdlkAamtbRC3V09sB2z6OF24HAQJ1TESSfWICZ0/dE1DAU3tLcwecXWwQGu6DKxceSpi5wthISIxrEyPk7//6z+NCJO3u7ENxca3osVBnpbm5E2FhngIWCDrIp1m3PkosA88BQg1WrQlFQV6lgIit25ejurpZQqwJIExMjKAwMYSPrypy50OcB7SsfPXXi4gMicLBA7vnHiAMjQyJi8HOwg48HZPUpDA0RntPOyzNLN/IgtDe3oErSdcRFOCHkBCKHr0fbgGeir4/ehwPH6Vj7+6PsWZV/IwmwZnrTet9fD4BJsNnLyddw9bNGwWwzqQmwLvqM20BAkmBtXV14iNmqORMik5NBRC4iRSXlOLHYydha2ONzz7ZDwsLpYD7js5OIWNaWjCfh4FsAhyfh6npOHvhAjZujURUjP8HF97MOdTU2IZzZ+7LCdvZxVZypWSkFUkOlVs3suHiaiPKp3QveHk54fhPt+Dt7Sgx9Lxe7WJobmzH0R+ui0uCwKGpqQ3ePi7YtXeNbMBiQUhKR1Cwu4CxpMtpSHtUKKd9zrHCvCqYmdOd0YLETdHCZaArgcqq1EX54+9P4ZPPEtHV2SfuCLb3cU45mpra4e/vinu3c2DvaI2Ksjps2b4CfQQIje3w9XNFUUE1nFxsRPWVmi1sNy0HVHV9MjEhWWVdXe3lHT9EFwOjT7Iyi3Hi6C0c3HsA8ctjVZF/c0lSZKKmzNIMhHqFoaGtAbQouNm5o6y+FB72nrBWWmvtYqC5bDJB8X1Agnyfyspq/Pvv/4CO9g5ER0bgs0P7RUd7sczfHmA++P/733+Pmro6BAUG4BefHRQt/YU2J7UFCOJiaGzG2NiohBjPpNTyVACBz03PzBJLwaYNieJCoJWERc1wfznsjm7EIz8eg5WdIXbuWQWzSSz3+TuzZrZl3LgbGzrg4WEvWiTMx0GxMzd3WzTUd0q4Kjd4Cwszyb1CCwMlufkz8hWY5p0cA7pmGQlBPgNFyMgRYBp35lqhi4DWWGaL5T3Umujr7UdlRaNwPxTGBiKS1tbaDXt7S9nMSVpkXhjKnnMDKympgZubvRAL2UZbO0t0daqIjdbW5iLcRrE98tfsHS1F4I2/Y0K37p5+6OosFQ4CXRIkNbq620mbayqbRPOFHAW6HT40gMBvg+TOC+fuo6yoGf/2r/8CZycHmWRzDhBSix6JzHJ7N9XzRuFg6YDmzmb4u/rDWvlqn+BULgYCBAq0qMyn+gtuMX7Vp0+T7ZEfj4vaGwfTQqnEF58dFLO1egGc2SVjsba37QFuVmfPX8KxE6clhNdYocD+vbuQuG61MOkXUtEWIHC+Xk2+gZ6ePmz7aJOQhWeqTAUQRO9gaFiEzxheqQkwoeLqpSvJeJiWgm07l4u5m26XD6m8DJ4mhwtq0g8/1zr4uffzVSGFmj/neUijJu15k2vI4ldHzC40AP8m7zv5HgrJMWT16qU0RIVFYdeO7WJlm3OAwFwMueWPMTA8CEY0kAUoqZ71DBDkHgRzE6XWFoSurm7cunMXbm6uCA4MXPCEE35EVdU1+OqbI6ivbwD1GsxMTSQb5c6PP4K5uUrQYrHMnx7gmLW2teNPf/kbauvq0dffB2NjY0RFhmPf7p1i/l5IRVuAQHDE9yZ3x9XFeUYB0dQWhHFxG/A0S9eiJgs9rXPVNbU4ceosOrtbsHFrrMTNq9wQ84VSupBmy2JbF0oPiGrt8Khkvr2RnAFDXVMc3LcHrk8VVOccILCBgyNqcPC8W3WW6ojk8uv4A1NZEBjK9Ps//Bmx0dFCkFrowidcnMmrYC6JvPwCiS9PWLsavr4+8PbykJPpYplfPcAxY+RCcWm5uIau37yNFctjER4aAi9Pd4loWEhFW4AwPDyM7Jw8DA4NIioiXKIlNCnjlOAeG3/mDlDfwxh1HT3Vhv86gMA2Mrw5v6BQpNWp5aDpBk9QwTDIM+cuoLOnHdGxvsKmt7W1kBwhi2Jpmoze4jULoQfUGkEEBsxZk59XKdoXCgMzbNm4ASHBgS9w2+bUxfCmHToVQGhuacU3332PkOAgJK5bs+ABAvtIJf4E3Lv/AOcuXsEvPz+EwAA/YcQvnnHedBbN7n3qMcvNz8ffvzmCfXt2StjtQkz+oy1AoIvvUVoG+vsHEL98mWZWrgmgu6kdLSW1IovLtOBSlgBKJxtYudljqa7OlACBaonMqbBz+0eIjAjTypdMEnBlVTVu3b6HopIiGJnoScIm+tENqIGibs/sTpvF2hd7YFZ7gN/W8MiYRKdQ96C3Zwjenj5Yuyoe3t6e4pabbHl77wACP3QqpxkZGsnJ5W2iGFSLvOrPfCh376fgvACETxAY4D8fmrTYhml6IDevQPKC7N29Qzgjmpi932WnahLSpS1AICt8aHBIyMKMYNDoG5wAetu6UJ1WCFNHS5haKNVRzzAwNYKRuUojZSoLAq1rJ8+cw+6dHyMmKkIrgKA+WVEojeHEaRlZKC+vQFt7B0ZHVXkcFstiD7wPPcCwZgulhYRdx0RFSkZjUxPVXvny+vTeAYTJG/qbnNbU+gdUWCsoLEV+QQGqa+tENpboay7L8OAwBoeHYKygvr3uswV0Ltu0+Oype4AysX39A5Iqm4mC5ofJZwkM9PRha2sNf39fhAYFii4ASb2vAgzaAgR+K0lJN9Dd24PtWzdLynVNypPxcXTWtuLJ+Bis3B1fSJamXrim4iCQbc9wRksLJUxMTN4IjKnXD/InqAw4OjoiYXBzKYJC5UuSL9kHCzFMVpOxf9+uoSAXLWncMgiS59PBgK43PT19sa6T5D7VIeG9AwgcFIolUSCFKnHasPwlXrqjE1k5j3Hr9l309/XBxNgQ5mYmMJTFc9Gg/759yB/i+3ATpFZBX98gunr6MLFER6SWV61cDhdnp58lV9IWIJCDkJX9GAMDg4iJjtCYc0H+wdjIKAa7+2BgYiRuNV1DPejqqTIIskwXxaAez/m0IL/tHGOkxb0HD2FmZorY6Eit1rS3ffbi/W/WA9yHqFnDXEN0LRo9zYz6ZrXN3V3vHUCgRPLX334Pby9PbN64XmORFoKD5uYWXLtxC5lZ2XBxsEJkiD88XB2hNKNM7vNFau6Ga/HJiz0wEz1AgDAuG3hDcxty8kuRV1IJGxs7fLRlE3x9vF4gKmkLEEQHoalZohiY80CTcEO+1UBXL3pbu9BR1QgTGyXGhsdg7mAFU1sL6D5NMzwVQGCytba2dsnDYmZqOq9ObW86auz7ktIy/O3vh+HoZI9P9u+Fne2HmTPiTfvwXd/HMWMUz9ff/SCW3kMH9ko0z0LUV3jvAEJra5uEl/n4eEkYoEIDlj8HlDkOriRdQ3p6BqLDfLE6LgIWSjPoahgu9a4n4eLzFnvgbXtA/O4TExgcGEJuYRmS76bBTGkpPnwKOqkXNG0BAkNxb9y6i97eXmzekChqhpoUWg4IEEhUNDBTYKhnAIamCiEoKp2sJePeVByEvPxCAfjrE9aIMNVCXJAn95NYekZH8dPx07h0NVksCIf278GK5ctmNIW2JmOzeI3mPcAxu5p8HcdOnJFxovLtujXUP1l4mSLfO4BAkhEJRtR/9/f10UiOmCeejKwcnD5zFsE+bti0Lg5K8/fjBKL5tH77K7mg0bQ7mdT5Ppl6376H5m8NJPdmPi7G+Wv3ER4egY+2bBTXgHo8yxvKkFaUivjgVXCxdZnydM7vqa6hEaMjI3Bxpg6CZgtjf0c3Ompa0F7ZAH2FIcaGR2FsYw5rDweY2lhiqc7skRTn48gIMKuoxH/8/o/gwYeAJy42Gl98elCsJItl/vUAx6ylpQX/+V9/lmR/dIwFhwTid7/6AvZ2dgvOqvXeAQS6CrhAqZPRaLJB0XpAxbumhhoc+Hg93F01j6Gef1N05lvEPpWkVWNjgogNXuFu6e3tx8DQEKytLISc09zaAYWRIawtlc98ppRLpX+aC73+JL/yTLRYNDWGhsXnZ6JQLPjT40z0ibZ19PT243zSXZRVN+HTT/aL1gY3JW0tCAQbRcWlGBoeQlBAgPCBNCnkIIwMDaP+cbkAhN7mDugZ6sPSzR4WzrbThjkyTDEz+zEiw0Ph7ua24DlDPInyFHr12nUMDg5BZ+lS2Nra4BeffYKI8NDFOa7JpHrH11DJ99r1Wzh64pSE+XL/UZqZ4dND+7FyRdyCG7MFDRAC3AKwPHDFi3Gb4+Oiq61iamrGGygrr8BfvvwKsWF+2Jq4QuMTzzuee3P2uObmdiTfSUV7Vw883RyxZnkkzEyNxTytzgyYnlOE0vIa7Nq6BndSMpH+uAjx0SGIiQwWoMDS29ePs5dvw93VEcsigwUoNDa1wdREAWOFoYowNzEBS6W5iNOotQTIT5tsmZhsqejo6pHfmZsaI7+oAh2d3Vi1PPLp/Sr51JdlXhm0Ss32xfJiDxBkZeeV4Kdz17F+/XpsSFwr4I79XdZQivSiNI0sCFwYaRLv6e4RN5+mUQxsDZ812N0PHV0d4SQYmhkLWOBcmUooifey/fzD6zQJ35zv40+AUFFZjebmZpw6e0EIpGtXr5R01XZ2tgtus5nv/T0T7SNAqK6pQ0NjI5Kv3xIOwro1q+Di4gxnR4cFN2YLFiCcuHMMfq7+WB604gURk96+PiQl3YTSwvwpe3Rq3XsuSGSbHjtxAns+WovY8MAFN4gzMbGnquPanUcoLq/BmrhIIX062Fmhp68PjU3tIo3t5GiDkvIa+bN5XRy+OX4RNpZKbFqzDHa2VhJfy34uLKnEiQs34O3hgk1rl0kK16Nnk+Hv5QYPNydk5xVL8pSVy8KhNDdBdW0jRsbGpC5LC3M0tbTL72mtYMIXKwtz3ErJxMSTJ4gKCQC1bBhS6OnmjOa2TgELJJe6uzhIVjgS8ng/Q9dcnBxgZWm+4Ex+sz3WDU2t+PbYRdg7uuIXn38iLjoBCPWlSC9OR3zISpWLYYp4TS6SVP8cGx+HtZWlRm4+9XuJe0r+/1x7ZHK48nTJmmi9YJu1iV56VZ+q3WRzqYEiABkAQ67/649/FZcp83mQi6EG5rM9H15Z/xLV6GtinX3X7VP3mYTAzEFRP7+3pxffHTkKfQN9HNy/W+Wum+M+e5Ow/4UJEPp7cPL2cfi4+GBF0MoXNvSuri788S9fwdbOBgf27pa8BVMVDui1G7eRlHQVn+3ZjEBfj3k58edgrj97ZEZOIdKyCxDi7wVvTxfZdE9duoklWCp53Z0cbERvnxv66rgwfPPTRTg72iFxVTQcbK0FIPBk9+OZJJgaG+HJBODr6QIjQwN8ffQCwoJ84OXmjJSMXFGHTIyPQn1jKwpKK4Uoyu1iWUQwbj3IhLHCQFjxTc1tYsl4kP5Y5PZWxoSivasbTa0dCAv0waPMfJgYG6G1vRN+Xm5wsrfBpRsP4GBjhfbObrg422HzuhULPlfHTM8LJlj6+thFTCzRx7/+yz/IuAqTvq4YmSUZWBmyCs7TAATG7GdkZqF/cBBxMdFCrtOkCGly/IkAPqomckEbHR6RjH76hgaiizAVSbGqphY5ObkICw2GmytJlm9mJSLAIZepvYOZDHsxMjo6lzII4GbDtOHOTo5YtXKFWFPmstA9SGEdJuGi3sR8sNZwzAYHB9HR0QVGswyPjLwAMt91fzFC6Pr129DT18WaVfEwUhi96ya88Dw9HV1JYMYxI1jRNFfJggQIvQM9OHX7JDwdPbEiZCWYu0Fd+EGfOnMBSgulsJmny1WwCBCmn7c8lecWlKG0sg6mJkbwcnPCT+evIzzIF2OjYyK4QZdDQ2Mb9m5fh++OXYavlyu8PJxQUd0AS6UpzE1N8N9fH5d7unv64OpkhxXRofjbD+ewa+tq2NtYI+kWY71NEBsRiG9/uiinQG7snV09CA/2xYO0XAEgTg62OHomGauXhaOooga2VkrERQXjQdpj1Da0wcPVHrUNLdi4ZpmAjMzHhdi4Jg73UnOwflUMauqbUFHTgEO7Ni26k14afo4NLQhPlhrgX//5dwIQKNRTUluM7NIsAQhOts5TWhCGhoeRmZkticViY6Ik5FCTMjo0gvbqRgz3DkJhYQpDpultbIOBsSqSYTqp5fSMLJw6ex67Pt6GaC2VFNk+gli6R4pLSpGbX4iGhkZ5B2bjfJbqT5MXmeFrCJrIk9LT14OJsfHcim1NTIjFlm5DujoCA/3g7+cLczOzOTlYcf3mGJWVlYOqpbV1DegbGBDr5FyKknEuUbiLIFcFot4MrM7IVHo6ZoYG+rC3t0OAvy8C/HyFyD9dpM+CBAh9A704ffcUXOxcZcGimVtd6Lej2JGOri6U5mbTmho5wVIepeH48ZPYu20tYsKD5nYwZ2RGzGwlJK8xkU5ZdR0ycooQFuSNq7ceISE+ClYWSigUBqhraEVldQP2fZyA745fhp+XKwL9PNEiZEUDFJVVIbeoAssiguRnvf0Dsln/eDYZ29bHi8Xh2p1UWXi42f9w+qqAiogQPyGtOjCFAAAgAElEQVRnmRgrcPH6fXFbWFspcfRMklgVSipqxB2xPDoUjzLyUN/UBi93J1TWNkj7cgvLxfWRuCoGqdkFAhoIEPKKKnBo10aNdTJmtkfnb20qF8Olpy6Gg2Ku52JXVFOE3Ioc+d4cbZxmxcXQ1dCGlpIaGClN0NPUIRYDAgUrD0cYW5pNK7WcnZOLi1eS8NHmjWJFmG7xmzwKKpG0Dly+cg3ZuXlYqqsPL29f2Nnbw9Do9Ynj5u9Izk7LaN3hSb21pRkVZaUYGhpAeEgwtmxaDxsb63cKErh29/T0SjK0h6npGJ8APDy94eDoBGNjkzm3tMzOCGhfK8eMxPH2tjZUVJSir7sb/n7e8p1QQXWq72SBAoQ+nH9wFrYWtlgduvaFmGAxUxLxi79nqUabPTXX//w/f0dMqA+2JsTDyEizsCzth2ph3nH15kMUlVeJ+dfZwRar4sJlM66oaYTSzAT+vu7i8quuacTOrWvw4+kk+Hm6YFlUsCwYvX0DOHLiEuKXhSPQxwOtbZ249SBDXAHpjwtBouHK2HAhMWbmFmN5TAiMFUa4dT9T3AT2NlYICfDCzQcZSFwVCyulGU5evIHY8CA0trYjK7cY4cE+YjZrae3EiphQ3EvNRkdXNwYHh7F+dawAj/ScQiSspAWhGYWlldi/PWFGUxEvzNF93mo1SfHY+RtITFSTFHUkMqSwqgCF1QUCEBysHVRZlF5TeAqnpkh3Ty92bNuiGUlxAmgtr8dQbz+sPBzQUFApCop2fq7QM9IXwD8dSZFugZ7eXrFYUP9EUx851wwKLP1w9ARy8vIRFbMMcStWwsraBnp8LpOiLZJaZbRVxOEJjI2NoqOtHWmpKchIS4W/nxe+OHQAFhbTn0pn4jtRg4OTZ87jwcNUBASGIH71Gtja2b9WMnwmnrsQ63g+ZmPo6uxEdlYGHqbcg721FX7zq8/FEvQ6kLAgAcLAUD8uPboEEyNTrA1fC0P950REhuNVVFQKC9rNlf5y/WnHlCj02MkzqK+txCc7N8DdZWpUNW2F79kF9KfRzcBF0tTUWHIKMJSUlgX+LUmxli7B2NgTMdkTrerq6kjf8x5eMzAwBIVClbiHGxH91HQh0HfY3dsvkQy6OksFTJBjwGsp4NM3MAiFoYGc9Dm2hoaqfAGsj1wITv7u7l5xc6j+/UTu57X9A4MCHhkhwRBLtoPX8JkkK7KtGiUSes/G83Wvw/E8e+UOymub8dknB+Hr6yV9PTY+hryKXFALYWXoKthZ2E/ZI+z7ktJSDA8Nw9/fT7MwxwmgpbwOzUU10NFbKiJJ/Ib1KZTkagdrT6cpXQzqBqkjXLQZMgILRgncvpuChPWbsHLN2mdzV5t6PsRrSQq9f/c2kq9cxLLoSBw6uE983bNdGC59+Woyzl9KQsyy5di4ZZtWoHC22zdf6+f3QSt7VkYGzp09CT9vd/z2l19AqXw1YXtBAoShkSFcS0+WzSAhcj2MjZ5PyL6+Pnz1zRE5GR7YtwtKc/Npx4obR2ZWDk6ePosQXwolLRP3xOKpYdquW7zgPekBArasvBKcT7qHiKhIfLR50zNy4cjoCLLKMtHU3igWBCtz6ynfmt9TvQgljcLZ2VEzK80EMNDdh762LpIBxCKlDm01MjeGiY3FlEJJbBAJys3NrUJQ5nevyfdLoEhC5bFTZ+HjH4TNW7dLezW5V32i5vuy8B66w2hx0KTwHZ88UZHrDA0MxGLCogrXHH9GxCeQ1rQ9mjz3ddfwPbSNAuGGMzQ4iCuXLyIr/SF+9fkhxEQzzPg5L+xt2vSqe/nM4pIyfHvkB1hY2WHnnv0w03C8JwNJ9X9r27cqMu24jPPkk/fkiBdt63zTPlJZzMexdOnPMzG+rk7Ou5GRYdy/ews3kpOwb/d2rF29Sg5PL5cFCRBGx0ZxP/ce2nrakBCRCAtTi2cfUF9/P77+9oicAA7s260RQGCndHZ1i1k0g1LLob7CkLe0UPk939Vgv+kkWbxvsQfepAfUC1p//yByCkpx/V76U6nl7RIFoF7k+wf7REVxcGRQoobMTaYG3dzwbt25D36LJApbKDWQWp4A+jq6heuiMDcWyWUTayVG+gflZ6Y2ymmllslBuHQlCVu14CB0dXfj1OnzKK2oxr5PPoOjk7NW33tXVyfyHueINUyhMIabu4dsVpPLq9RF1X3Pvkq5fweRUTFQWliKRay5qRE11dVyANLV1UNIWLhYxdT3vFzfm4z9q+5pbWlBZUU5fP38YWGpWQZONUhqamrCkW/+Blcne3zx2SdywJqtQtGoM+cvIjU9C3v2H4KXj69WfBOCoNqaagFiHDcbWzsYGxtrPO48gZcWF8HW3gFWVlZyX19vL9paW8X1wn9zHhlpIPP/Nn0kBM3+ftTW1sDRyQlmZtMfhicDpJ6ebnz/zd+hMNQV8S1qa7y81y1IgECfKE2eBdX5iA9mXLbrsxfj4D/OzRehnAB/P81OL09Re3NLq4hbZGdnwdXRFhFBPnB1dpBsjvp67wbFv82EWbx3sQc06QGeIMbHx9A/OISm5g7kFZcjt7gc1tb2+GjzBskPT9eMLP6YQEd3Ox7mp8DM2AxRfjFQGE6tjMiTaENDk4QHMjRPI6llchAq6kVeWelkhZqMEjhH+GCgowejAyPCRdDR150yzJFRDKfPXcBORjFEhk+7aXCBraquwfc/HoelrQO2fPQxFIwS0KJUVVXixNHvERkdAwsLS7h7eklUVXt7K/QNDGFtbSPtIJDo6+mBiZkZLC0tMTI8gvaOdjl9X0u6gp2798LO3kHcX1kZaSjIz4OLiysUxiYIj4yU6zs62uXgQ24EC+ukIgHN7YxwoP9/oH9A/i3/PTAgGyAtQN2dXdDV04W1ja2cfoeHhyQUkGl/mWmwra0FbS2tqKqswMrVa2Dv4KhFL0DM1pcvnkNpYR5+9+tfwNtrdsLFBUA1t+C7748y1Sd27zsAU1PtwEhPTw+OfPsVnJycYa60QGBQCCytrMR6QqqJvr6ByrU2NiZ9ybBOtXWH19CFevHcaUTHxgmYYiktLkZ66kOYmpvBwMAQ0THLBCiq6lzyzNWttjapLRD8zggEGQ3G/2bEjLB7lizByPCw/K1OdkZAQ8Ihr+E8oJ4LQcnDB/exPH4lnF1ctRozzrW7t28h9cFtfHpwH8LDQn72zSxIgMBJ0tTWiBs5NxDgGogwr7Bnpx3+ji/OwkHWnsncKalq76U8RG9PN0wVRjA3MwZDRBYtCVrNv8WL52kPiB9ybFzCwbq6+4GluggNCUL88ljJnaAGB+rTYXVzNdIKH8HPxR8B7oHQ0/25KXLyqzLMMSs752m6Z6puahDmSA5CWR16WzphpDSWhE02Ps4Y7h2AnoEBHII9oKuvNyVAYFhicWkZ/Hx9hHg13ffKBZehcT8eO4nouJVYHr9q2qinl4eUG+rZUyewa6/KzM067925LUqdPE16evnA2NQUBbk5Quzkpp64YSNamptRWlIMfQMDFBbk4Ze//odnACEzLRV1dTVCljQ1M5e6HqU8wMDggJiTvX185YSadPmibI4ENTzBEqQUFeZLNEbc8njUVlfJRk+3KxnsBCReXt7C8C/IzxWOh7e3L5qbmyQqgf1FULH5o21wcHDSavZyTuVkZ+LS2VM4dGCPhLdO1/9aPeDpxXxOaVkFDn//E3wCQ7AucYNGPLPJz6Ir6uv/+Qu27dglAI5jUFFehqqKcrHY+AUEwMrKWvqIGzA3aI7F0NCgWIsoOV9SVIit23fAzz9Aqs7LzUFhfj6WLV8BE1MzGBkaorKyHJXlZWL+DwgKFgLlowf3sUSHsE4lNuUfGIyuzg55PsevpblJLFEEdbTmMFzTx9dXrAP8N/ky5uZKATSFBfkYHxtDS0sztm77GC6ublp3aVlpCX76/lts27IBievW/Mw1tCABAnthcGgQV9Muw8jASORfTRTPBZEIEFpaWkUKmKlRtVFV4wQk6mNylMqqGpSWlaGuvh4D/YNS31wWksWI+o0MDLUCPnPZ5g/92RwzzicSO1Um+zmMh540GDyB2NhYwcfLC95eXrB3sJPIkZd9x3TnPS7PESVFqpZOtta9bmwZl36HLoa+fiTSxaBJNscJoLOuBc0lNXgyOo6x0VE58VIkycLVTmVB0Hu9BYFt4XfPP3wHTXzg3MyZ2v2nE2exbsNmRERFy2KuTSFA+PuXf4KruydcnF1gprTAg3u3EREZIws3rZ1KpVIWfldXd2RlZiA6dhn6+/pgrlTKon7uzEnsO3DoGUDgSfTB/bswMzWDnZ09vH39kZH+CPGr16Kpvh41tdVYvmIlzpw8jsQNm2BlbS1WCE9vH+Tl5Ei/ubp5yAFH/U4EAEWFBTA0MpRnFhXkC4jgBvn9kW+RsH6jbDa0XKxJSHgjgMBN7ujhr7Fn5zasXhU/awChoLAIh384hujlK6UfuKlrUwgQ/vs//x/4BwXD3t5B+vjm9WQEBYfIOt/V1SF9xA2eYCw3J1v6lq6u/r5eePn6IunKJWzdNgkgPM4RsqadAy3OSnh4eSM9NQUubu4YHBiQubB+42b89P1heHh5wcfHH1mZ6VJvRVkJurt6EBQSLEDO08sbFpZWoAugorwUg/0D8PH3R2rKA/j4+Uub7t66KdYPC0sLPM7OElDn4uquTTfItU0NDfjbl3/EhnWrJNX7y9/NggUI/PCySrNQVleCuMA4uNq5P9s0u7u7JUUqRZMoTTpdrOfLvaoOC3m+6JA0NbfggG2pqa3Dw0epSFi3BtZWi9nctP4a5uCGpqZmpDxKRUxUpBD25gtAUOeoUBPgXmVpkwiRvm7czr4JQwMjLA9eATPF9OZcdZSKOqJEU4BOsytPTE/GVKZUIYHpPP8zXZgjCYd0nTAkkmnapytsZ1bOY/x04jRWrlkvJmNNgMXkegkQzpw8hp2798NcaY6KsjLcvJGM0PAI6OjoiUhOU1MDWltb4ebmJqHXDo6OKC8tlU3I3dMTJ376Edt37HoGEDLSHolfOSoqVqwS3Ny5mWzasg0N9XXIzEjH6rVrcfXyJew7eEisCNyw6MIYGOiHk7MLysvLZPMLCAwUsMGfMcSNgj1uHp6or6nFmoT10NPXx9/++kccPPS5mM75HJqr38SCUFxciJNHj2D/7h2IXxE3awChqKgEh388hrCoWMSvejHMfbox5+9Fbff3/4GIyGjRudDR1cOlc2fgzBP4xITwEQwMDcHTtbWNjZBIXd3cpH8IqMIjonDy+FHExq14bkF4nI2HKQ/g5u4uY0Z3U1ZGOtYlbMDA0ACSLl3Ex7v24tL5M1i9LlG4KrdvXkdfXy+aGxsFFDQ1NcLExBQRkVEyfrRe0AVFwBcSGiYWgzXr1gs/5Ou//QXr1m2AuYUFbt+6jvhVq+Hior0Foba2Gt/+7Uts3rAOmzcmvj8AgYtXS2cL7uXegbmJErH+y2CqUKWnZZhVanoGLl9JwqqV8UhYS4bm9OGOmkyuubqGp9CTp8/hzv0UHNi7C/GLOeHnaig0fi79jVeSb+D8xcvYtmWTJD8iQ36hFJo5s8uyRGY52icaPq4UrZp+4yWJ7N6DFFElXLs6Xk7QmhSeYLubOtBW0YDhnn7oGRlA6WwDSxd76FObZAmmdDGUlpUj5WEa4pbFwMfbc1orm8pcXY4jPx6Dp28gEhI3ysagTamuqkTylUv45LNfwPgpGLh0/iyCQ8JhamYmCz43eJqHeVrkYm9na4f8vFz0dHfD1s4OqQ9TcPDTz8UETQtITmYG2tvbsGLVanEHkDx49/ZN2NjaivuAG1hwSBiuXr4gDH5zc3NxLVxPuorg0DA4ODji0sVzCAuPgr2DAx4+uCebDsEMgSFPmo0NDRLOaWRohJPHfoSFlTX09fTR3NyIhA0bYW+vHQeB7b5z+wZS79/Fr39xCEGBAbMGEGrr6vDtkaOwtHHER9t3aE0GJEA48s1X2H/oM9nwad05f+Y0VqxaBUsraxHeq66uBMeWYIAcDVopHmdnigWXbgWGda5bv+kZQMjPe4yK0jKsSUiEmbkZ2lvbpD8o3DQ4OCB9v2HzR7h49jTWJq6Hq5u7uDBuXr8mFiCClcsXzsHXzw9+AUG4nnwVa9YmiCuqsbFeXBQlxcVYl5AoZNZjPx4RNxMtDeSs0JKkrYtBAHJGGq5eOo8De3bId/PyQWHBWhD4EXMBy6/KQ3FtEQJcg+Dv6g8DfRXblzKXhcXFsLK0hLub61MLwBKJz58N35g2i4q21/J9mMr2v/7wVzS1tGBZbBQ+2b8X9na22la1eP077AGSqf7PH/6KiooKhIYE47NP9sPVVTuW/Dts7guPIripba3Bg7z7cLByQIx/rOiOaPLtkNiVlZMrJ6/oyAjRydCk9Hf0oP5xGYyUplBYmWGkb1A4CUz1bOXuMGWYI7+RtPRMnDxzDrt3fowYDaWWW1pbcfTYSfT0j2D3/oPie9amdHZ2iok4OFQVaSD9Vl2N6uoq0fVwc/eE0tJSNoj2tlZxd3JzHx4ZRnlZqWxGtLQEBocImKDlpLGxQbgA3ERYJwmA9fW1Uq+unj78/PyESFdaUoSAwGBReqTVlFwGDw8v2dBKigtFUdDMXInC/DzZpKysbCT3iImpqVhX3d09pP662lqUlZUK8GDOAHd3TwE3mhZZb3t6cPSHw1gyPoLf/eYL2NnO3tpE3Zqjx0+isqYBBz79QiwlmsxL9fuQk3H7RjJWrl6nIhIODyP3cQ4aG+qlPxydnWFn5yD9yfdin/kHhYjbi5s6OTh9/X2IXbb8GTGwpqoSTY2NEnFCTgi/Abp0aqqrxCpBtwDHM+XBXYSERqjAXnu7uCVc3T3kd48e3JMxc/fwlOsIugwNFcJnYJsa6uulfuZSoIuIFhuFkUKSosXGLYeNjXZ9zjlBN1V7cyN+9cUheHjQwvWiC3RBAwROzK7eTmSWZqK9px3hXuHwcvJ+lj1QGKFLlghr9+GjNOEQBAX4i09UW1Oiph/LbFw3ODSEo8dP4crVazJp6F5gpr3YWY43no13+VDq5DhduHQVPx0/JWx+EvWoy8F0vWpW8nztC7a9oa0eqUWPJCFXXNBy2FvZv5A1daq2M916bW2dvLe7m4vGVpP2qkb0tXXDPtBdLAbjo2NCViQPwT7AbUoOAteCouIS3L53H6vj4+Hv5zOtBYHvwIX8xs07SLp+C2vXbxI3g6YuEd6vdkdynVEvrmqmOX+vDpNWxas/T0XN3z1XfFXd++z+p2qF6p+p3Zvq69WnPP5cpfG/5IV2qNs1uT7eK2ueSmBCrp9cD8ecZEi5Z1JbNJmjBEVUUySzf+umRGzeuF6Ey2arsK2Ux6eKYmRMnJjdtfmmuB/QtE+Lj44ANJWIGn3+5Bnw5wRZjPQg+ZP9QWIg+4v3sQ95H59JgqMcVoeHhbzI+9T9Sqsvr2ef0g3E/u0f6IehoZEqYkHa0Sf8JLp66B6ipYLWboYvEmCrwy/pNiNAUct+EzT29vbIN0myqZGRQqt5K/LphfkSgbM8NkrSstMd9nJZ0ACBL0OfI10N6SVp4usJ8wqHh4OnoDz1QFEE5pvvfhCGc3RUGLZs3CDKUWXllWDIC0OE3F1dRRims7NLfP2yEVtbSZgWO7OyslqsEryW5ktODsqzNjY1yaRycnaCrY21LDi1dfVyrcJYAR8vT5kgvJY5wjnZXJ1dYGmpBDf+qupq0CTLWHE+i4sT62TIJd/B0cEBnV2d+POXX6GyulYmJycUc4zv3rUdPd29kr2MpmsnRwdRreO/a2rqxJxIMGFrayPvU1NbLycT3u/h4S7IuLWtXfyjBFOOjg6wsrAQlcOGhgb0Dw7AWGEiizz7sqW1TcibYqZ0cZYELZzEfF+q5jFBFtsgoUgtrZLyl+IbfAeeIunDq6iqllMSE4XYWFO7fSloMmSabiJlJhNhgq2urm40NDaJHj8zkPE9OA41NbUYGh4RZUW2l+/CdtH0SpaIva2tjC37lv5/jgc/Hr4D29Xa1oaOToaHLYWLs6N8gGQGNza3iGvKwtwcDg520l98V+pjMMzJ0dFePv7+gQHU1TdIXUxlbGlhId9UfX2jfPy8xtbGRk5o//H7P6C8vEpM41wwyUP45MCeWT1dvc2irIpuGBVwkFOejcHhQSwPXAEnG2etFh/JZHfztix+mzYmPuujKdv2VEmRORjM7C2fgfyepnboGU4fxcC66dLg3Dc301xqme/MeUYrAjOBbt+xB14+KtlubU6lb9PvC/VedcQYLSHnT5+AicIQv/31FxpFkLztO3d0dgn4LigqxZZtHyM0LEJCEd92zPhOk+tQg7O3rVfb99XkuS+3VZNnqIFqXW0Nzp85iZGhAfzu11/A0+M5h29yPQseIMgkfTKO9u52pBY+FEuChGO5BQongRub8BVaW5HzOE/efUXcMtlg/ufv34lmAjcgSoQyy1V2zmP88NNJ2TRWr4zH7p3bxMRHdcbCohLZfP7tf/0TrG2scD/lIc5fvCKb7r7dOyWtJ4EAZZvzCwplE+a11GS4n/IIp89ekOd//ukBREWEy8b21TeHZeOOiQrHnp0fi0zp5aTruHQ5CebmZti3ewdcXZwlHOvb74/KhhwZFoqNGxPg4eYmKDojI0s2sP17d8PL0wOP8/Lx92++w1IsxZo1K7F18wZZPHl/aWkZ7O3s8L/++bciIkVBG0qWcvPev2cXVsbHPVswyyuqBAz98z/8RhZMLvpXk64JYv31F58hODhQwMG3h38U8LN8WayIU9FkevFyklxPFw/71s/XW973//3P/xJW/9o1K7FxfYJsvl/+/Vvk5RfKe+7fs1MmK83Fh3/4SZA2xXY2JK6TTf8Pf/oSdQ0N8HR3xxefHZTN+NyFS7h+4xYmsAT79uzEyhVxqK6pxfdHj0sECpn6//av/yRyyxcvX5V2Ean/8z/+Bn4+XpK9j9cS1HDMPz24V4AALQA3b98V4PfbX34OV1eSvyrx33/5Ejwlb9+6GQlrVwtgYi6PgoJi+Pp4Ye+enSIUk3z9Jo4eOyVgkml64+NiRf5bU5O7Jh/8TFyjPgVTCKm8vgz5VfkCTsnrcbJ20traRrIgwRnBBsMNNTrdTQBdDa1oLa1TqdTxVAzVqZsuBhtvF+jo6byWgzD5NM/ToKaRDKpDxjiKikvlEDEy9gSbPtqGwMBg4SOoN4Z3vUHMxLjORh3qjYt/E3wz3I8EyYnxYfzqi09FWlsTgujbtk114KnFN4ePorWtA4kbNyM8MvoFueXFMVP18uQx49rLcM7kq5fR0dYsAkmREWEvhDa/VwBB/TJMSdvT342skixUNJbDwsQC/m6BcLFxgaGBoZCrVBKmT4QoxONmRUWVnDhIznFxc4a5qcqCwE2Pi8wLFoSqakkEw4XTx9tLxF9UVoEmudbFxUlOxCSx1NbWS71MzcoNgxOVm2N9fYNIz3i4u4lYCi0HzBvBsDCeRFkHLQiUqW1sapZBc3V2ktM2QQgBxoOHaTi4fzfiYqNlEayorALRNJMRcQOjKZvvwARU3LloPeCpnm0sr6gWk5mBkSH8fb3FlMWFnO/AD46bF69ne6qqqiV5kpmJiQjn8B14HQVwuCGyD+iq4cm/nO8wMAgbGxt4ebhJH3Njbmxsls3B08NNiFQENwQC/D35E7QAEMCVlJbJSZ3WD4IebqA86XMzZtgZwQ/fgW3MLyySvqA5jNYZntgJBsQ6A8Dd3R32tjYSYlcm7eqXGOLgQH/5UGgd4rV8rr+fHyyU5qr+qqiU0Fl7O3sBRQSFFNHhOJDIxexn9P3RslFQVCRse/YXI2Ro1SkoLJZ6COoIcAj0OObJN27i/v1HQixdvWqFRmbvt108Nb1fDa65kbd0NgswaOpohL2FPSJ8ImFrYSd+f1XEtuaFfce+Hx4ega+3FxQKI41upiWOf56MjopbgXNuqZ4OlurqCiidLoqB70PrTmpaJoIC/eDt5amR5UN9EiZIIFBsaW2Hf3CIEPsc7B3EJCzmee26QaN3XlAXiTS0KjMgtRMYXkdynpWlOT7ZtwdBgf7vTHlWfRKmpfSHn06gvLIaPr7+CI+KlogNWgYpe/3BjxldWeNPQG0ScmDyHmfjcU4WjAz0sW/PDrFqTmUtW/AWhMkfGCcNzaIVDeUSt9032AcTQxNYmVvBwswKZgpTGOgZCDGIGw/9dzxlq5Am/W+sbf6uArRCUEr280P74efnq/XCvaAWo/eksfmFhfjuyFHs2rENy2Ki39oEqk23iGVAHC8Twr9R+8bHn6j0NPqH+tHZ14G2rlZ093fDQN8QHvYe8HL0FtXEN+XpqF0MPX192KKpiwHA2MgoOmtb0FnbjPGRUSzR1YGpjQUs3e1haKLKzjjS1Y+ezGooPG2gcLMWEPzskPDkCcrKKyRskeD80IF9sLNTqQ5OV9QbDsH57Tv3BMgODA3DwNBIlbhJw/wK0z3nzX4/IQcaKXOdVfLJBEZGhzE8pMof4e/nK5EqtP5pw914s3548S615aulpQ137j1A9uPHcqihgiXVDOfDmHHY5nxfkTEbkTHT09OBr5eXWDR5EJouz8d7BRA4fdQfeu9gL2pbauVE1DvQI6xh8hWEBKKnLyBBdymBwpKn6VxVJ6W5/v6m+nAKCorwKC1DFK9obVg0oc3EMjO7dVRV1eLajZsSF07i3LsaM4EFT1QAQf1NUIVvlMJNoyNi/mdbDPT0YWxoAhulDdzs3cXy9rb+d7oYWlpahF1NoTJNXAxsY09zBxrzK2FsrYSxpSlGBobQ3dAunAQ7HxeNsjnSKpealo7H+QXiAmJOCe6umvS72hRLMyytZSUlZWhsaRHL17PMSbM7XV5ZO60qbe0dMi5WVpZzvkbRokbgRSsieVMEUNoo1s5kF6rHjFYrugg5ZvWN5AMNzOmY0dLS1t4pFsn2rMoAACAASURBVBcKkok1Yw4Lo/vYDlrVaGkm32syMfZ1TXvvAMLkFyU3gcBgcHgA/YP9YlEYGh2SBZKnKBLz6C9XKSSqzlrzuRTkF+JRWjoSE9YJYp/Hxo753I3vtG3VVTVIvnYD8fHLJTfIuxwz1dlaxUwn21kYzzo60NfVF2uBsYECJkYmkluB/xZgMAMNJMk1PTNLXFVxMdHPskJO1fEEMy1ltQIK7PzdoW+oL1wEyi+PDg7DIXBqqWV13WJFHFSlJyfHht83Nw5yQsTsrIGA0uSDBpnptLzMVeH7MKHUhYtXxeWZsG61EHPnsvBkrqfLw9X8SmSnBsJ0p5Jv9Nzs8m57i08mQTcp+aZ87xvXr4PpKyIE3mWrSAZniL+24P+9BgjPFg1u/fw/Q40ICMhFmFCrIz4FBvMdHQBCiiT57/NPD6pOozOwmL/LSfohPiuvgC6GH7F75/Z37mJ4ig+ezpLnoXQCFJ6mh9XkZK3tuBEgMH36wNCghOJqkouB32ZbZSN6GtthH+gGQ1NjjA2PoLmkVqx8BAjTSS1Pbqd8zuSc1NQJ250nb5JXvbw8VOFq/f2yJkiI2NPTFK0P3FzEsmKg/zQhzqhE9bB9NMeS3Mwi1z7N+UKJatbJU+zwyKhcS/IteUrkzdCdw7/5vZJnw12D1zLlLtvJEzg3fbl2eFjWJ7pAeT/rysrOFTKzvb0tPj90QDhMk9UqGQKnBg20fsg7LF36TN5bXS/bLQDxKcDgs8bHaV2BPEv1DmNiXeKZiVFOfA8VIZGHqicSqsdr2Ud8BwIoFlpleT3bxWsJzFif2nrEa9WJivh89iXrYxskbFBXV0CHuJHU/bVkqdTJa9WpqNl3qndQtYvXEgxwjjBUkCd1tonJj1i4KZLLxXYxSkltcVAnEGO96nHk8/ksuXZ0VNql7kfex3oJWllYJ9sh9z/tA/6b9/PaopIyfPXNd2Kh++zQASFpawpOtf3eZvP6DwIgzGYHvsu67957gLMXLgtbODDATyOz6bts3+Kzft4DjCjh4s4IkRVxsR/EmHFD6ujolIWXoaCTkz9NNUcGe/pRm1WC0YEh6BoZ4MnomCp01d8NSidVVsSpOAgv182FmkJGV5KvIze3QCJnGB7MTenID8fRTV19T3dsSFgHE2MFrt28LZsxN3FeR2IrBcquJF1HT28fAvx8sWXTetnIr12/haKSUtlAD+zfDRtrK4mEuHPvPnp6+gQMrl0TLwJGN2/fE8VGhjIzgokbRUFRMW7fuS9ZGhMTViM8LFSuvXz1mmhIMAKKkTvcIL/86luJglIoFBLVJBE9gwOirNrV0wN/X18hwNKMfPvufeQ8zoVSaYZ1a1YLmCDp+tz5S2BekKCAALmWbqDkazcl7FhhbIg9O3fIWOUXFOHe/RQhHS9fESsWIFowqBVRXVMnpF6SpLnJ5+Tmi4z46MiY9AsPLe0dHRK9U9/QBB8vD2zZtEHmfEZWjmgXsL8YvcR+7+ruwYlTZ9DXNyDJwpYvi5Z6GTmUm18IS6USa1bHi9Adw5u59vE4FxYSLC47ySB5ORk1dXXSdqb5JhBktNrdBw+F8LosNlLGor2jE9dv3AbTUpME/YvPD8l0yczOQXp6lvTH1s3r4eXliabmFty8dUdIxnz2ju1bZc6kZ2YL8CXo+WjLRiFO0xWVlHxdwtoZDRATHSXgiJFd12/fFdCz/aPN2L51k4zfQisfBECYHOYh9oKn1oL571R4cTrdu8+wysv45eeH4B+wSFJcCB9bXn4Bvv7me+x9KmU6Gyd2TfvhmcWJWjhqu4KWojiaPIshtZeuJEskDwVYuHhrUsi2Hh0eQW9TB4Z6+gUkmNgoYWimeGYa1QYgqIwIquyunV1dsjkxEoURLkwXzPbRJ7tpQ4KYgK8m30BGZrYABIbWhgQHSZTQhctXRW+ELP1tWzcLl4mggWGt+gY8Ie6TcNvCwmJcu3lLAMKK5cukDj5XwERRiUQu/eZXn8uplhsgN1JaJ7i5UvmREsBnz18WUEIC2dYtG1FdXYN////+ICG+LAQtDDvmc5nRkFE1wUEBAhp4KuY70L3DjZybM3kCTDrHjJXjY6OS0nfD+gRJzMRnlZRSQVEhGyajsLJzcqVdtLAkrF0jBERurhcuXUF5RYXokfz2V7+QZ1HOniHDoyMj2LtrJ0JDgyWc/PS5i6ipqUFgQIAAGpq3Kb1949Yd2Vz37PoY/r4+AiK//Po79Pb0YllMlHCraLk5d+EK0jMyBXR9tHUTfH28UVJWIZY4lmWx0UJ+pUXgx5+Oo7S8UqKiDh3cKxojKQ9TcenKNTnxb0hcLe/R3NKCk6fP///svQd3lmeSLbpBEso555xzziByMmByO7Xt7vZMz+o5Z+5ZZ93fcO6ZO/f0dHLb3eN2u50xYHKOAgWUc845h085AHftevmEwFj6hAFJoGctB0lveN560q6qXVViUWKk0f/9P/+7rIBbt5V+0WpCTT8owF8inY6fOC25Tfz9ffGLd98SixGBCwEYc8689/YbknmQY/X1N0cFRDEJWsq6ZJHB//rf/wc9fX3SX3c3F/z33/wznBwdF42rocn6e9I1Ly1AUG8ME9MTmJgcl9SYwxPDGJtkHXTFlDh9b1rhH9Dd8IDM9bSCfBH3VZc3oDC7HAnrI+DgZPtC/dkv4vtexne0Nnbg9rUcRCUEw9PH9YWOmUK6VSJ0GK6oRZOtFkm6utAjB0HPUDgI+rrkICjRPc8CwNDsy5whPPyCAv3E9z9f43od7OjF+PAYLF3sJOcBTbyDXX24N30X5vbWGpEUf+w9aiVBDRrYN2oKtEpIlMID0zatHvx/an60fIhpm2GXNIOvVkzb/Ltinle4CTzU1OZmmugVd4SWHIaKafuBi0HM8wo5jM+lBsxrdXTozlDM4A9dDCxSpSVWgszMbPT09kJXT1fySjAiJjQkWA5m6ZeY3JnRjyb3KQEwPJT5TP6N/SQXS8kAqLgYqCPRekHiKucHqzzSfSBuAzHPKy4VXqv+BnUmSIYWs82+Vv0NijtjUly4fBcjHdjYL16vlpfa7E9LBRvlNeP6oLymlXGgbNkPHvbKmEHGht/GxpDLh64PhUdDebMPbLxO/Q28X8lGuQpGRoo2z2vZN3W/eC2/gc+l64LPY5iuWgbqb1DqMyiuDwFvMo6KvGltodWKY0aZ2ljbYNdr25GUELsCEB4s0FX3Z6/I+XaHZ/x3osH+oX6J7e4e6EL/8ACmpicl3kSJXtBSSFsPSDYzYY7sxxIOY6gpb0BRTjniUyJg52TzTDbzZyz6lcc9JgEChPTruYiIC4aHr/MLHDNGL8hxKP9VQh6VaoncUGluVh96pgYmsDSzkvwHFqaWEgr8U4ACD5jGpibZfGniVh8oc00OkhQ7q5sxPT4paZW1eWDevYee+jYhLtr5ukJbV2dBLoblPhl5+HR2dktGzy++PQJ3Vxds27wR5pYWMDMxWXaHzXIfD036T3DR09MnVgRaewkaaMlhhlgLcyVd83JqL5UFgaiV0QoN7fVo7GyQOG9qSaaGZjA1MpViM/q6etDW0pFsX6tXKbkQFE1LYeT+lI3xeQ98esYdnD1/+UEehBcXMve8v+tlfn5JaQU+/+IbycgZExP5wuaXEiNOIq4Sn6MwvO9imv9MT2F8clzWh2pUhYHhAUkyxiRgztYucLN3h7mx+QyRcaHjQ62Q5lgyuTdvWq9RqmU1SXGwvRe2vs7QNdLH3clpdNe0CFHMPsBNQMNCXQwL7ftSvJ4py3/7xz/D38dbMpW+6HwDS1EmS71PdF999o+vxRX05uEDGkXyLMVveikAgqRkpbYx2I2i2kJ0DXTB0tRKajLYmNnAQNfgQXKkudHb4+BA2WQVwsIiGkRm5s2ttAxJ7UwOAkmKK23pS4C+5k8/+wIH9u1BfGz0CwMI80lGPbfv3r+LyelJ9Kv60dBZL3UYjPVNEOgeBCfWYHgKtwMJX/T5srgMNSdN8iCwvyQpthbXYWJ4VIo10bVAy4KNj7OUfV4oSXE+GfzY39XuSWqDtLgsNleJRMsPP/4EPl5eUn9lObLhn3Yslut9rMXy1TdHxb3Btb+U0qvT6ahORT5f2ONLARBoLm3vaUN2ZRZGxkcR7BEMNzt38a9yg1toU8fTMoUxM6vRl6SE4yz0Sc/2emaJY4Y3knRIylnK1o5n++XL92ksepWRlYPw0BAxty+VMaMWymJbTGPNucT042Pjo2jpaUFpfamAhkjvSHg4eoolYSGNa4VMcuZBiAwPFWKgJk188MNjGOkexOTYGLTW6EDfzAgG5sZSiIfteVsQCArIxCeHgqm+ad6fmKKvX5MveD7X0D1Kch2LmNna2i6ZOfR8vvbleKqcSW3tYv0iSH6ac+h5SIIedLo9SBx2d3NDgL+PEGx/zCq17AECkyGRa5BenIbxqQkkBCbAycb5qTQfDgg3KbJr0zOzJCyHvqS7d6cWGxsoc0W9Sy1hnsTzmNTL+plLeMzIw+HhHRQQgPXrkqS2BMmMnX0dyK64g4EhFVLCU+Bi6yJx+Zo21sq4fPUGmGp559bNUktk3nYfGOoZEHKagbkRhrsHJIJhYmhMXA0mtuY/iaQ43/upFDDBUl5BkRQva2tvg64eox4MoKOrI2SzlbYigeUuAbodp6buYkg1htGRcdjY2GLzhhQlX4mJUtxwdlvWAIGLemCoH9mV2ZJPPj4wEa52ipa2UE1NnXSjqqYWp8+cR21DHZycrBAc5gVHRysYGOgtO4LJcp/MK/1/PhJQJ77p61OhvLQRFeVNkk1xy6ZNkquBYW/dA91ILbwuFTLXhq6DLQs3aUiwohbOGHf+l+F2GuVBuA9017ZiemIKpo6WaMqpgHOEL0b6VJgem4CNr8tz4yCQrc4wtbPnLiI1LQ1WNsZITA6Bt7cjTMwMJTxycfP6P595sPLUV00C5CHdx/TUXaiGRtFY14ZbqUXo6VIhLjpG8lOwWN/sdb6sAQKJViX1xahpqUawRwi8nXwko9fTNJpFmdTm1NnzuHd/HMnrQxEY6A4jYyVL2kIBx9P0YeWeFQm8KAmoOQgM8Wps6MTtm4VoaujBuqQkpKxNFp8p+Qi3ilJhbW6DWL9YGBuaaLQOGCJ2JytX8uEnJsSKK2PeJgChBUNd/dAzM0J3VTOsvJyEj6Cjuwb2gZqlWp73PY9dIErGwCDOXbyMjDuZiIjykrVvZWW24utfqDBXrl82ElC70QcGhpGWWoT8nBoEBwRj187tYvFTn3fLFiAwYqGjtx2ZZRnCuI7yjZYohac5yOlWYJaw745/j7GJQWzeHg1fP1epfLXSViTwskuAWkVXZx+uXclFfXU3du3YgeiocHE3FNUUorKlAqFeYfB19tPIl8oYdIJtmuzDw0I0y0N/Hxjs6EFfY6cQjrkxaekyne49mNhawNLdQdIiPy0HQU0yfnx/YChmekYWzlw4j+BQF2zYEiVuBU2tJS/73FB/35Pk92MyXSoyWer9WwpyUgDyMG5ey0NRfiN2btuGpIR4yeDJtmwBAs2XeVW5qO+oF3BA18JCyVTqAWKiiyvXbuBW2i1s3BqBiChf6OoqpKhXsf3YwuLvyVBnUhP1RktwRaY3N1QtrYf+q9lRH0+KDlHLlX97nguZz2ZcPvvMNpPzYsWl/MjU5jg2N3Xh5LFbMNS3wOEDe2Fna4vB4QHcLr4lyZXiAxOkDPR8jfH7La1tkoDGxdlRkgPN2+5Doh4mxycxOTKK6YlpAQQ6BrpYo68HHb0HyYzmKPf8Y+/gHGAqXO4ZtIyomdv8PdPqslbD8FgvDr6xHnb2lk+lZMz7fcvgAsmRcVdZ37MBEgHkkGoEq1avEvCkXrPDw2PC2ZoNqPgz15skm9J5NPGWOjpEqaegWGWV2heP7h3PQlR8F1M4T0/dk1TS5LZwT+ecWmmPSoBj1t7WgxPHb+P+1Br8+le/mOENLVuAMDo+igtZ52Gkb4jE4GTJd/C0rb29A5989gVMzFdj195kWFg8nSXiad+/lO7j4u7u6pcFbGXN0r8PD/2e7gFUlDciMMgd5hbKQTE4OIyyknq4uNrCwdFafsdCKR2d/VANjsDG1lzkqQ7NUjbrUfT3qWDJsr6GehhlWd8BXmv2zGO8R0fGcOF8FhKTgzEyzHro2tLP2d+1lOS/mH2ZnJhC2q0ipF4vxsG9+xAdFSEZ8UrqilHVUom4gAQhLM5npWOq5QuXrmBwaAh7dm6X/PiaNKb/7W3sQGd5oyRMYnEmM1db2Pq4SNijZDt8CoDAQ4guj+y8PCFjBfr7wehBdb38wmIcOXYccYk+WJsShjWvqGJAYFBV2YzamlZEx/jD1k4ZMwVgT+HWzSIY6OshOs5fwAOzNeZlV2JsfApxCYHQ01MyENbVtiIrswImJgaITwqEldVDgipJcZkZJbIGo2P9RaHLziqDnb0V3N3tJcso36fmkM1WMtS/V/dJPQcfv372PblZFejs6od/gBvaW3sQFOIBE1Ojmamo5p0q96ySnDivauO+n3arGJfOZeOD999DSHCQjMOyBAgc0NbuVtwouIYg92AEe4ZoZD3gBCZaYkjH7AnGkKy//eMzbNkRJeSkVzXOmOukrbUHx49cg6mFCXbtSYS5ubEQWziBWlu6kJVRhnUbwmUDoTWht3sQt28VITjEA77+rrK+Wpq78P3Rm5Ia1tLSBBs3R84ACj6rIK8Kp76/jXXrw+TgbmjoQPrtYhx+c6OkVp2tgYiv7EEsujr1Kd+hTvuqaCGK1sN/1BYD/pcb0dDQGP70u6N4572tmBifhraOFuwdrGbGn5sEwYKiPXFuKM95FRtlVl/Xhm++vIrQwAgc2Ltb1kpLVxMyyjLg4+Qr+RGYUGmuxgOZxXp4sDg5Okjefk3acM8gmvIqYeFqCxNrc4wNj6KntlUKNVl7OonLY6EAgfNEpVLh6o1bOHn6nBxirE+wZWOKlN9m3v7bd25j78Fk+LzQTJeaSOTFXTM8NIrrV3KRl1uFHbsTEBnlJ7Lq7VVhcGAIxQW1AuiT1oWiv1+Fvl4VaqpaZK9M2RgOfX1djI5O4MK5DNydvoexsQkEh3oiNMx75uClMvH9dzdQX9+Bt97dCicna5w5mQYvbyc5vHt6BjA4MAwbGwuYmhlieHhc0kGPjE7A3MwIBJ6MpmFdBDNzY1nbU5N34ehkJWu2t2cA/f1DMDU1grWNOe6kl6CtrRfr1odjeGgMJmYGUKlGZJ1zb7CxMZf/7+rsF+sCrUdq0/qLk/zSeVNdTQv+/skFJMevxZ7dOySZ4LIECJy4JXVFKGssQ1JwsoQ1zqfVcBhYDOV2Oqui6cPXx1uKk3BisQDH6XOnceBnKQgM9tDoWUtnWJ9dT3gw5+VUIiuzHIZGekheFwp3DwcU5VejsrJJoiyphW/fGY/evkEUFdQKT4OWguSUMPg9AAjNTZ04ezpDrAcG+rqiYRC58yDmIV9UUI3U6wXS8d37WF1vChm3i7FnbzKqq1oEMFBD4eZiaW2Kwrxq2XC46Hmgt7f1CUCg2dDYxBADA0MwMTXEpi3R6OroQ35etWxWfv4ucHa1wV8+PIk339kiGwEPGQKO1uZu+Tkg2B0ubrYoKqiRTcTB0QoJiUHQeZDr/dlJd3k8iZadrz6/DIM15vj1B7+QJEd9qj5klKZJAqUov2iJeJirERg0NjVLmWMPDVMt83ks9zzap4JdgJu4FDhOXVVNkjDJzt9tQeWe1Zomw5S//Po7VFZVg3lN1BqmubkZ1iYmYGx8DO3dTTj0xgYZe032keUxkpr3kjIhqM+4XSIVOPX018ga7+zow7kzmTA20pO1EhLmBf8AVxw/liqKQ1+PCu6e9ti8LUYAArknXNclxXWwsjKVPcHcwhiGhqxboCXWxksXstDbrcKaNdrYvS8JVy/nwN3DEdqrV6OosEYA/NjoONZvjERraw/KShtEyaDb99iRm7CzN8foiFJTgVbM1tZuxMUHIDTMS8AN3WQD/cPYsz8ZTfXtAhD8A91QXdkMXz9WhewUUi6tllu2xaCmugX9vSr5OTYuABHRfq8s/4Tjzb3Sy833QVEx7eUJEFhrIa34FnpVvVgfvhHmJuYz1emetCy4AIg+m5qb8e3R76WcqreXlyQc8vJ0R1FxCW7cvoHDb218tbWI4TGcO5WOyQcFZ5ycbRAe6Y1/fHoBwcEekkynoqwBKRsicPliNrx9ncV9kJdbiaTkUPgFKBaEhvoOnDyeKmVguUmYmRlJNIi9A/27qwUg1Na0SfEVXb018PRyREFuNeITA5GXUwVffxc54Llh8F23U4vg4sK++CA3p1IWO39/J7NU2OZuHnY4fzoD//o/DkpsLwFKfV27bCJr14fiH3+7gMNvbUJleRP09dcgMNgdDXUdSEstlr/39g7KxmJjbYbqqma89e62GROr5tvsy3ElNckvP7+Ee5O6+Lff/Fr4A0xfnlOZBbr1EoKSJG35XI2pllkhb2h4GFs3b5Qc9PM2RjHUtGC4ux9GdhZSqEjcUR19UoNB0ygGjjmjJ4RvYGQk6Z4vXrmGmpp6lJVXiA+aFf/CQoPEjMryvQ0t1Tj05gbY2xMgzNvTl+4CatH5uVXIzamAg4OVWJH2H0xBdXULWpq6sHVHLG5cy4e5uQnW6GqjtLgOBw6vR05WhQD+DZsjBSBQUTh/NkPWnpu7nRzMtdVt2LwtWngKBAjcN+ztLVFaUi/gvb93CM4utkKSpUZPEHLhbCYMjfRFm+/rHcTGLVHQ09fFb//9iFh6RobHpQ+btkShIL8Go2Pj2PFaPJobOzEwMIKMtBJs2xGDwcERtLf1CjBgKC8tlnSPXDiXKaHrFlYmyEwvg4uLLfr7BsW9tPdAyitrRaBr+S8fnoKbsyc++MW7Yj1clhYEhjdezrmEVbiP9eGbYKg/N/+AGs3lazeQn1+E2vp6qFRDoimQsBQaEiQbSXFZEQ4cThFT16usRRz95josLE1FG6DGv2lrNI58dRWvH1grP3PxhUf4yCJ+7fUkGBkbIPV6PkLDvcSCwE391PHbcuha25iJGZBmvXUpBBBu4usjQGhp7oaPn7NoHNRYJiemERHlg8qKZvEF0/f95acXJaKkrLQRUTF+8PJ2xOUL2ejvH5YNgDG81C78Alzw1z+fxvu/2inay9johPAcSJKjJvLFZw8BgoGBrvSTrF07RysBPjeu54sWwU1tZGQC8UlBAjxexXlA0/FXn1+Cka4l/vmD98WCMDk1iYKafLT1tonFzsrUal4XQ1tbh1RB1NjFIFEMvehtbJf0yko5asW9ZGJnCSt3+3kTJXHuqYaGkJGRJeWKWQKZa5xhlzm5BcjIyoanuyuCg4Lg5uoslVwvXbmG7Lw72H9oLTy8HF/JMR8ZGcPFc1lyGNPqV1/bhqAQT9lfOzr6sGV7LG5ez4eZGTNaaqGirBH7DqWAPn4W/tqwKVLcSATmx7+7gchoX9H+mxo64eZmJ9o8XYdqgEBOAP39p76/BX19PYRH+aCnawBW1qYIDvXCpXO08uphjZ5SsCtlQzim797DH/7PUbz5803o7xsWIE/XQWFBDTo7+xAS6omcOxViBSrMr8HWnbFCrJwNEGjJLC9pAPN/8O+tLd2iJJA/ZWxiIIoMlYdX1cXc2NCBv/3lLKIjYnBo/+vLFyBQkzmXeRbGBsZICVsvpWofb9Qk6AvlYHMjYN3y6uoaVFbXoqOjEwb6+vDx8UJURJgkcjl19gw2bY1A4trQV9IHTY2L8bCcJPFJwaKJZ6QVIzYhCFkZpbCxtZDMctwENmyKElBgamYspsbamhbxTaoBwrEjN4Sb4ORiIwRGaiiH3twIdw/7GYDQ2tKDhORg1Fa34MzJdFnY1DSolfCZNPn1dA8KR6EgrwZRsX5yPwGCamgEm7dGI/1WiQAEAo2/fnQab72zGRfP35FNh/nz6TJRAMJFsQ5VVTTJ2LI/3OSi4vxhZ2uBttZu1Ne2w83DXkyfoeHeskG9ao0HbF1tG7796irCAiOwf+9upeTx3WkU1xWjrq1GAIKthd2comFOkZy8AgwPjyAuNkqzPAgMqZqaln9mE834Ii1tbWitUXhDc3EQOIeLS8tw7PgpeHt54PXdr0l2OO4FLHhEy4K1laVUl6QmSXN6VnYOTpw+jQ1bQhEdG/hKhjaTwX7h3B0kJAXDwdESZcUNKMhXLHrUsK1tTGUtevs4i0uB65X+eloMaBUkJ4kWBJKYaTmkpZHuP2rw1tZm2P16EkzMjOT669fyxPXn5m6P61fzkJ9ThS3bY0T54PqkhYc8hISkEHS09woASVobIjwjardU4gb7R2TPSVwbIgpBZ2e/PPP2zSLY2VuI8kGrBgECAY63txOqKprh4GSN1BsFYqlwdrUV7gJ5FHRZ6BvowNvXFb5+zq+ki4FrhHvviWO38eahw4iLiVLIqBNTGC5pkYRpJqHOAtKfRXuu5Z5p8jxx+3vYWdhhbchaqac+u0nIVkur1C0IDPCDs5MjmP61u6cXJ06dBSttxcdFIzggQMI5+gcG8Pd/fAlDs9XiB6dv61UzNRJMFeXXiGnPy8dJFmRxQc0D7sAq1FS3PjD7acHH10UWMf2DjEKg+c/VzW7GLE+/YElRnRzEFhYmEr5mYW0GPz+m7F0tyJ33e3g5iImSnAdyGejOIOKni4L3Bga5wcBQXzQaPt/C0kRMhSQuERTwUOffbWxNkZFWKuxrmkdJtGQGPH09Xbh7OsjE57O7OumDvic+yt4eFfQNdGFvbwE7B0vUVLagf2AY5uZGiIjyeyXDXGlxUUcx7N+zF7HRkQKwmc68vLEM5Q1lSAxJhr2l/ZwuPbqOcnLzxcWQEBcNU9O5XRIL2XDmAwhV1TUoKCpBTGQE3NxcHome4XtmW4UIRBoam/DVt9/BwGQV9h9Kgamp4StnX+kXtwAAIABJREFURaAFgZYjWg9YXIg/93T3w8raTH4/OTkt69PIyAAmpgayRjlX6AJgCKGFhakc8Nwzurr6oBocFaDNfWGC5bvtCcp0BbDzedwzuM8wTLK7s194Rryea3JkZFz4T9ZWZsJ3onJHHgP3dO4btrYKOXp0bEI0fqYMpoWYLsyuDoVjxHBM2Xemp6XvBPt8rrb2aln7dHPye+ge5Xf09w3JPkSLp6mZ0SsHELgOaN0hcbylcQD/9q//AntbW1mWyxIgDI8O4/vbx+Bs7YykkLU/SN5CM+P3J8+gsLAYbxw+gPAwxSrA4jGtre2S/pWbljqef3xiApcuX8P1WzewZ2+CpFd+1disnCSzQ4nUJC+6BAiWuEDVG+zsHAjqvz8emjT7evUBMPsaEh4fDTN6uHlzsdK8rI7FfjTESXka7338GXy++t7Z+Q7U9z8suPNo5R31fXIdoGwyrxhC5LeTpHTkq+tYo22Et392CPb2diIHjmVFUzmK64rEguBg7Tgv54cggZYEpm3WKNWyhihhvigGpQLjXWhpaWsUykrF4fzFK7h28wb2HV6LiEifVy5z6myLzey8JE8akif9/XHQ9WP3PdxTHq71x61FmryT7qfnV2FT2e9epUbgln2nHOdOZ2Jd4lrs2rlNgOKyBQhDIyocSz0KTwdPJAQn/SDEkf7PI8dOSJKWLZvWz8Q8/9igc5KSdf31t0cxPj2EXXsSRPOcnRDoVZowK9/6akmA1hqStK5czkVFSSv27dkt1gP1wU4+SFVLFQqq85AUlAxHG6c5AQIBRX5BEW6nZ+C1Hdvg4e72zADXXACBURNTk5OyubHvmoA8rn3mQfnmu+NobKnHnn2J8A9wF+vSSjbFV2sdvGpfy7lPMnhleQMunc+GubE13nrjoWKwbAGCigDh5nfwdvZGQmDSDxYyTU6syMiNwszMVKONgilX8wuLcPrcBWhpTwvjlT5phucpmcVeMVj5qq2WV+x7Jb/EvXuyQZCDcSezDLWVHUhKSMTG9WthNsstwGurW6qQW5WLxOAkODOsWGwtT25q031lZTWCgwPFEvGsqiH+GEAQ/kR9A3LzCoVXRPeCpgc85VBdXYvjJ0+jo6sNkbG+CAh0E/+5voHeTNa/V2yKrHzuyyYBWomZQ+aukqeCZM3Ksibk5VXDzMgSO7dvhb+/L3S0lTTLyxcgDKtwNPUIfF38EB+Q8Gj1qbt3xSfFEA11SlVNxpkbDFMuF5eU4frNVHR2dcDF1RpunvZChKM/jeVxV9qKBJa7BDjXGWFAEhfD2Gqq24B7OoiLiUZyYjyYI2D24crra1qrkVOZozFAoIuhrr5eIggCAwI0TpY0n2znAgjZOXlyyO/bswtRkeEaAwS+k/7qhsZmpN5OQ2V1FbR07ktmT/qySc6l33qlrUhguUtAEslNTgkXhOTOyfH78PHylvoLnh5uM66FlwIg+Ln4S3742aZEspWvXL8p5MQAP98FbRJKFr4ptLV3oLSsXOKmO7s6cQ93FQ1osY0Is13ni92X5b5SXlT/l+KY3SfDg/9aDUMDI/j5+CAgwA+e7u7CGXhc834IELIlrTm5P/OZ71mo6UbqbSEA081gYmz8TCQ+F0AgKZk1VTZtWIfAACUl8EIaXS2qIRUaGhpRW98gROe+vj7QuriYTR2RwyX/LPkci/lNr8K7Gf2jZG3UeWYWtGchN/bH3Nwczo4OcHdzg7ubqygFTwrvXJYkRdWwCt+lHkGAq7/kh5+9WTEJ0m//8Gds3pCCzZvXa1R97nGhqwuOMPMiM7GxVjzZrovdyN4fVA0JyZKhRCtt6UuAhwsLBTHXhpLnf2kgO24GhkaGsLGyhJXlw9C/J0lUAEJbNXIqspEYlKy4GOZhckma3r4+SYZlaGDwSAnZnzJqc3EQmKBpaGgIxsbGEuo6Xx9/rB9c/yRYktQ8PjYumzwh1WK1sYlx5OUXiRxDggOX1GGzWDJZ6u9l9AWBZlNzC0JCgmXPXhornyRsLejp6ooyQDf8XHkfXj6A0NKC//zDR+JH3bJpw08u/qMJy/ZFTdbqmlpcT72N17ZtmWGYv6h3r7zn6STAMuLXrt9EchJNeO5PfWg93dvnv0uTQ5RroLatBtkVWRoDBL6Zybb47XTb/dOv3hM+0E9tcwGEx9n4P/VdS+F+flNTSws++suncHVxxs8O7oOpKcOwl8pxsxSktPT6wHoRZy9cQuadbBmz0NDgR3z7S6/HT+7RSwcQODBtbe0wNTNVzCYLNDMu1YGjJvrVt8eQcScLB/buwbrkRKx5ResFLNUxerxf9GufOnMe5y9dxs5tWyTtMJP0LLf2tACB7rrcvAJZjynr1krSop9aCGsugMBaCx0dHbCzs1M0tmV+iFLujPk/c/4ivjt2QlJWv/PmYURGhP9kOS63Obic+quOivvLJ58JcXbj+nWSmZDAbrm1lw4g0DyojntXx90vt0F5vL/Csq6pxe/++LGYbSPDw/DWGwfh8CBOfbl/38va/7b2dvyf//wQjc3NUmL4nbcOi79vob7xxZbP0wIENadnaHgEWdm5UvfEw52pbBfGDZj9/XNxEFhX4dTZ89i9czvCw0KWnZwfH2fKr7WtHf/f7/4k9WNoCl6/LhmHD+6FuZkG9S0We+K8ou+nMnfm3EUcP3EazLFjb2eLf/rle8KLW25r/6UDCCRHMacBw7RsbKyX3YA8aU0xr/znX34rBXC4adBU+84bh5CQELcszVavwr7B5CPHvj8pmTuZ0pf+Y6Yu3rQxRdJ8L6f2tACB38h7Ozq78O3R40iMi0VQYIDk5X/ajXJugFCAk2fOY/dr2xERFvrU71gqY0ML1LkLV3DsxCnJBMvyu05OjnjvnTfh76ckdFppS0sCnO9dXd3440f/hZraOomOodWQnLjDB/ctO6vvSwcQOru68Nnn3yAsJAgp65KX3YA8SYugmerTz74UbYLEKTLC42OjsXfPa+JGWWlLSwKSlbC7G3/++BNhwrMmgZGhIcLDQ3Fo/x6pJric2k8BCPxOgiWa/lkLobOrG/5+vlIT4WlcAHMBhI7OTlTX1MHb0wN2drZP9fylNC500RQUFqO+sQk3bt6Cra0NYqIi4efrAxdnp59kiVlK3/ky9YVrpbu7F3n5BSgtr0BVdS1iYyLh6+0tobcEx8upLRmAMB8ZcPZmMlcUA0MUf/v7DxETHSmmxuU2IE9yL5AFz401r6AAt9Iy8RoTWvh6yybIcrwrbWlJQMlQNiqArqqmVsyNG1LWIioiFHa2tjAwMFhaHZ6nNz8VIPDx1KTyCoqkvPLmTevh5qIUxVkoSJiLg0BXnJJmmYnNlr92rXAQpqXQ1B/+/Ff4+nji4L7XpfbMT+VyLKsJuMw6yznIKBgSym+m3sbbbx4WgEDO2ELn+2J/+pIBCCwpW99eh/HJiUfCQbgYPOw9HqnYOBdAGBgYlMqNZPyylPPLEjfMOgK30tKF9Pb+z99CgL/vsptsiz3ZX/T7OWbFJaX45LPPcWj/XiTExSzLMXsWAIGyZxji8Mgw2ts70drahoT42AVHNswFEOj7ZQKoNTo6Gqda/rE5oeYyzae4vIg5xaywv//wY/j5eOPg/tdf2XLEL0LWz+odBHbXb97G9Zu38PO3fgZfH68ltPaVehNqjt5coGXJAITxiTGkFqVieGwYFsYWUpGLTV9XHyHuodDTfagpzwUQngVJkZsCY58nJsYl78Dg4KCQTRZ7sygpKUdmVrZoYDQxLh4aXSV5GEyMjGSDp09d09z3z2oBPskVo45fVw0Ng0BxbHxs0cesvr4Rl65ckzBHmtYXb8wArdXaMDE2gqmZCQwNDKUgmSaa9rMCCBwzHuI3b6WjqrpaXGTMC0F2vqaWsLlcDGXllaK1rV+b9FQ+emXd35W8FbREMoa9p6cXrPGwmHkQmEuisLgEFmZm8PLyWNQ59LzW78v2XBaNa2ltEyDs5+u9hFzBq8SSYWlhLlWOHR0dYGxkLHvBk/amJQMQWFK2s7cD3YM9cLNzE2DAxk5rrX7UZDgfQKCfnoQeXV3dBS8mbhLDw8OoqqlDcXEpaurrMTY6LpUDF7vMF32SU9NTktyC37c4SXeUhDH8t46WFhzt7RASEgh/Xx9YWVn+5LwTT7NRKCb9MdQ3NKCouAyV1TUYHh7FPaliLrPoaR77TO5RSs5OQmeNzgNC6eL0RQG398U0bWNthZDAALFC0U01n5XtWQIEPmtkZFQA99CQCkeOnpAc8F6eHlLvZD6gOWeq5dx8HD9x6qlSLRNckgxcXl6FzDtZaG5uhpbWKuit0VlQyvZnMmkee4iS9VI2oAXvZ8+jPyvP1EwC6jXHc2Ou2iWaPe3ZXDWj/NLaNn0PdrZ2SIiPkUyqJPY/rjAsGYDAjk9OT4KHv462jrgUtLW05f8fb3MBBJVqSNKt2tvbIiI8DLoPylZqIl5uEh0dnUhNS0d2bgHW6BnAxcUNtra20Dc0/EHVSE2e+fJdo5SF5qHX39eP5qYGDPT3ws3FCRvWJcPH1/uF5p5gX5jONzU1DRnZOcAqbTi7uMLO3gEGhkbQlpC6xTmUl9LYq0MOBwb60dLUiN6eLtjZWGNDSjKCAv3nBAnPEiAIuGShKCFz9SA7Jxc+Xl5o7+iUeg1KX9b8qL92LoBQWVWN2+mZSIqPg4+Pl0bWEXV/GD585dpNZOfkwNzYACH+XnB2sIWpCS0tOjMWzaU0pit9WZHAgiQgOFPhtaiGRtHa0YXi8lr0DY4gLCxUSP22j0X+LRmAQM24ubMJA8P9Si331VqwMrOGlYnVDxD8XAChq7sHf3jgr6MJU1NCGE1CZEGfv3AZBSWlCAwOQ3BoOBwdHaGnt7zC0hY0aX7CxQRUPd1dKC0pRkFuNowN9fH2Gwfh8oCA9hMerdGtnOz0z16+eg2307Pg6euPiIgoAQj6BgYr2tYTpMgx6+/rRWVFOXKzs6C16h7273kNgYH+P2r9edYAQW2BolbMzWpoeBjpGVmSHplpnxsam5CUGDezdgny1f7SuTgIDHGWtNbGRuKymG0yVbsHn2RGValUuHTlOm6k3kJ4gCfWxoXD2dH2EV//YrqGNFoMKxetSEADCcx2k/PMa+vowu2sQhRV1CM8LAzbt20WS4J6vi8pgNDU0Yjm7mYMjw1h6u40TAxM4GjlCA8HT6zReRgeMhdA6O3tx9//8SXc3V2wfetmjTPXMRTt4uUrSE27g+jYBMQnJcPAwFBjLUSDsXkpL+GEmxgfR0V5KS6eOwMbKwt88Mufw9LC4rl/LysFkgh07sJlhIRHYt36TTAyNl4hcc0jebEmTE6irq4W50+fxBrtVfjV+z+Hs7PjE0HV8wAIs7t4V8pOj+L+vXtgwSVa7w7u34OKyiq5jDkN7t+/J+sRI5NQ5TfCwNMGhq5Wj7j9ZvOPHq9GyRBL/p0Kg1R5fdABuu0ys3Jw4uQZBPu5YseGRJiZGq+Ud3/uq3flBUtBArTkDQyocPFGJgrK6rB/7x7ExEQ9cGEDSwYgTExOIK86Fz2qHhisMZBqc7ZmtjA3toCNuY3GAEHMJ6ohaOvowNBAX6PDghtHeUUlvvj6CBxdPbFl6w6YzEJRS2Egl3ofpqYmkZmRhhNHj+CNg/uxY/vm56rB89Cqq6vH518fgb6hMV7f/zOYmpk913cu9TFYaP+4VkqKCvHNl//A+nWJ+Nmh/RIB8Hh73gBB/T4BmxMTGBufgI62liQJYpIZJycHXLp8FTu3b4GRjh5q0koQHBcGE1drIcvSBcB7mbmyoqoGfj5ecLC3n5kL/M47WbnIyc1HdEwEwoKDBCjwHro5vvnuGAb6uvH+oZ2ws7V6JeeQmqDJsRAAtchpqqU/03elH6u1Fh4Ou9C18CpfT1m3tHXi6xNXAK01+M2/fABTEyUt9JIBCNP3ptGn6kNDewO6B7vAqAZ9XQM4WDnA39UfujqaRTHwo4iKqCFoOsmpiV68fA1pmTnYsXsvfHz9NAIW6klF5nNXZ4eEWLEstKGREUxNTcVVokkjQGlrbcX4+BjcPTzl3TxwWWqWfeNaNTY2gZmZucbfpMl7n3QN+9La0iybp6OTs8ZyUIiCo/j9b/8dBro6+J//9q/PrILfk/rJQkCMMb507Sa27NiNoOAQjfvK57G/vd3dGBkbwapVq+XAMDU1m5ewN3OY3buHrq5OdHS0Iyg4VN7Ng2hgoA+jI6NCe2DkjbXN80/Yw/nX1toiDHyO2Xykw9kHMs3y3375D3R1tOLf/vXXT4yOeVEAYfY4cx6SyEg3BN2GzJ8QFxOFysoqZF7LwI4tm1HSXAsLK0tEhoUg9Xa6yJ/WgOSkOGxMWYeBQRXu37sPK2tLXLl6Q7JacjEFBfgjJTkR7p5uaGpqxpGj3yMu1Aeb18Uui7wpnPsZuSVSYVZ3jQ5cHG3h4mT3iLVTvfcJt/FBJUr+braJ+eE19zE1PY38okopdx8VFiB8kNlumR+7r72jGxW1TWLhMTI0gJODDWytLMRd9fAeJaxOve7U4zxXfwZUw8jMKYKzox0CfB4tcjbXfSQrF5VVixXI18tNxpskc8qALqzxcSUUltE8JMU+/l2zf2Y/+S7Ke3RsHMZGBmhobsfwyBj8vFx/IKMnfd/T7sMv+j6O/7Vb2bh4Mwv/9KtfSlpofvuSAQhq4fYN9WFiahxDo8Mw0DWAoZ4hTAxY5OWhZjOXi4EhSVz0jGBgDmxNNsu+/n58/tW3mJhehV2v74OFheWCxocb09//+pFMPCtra3j7+MHXPwB3705janIKBoaGEnnA68ZGlcOD5lIeKgQANNEXFeRjZHQYW7btlMXV39eHi+fPor+/V4BBYFAIAoKCMTY2Ksha70Fo4eSD8EvWHueD1eU7eVir/bB8L/PfT4xPSB/09PWgq6uHyckJ3LurJJehpkbtjZacooI8kXdcQpJG8pt94NxOvY5L587gnz94D+Ghzy8fPktwHzl2Al09A9iz9yBs7OwWNGY8gE4eO4Km5ibY2trBzd1TQAY3FMqFvBPKj7LhmN17YOLm2PDvLANcVVmB4qJC/Pz9X4qcWGr4+tVLaGtpEQuUo5MLEpPXyvhy412jqyvzkuZ9mtXv3b0rG5TOmjVyP8eMGryWtrZcw//yXZxDvJdjRHIo+65O4crnsn/FRQXyLI6ZprwbAdP37snc+/67b3Bw/27J9f84k3kxAMLjg8mwYx4y3c0daMuqhJWXI0q7mmFlZSEZBrl+rS0tUVxaBicHBxzYvweptzNkzm/ftglffvMd8guK5Hu58VlZWkgRHbb8vFwc3LUBAT5KJMVSb6qhEfzvP34GPy83ONrbwM3JDsbGBpiauivWF34fXX0MXevvH8Tw6BgM9PVgbWmGvoEhsDaGvp4uLM1NZa/p7O7F0MgYyqvqZB6ujQ+XQ3V4ZFQAk4W5qYA1AhIelLZWljA01Jf5lpVXihvpufD3cZfIoZGxMWxMjoGjnTV6+wflelpyrSxMMTk1jd6+QZm7lham8uzO7j4pSGVibAgzEyNMTE6hq6cPQ8OjyC2uRKCvO4J8PNE7MIjJyWmYGhvCyMgAlAEzdHJd2tso0VPsT3l1Ay5cTxdy+6/e2iPXZOWXyt+C/b1QUd2Art5+JMeGwdTECIOqYYyOTcDYSF/k0T+gwvjEJCampqGvuwbmZsaorGlCaWUt1sZFiHy5R3q7u4KFAfsGSarXFhmxMCB/VtyukzAzM4aFmcmycVNX1DTgv746jfXr1+O17VvkfFpSAEG9YdG9wANv9arVEsnwuCVgzkRJg4P47POvYW1tJZkUjYwM513vjFX908efwMs3EJu2bIPuArMTcsL/9cM/yAEeFBImh0Bvbw9qqqpw7940TEzN4OsXgPb2NrQ2N8kCcff0goOjkxzGw0ND6O7qgompCXbsel0mO++/cukCHBwc4R8QJCCDoKGspFg2OTNzc/j5B6C2pkryNEjY46rVsLKygrmFJTLSb8HfP1CsGT3d3bC2tkZLczNUqkGs0V2DsPAo1NfVoq+vV8CCu7sHSooLpVZ4Z0e7EP0SktYuCCBQ0A31dfivj/6EfXt2Ysum9QvS6ucdqFkXML//J59+DjMrW2zbuQtGRsYLuV1kePSbL2FgZIT4hCSs0dWTcSgvLRFgxwgI/8BA9PX2yjdNT01JZISntw8qy0tlfAYHBtDf349ffPBrBSCoVLhx7TKMTUwRGBQsII4aeklREaYmJ2BkbAL/gECRb1tbq7D1qXmZm1vA3tERmWm3Re7WNjZob2uDvYMD2lqaQTDENRASGi4WC1o+Vmutgre3HyoqygRMcP7Y2tkhcW3KggACN7OO9nb87S8fIi4mEgf37f7BmC8FgKAe3Mn+YajymqDvbgVtB1MxP9Ni2NfbJ4dYc3Or5OZgUazmlhZM370HJ0d7nD57AZev3pDN2snBHsFBQQgM8EVRSSkaaqvw1r6tcHJ4/taeBU3SH7mYh+O//+lzxEUGwd3ZHtZW5igqq0FLWxcszE3Q1tGD8GBfWFuYIbugTJQDW2sLeLs742ZmvswlHsphgd4wNjLE+WvpcpB1dPWKDEICPHEzPR+G+rpyUAb6eWBQNYLm1g457BOjQ+Wd1MqzC8pRUl6L/a9tAFbdx8XrmXLQU/MvKKmCvt4aYcwnxYQKYKhtbJG8KaEBXhgcGkZhWY2AFbqUYiOCUFnbiNr6FpiYGKG5tRPxUcFy8PLw0tfXxar7qxAa5I384ipMTk/DwdYKiVEh0NVbI+CCWjBBdHVDC3ZtToaRgR5OXkyVcyQ6PEAIecwrsS4+QiwA5dX1YmWaunsX21JikZVfjq7ePgFUBArr4sKRll2EhuY2bFob88CaMIGwQB9cT8uBlvZqMdA42duITC6nZsHRzkbAEkHHxrUxYllZDq29swd//PQ7eHn54v1335JzaMkABCXW94diZH4ELmqCBXWbCyAw5O3Djz+RcI3DB/bC2Hj+g6OxsQm//cNHiElIRsr6jaK5LaTxwP/oj7+Tg9bVzU02+eqqSjlwuPFXVpQhLDwSzY2N4jMVTX1iHGvXbcStm9cQHBomhLE12trYPgsgnDt9EpMTk3BwdERQSAjKy0oxMTYOJ1dXFBfkIzImDrVVlRgYHEBMXAK6uzoxMjwMQ0NDlJQUwcLCSkzOo6MjCAkNk8OFBx41xp27XkdZWYlotvwbXRxNDfWIio2TQ9LS0gqJa9ctGCDQ1fKH//wPbN+8QYrmEIU+j9ba1oaP/vopXD19sXnrDo0T7aj7QoBw5KvP0dPbA09PHzi7ugp4I4hzdXVHXW01AgKD0NnZKTLiuLW1tGLz1m3Iyb4DLy9vdPf0oKW56RGAcOnCOQz098HOzh7efn7o6uyUA9jb1xcVZaXw8fWHanAA5eVlWLtuA1SqAXFP2Ts4IT0tFTa0Zri5Y6C/H+FR0eju7EB//wCKCvORkJSMzvZ2qIZUCAkJE/CRl5slY19TVSkgKWnd+gUDBL7r4w9/j+AAH7z9xiGxQs1uSwogDIxAldcIAw9rGDyBpKi2EHDPYL+5pdAKlJGZhfTMLMlGyIRVTo4OYpFgZtK6mkq8vX+7aL3LISKWAOH/+eM/4OPhDBcHW3i4OiKvuFK09S3rYnAtLVdAgJ2NJTq7+xEfGQRDQz3UN7Ujv6QSm5Kj5VCnxYG/p4a8b2cK7uSVyEHK312+mSWHYHtXj4R7Up7U6jcmR0JHSxs1ja0CBHr7Vaipb8aB3Zugu0Yb12/lYGh0VPbruqY2eDo7oKymQcDI4NAI7G0tEeTnBT1dHRw5dQXuzo5wdbbH7awCcSXcvlOIyBA/2NtaiWXCy90JNfUt8m121pZobutEbEQgyiob4OZij6gwf1iYmkgYKq0Rpy6lwtzEGC3tXbCxNMfG5GjczMyDhZmp3HfyQqqAkU1rY5GRU4SKmkaxQBBQHNi5AaWVdTIHokL8cOlmFlISIuSdBCv7dq5HYWk1unsH4OHqgPNXM/DW/q1o7+pFY3M7PNyccPnmHRzYtVGARE5BGV7bnCS8luXQunr68YdPvoWzq7tUn1xaAOH+fQyNDqFnsFu4B+ZG5lCNqtDS3QI/Vz9xN2gCEGiyLy4pg76BPrw9PTXyKbKUKnOdB4ZGYOOmrWLyXUgjQPj4T7+Dg5MzfH39RWu/ef2qCNje3hEjI8PiJiBQoLZIrZW+VQ9PL2TfyRC3RlFhoRwcW7YrLgZqqJfOnRXLgaeXt4CEK5cvyuHlFxCAk8e/g6+vYpWgprpx81Y0NTYgL/uOcBdodSguLoSNjS0cnZ3F5NbW1iKg4U7mbWzfsRt1tTWwtLZGZGQ0zp45JeZtPic7K1M+Pz4xecEAoaW5ER//6fdivdm+deNzAwhM1/vXv30GGwdnbN3+mshpIU0AwtdfyOERGh4p/IO01Ouihbq6uYvZ3tzcXICevr4BTM3NMT42Cg8vbxTk5WLz1u0CqvJys/Hz9381Y0G4euWiMrZe3iJ7hhLSIhUbn4Brly/Jc8jWp4Xg4M/eFM2fc4X9sbCwEF4DAZ6Nnb3wThrqa2BjY4/8vBxERkdL7gkjIyPExiUg606GjPnu1/ejID9XLAlxiYy+0Vxj4SHa1dWFv338J0SGB+PwgR9WnFsuAIGRCoODKiFYGRjoz1geKVu6EWkSZgY5jge1Uo71hYtXUJCXg5/t3QJP1ydHcSxkXr2IawkQ/uPDL7Bra7IcoFy3F6/fgYH+GjkQr9zKRv/AkHABhkZGsSEpCnq6a0Rb5wG4e0sScosq5Bpq5a0d3Xj7wHbcyiwQ6yYToGUVlmP7+jiRITXgqtomAckEF3RRVNY0wNTEWAAC/7Z/53rR6M9dSYe9naVco1KNiCWD1UzJleDh6uPpIgCALqO/HzkrwIEA58L1DHi5OuFWVgG2pMQJGCCznuGmlTWNYuGsmamkAAAgAElEQVTw83RVIlH09ZCWUyzPCQlQ8l3QIlJcXoPUzHxxFfD5tFa8tXcryqrrxQWQEBWM4+duQGv1KmxbH48rt3LEnREe5CPXuzs7IDWrAKbGRoiLCMSR01fFgtHT2y/g6uDujWIxIRCh5ebizTv4l3f3oaW1E8UVtQIQCDp+8cZucc9cTc3GlpRYcQMth9bY0o4/f3YcYeER+NnBfUsLILAWQ15VHlp7WqC3Rh8mhsboU/XC3tIBYV7hGkcxcCA4iagekDCoSWM61U//8RV09I1Es6b/eCFNXAx//oOER4ZHRok5mpokyW8x8fHiQybpMCfrjhz0JCIqrOFpXL54QQ6P6spK0P1JkqQaIFy/clnAATV8mv6vXr4oFgIvHx9kpN9GXHwi6mqqYWRsivUbN4l14Py5U+hoa8Ob77wnHAYCpnUpGyXu3djEGA4OTjh3+ntsf22PmM5t7ewRGh6BO+npqKoqx/qNm+UwIpBJWpuyIIDAb8rLyRJ/9i/efQuxMVHPzf/GDf/rb45iaGwKu/fuh6WV9UKGTHExfPslrKxssW7DRvmZBzW1/+R164WbQU2CAI4uA7pzOM785Y2rlxEcGorOjg6R4S/+6V9mAELqjatiBQiLiJJxzExPA0ETXU+UDYEbgWB3dzf2H/qZWHfOnT4lJMNde/ejKC9H2Phr162Xw58ypVviwtlTiIiJxUD/gACXyOhYVFWUiwVq45btKC0uEo5CcsqGBQEEfjef8/WXn2HPjq3YsnnDD0DdcgAI7GNhUQnOX7yCbVs2ITQk8JG5N5twp54oHM+MO9k4ffosdm2KR3R44LIogkSA8P9++AVcnezESuDh4iAmeLoLUhIixfQ9oBqCt7sL0rMLRYM1MTSEv48bTl++LZp/X79KDlhzUxN8c/ISgv090dzeDVdHO/h4OuP7czcQ4O0uLgW+o6W9UyyrBBt0Z9KtQyCcU1iBa7ez4eZkj4HBIXFf7tiYgNb2bqTnFMLX0014HTxQ6T6gZm9vay2HfW//AHIKK4WfQCBD8JFTWC4uEgKDuqZWJMaEQjU8gqqaJvh5u0FXR0f6k0GAEOqHID9PATEEfzfT88RilBQbKr/721cn4eftLq4Cms/XxYcLyTC3sFKAFN3YJRV14qbQ1dVBeLAfbmXmw9zUWNwRR09fQ2xkIKanpnH2ShrWxkcI94GcjvjIYHx35ipsLM0wMTElnAp3Vwdcu5WL9w7vVADC7RxsIh/DfmF704I2smd0Md0suUXl+PL7Szh0YD8SE+Jk/SwZFwPz5t8uuQUvBy8MjAyiracVge5BsLOwE3CgqYtBnY+fAIEJVjTJNU9y2Nnzl5BXVCbamJuHp0b3zd5orl06Dw8fX3h4eMmvaVrOz80S8zB5AdzQ6e8vLS4U0zB92QGBwcjPy5YDnaRFkuUIMLgQmYaWIWh2dg5wdXeX/tD3TK1xcHBAOAw0gZeXKtYSEuxIaKN2S4tFQtI6cRX09nYjKjoOzU2NKC0pgomJqWSp8/ENQHd3l4QGurl7YHRkBDzcuNCowbp7eMDb98eT5zxpXtL395c//xFjQwP4H//Xb+BgZ/fcoi4IfC5fvY5b6dnYycgTP/8FjRnnCXkalAcJoNxQyCfIycpET0+XWHyiomOFOFhIAunIMBzsHWQcy8tL0FBXJyZ9cg9SNm6eIRmWlRbLvepoFGYuzM/Jlvlg7+SE0LBwyT6pGlQJofDevbsoLS5GR3ub8AdaGhvQ2NSAqJg49PZ0Iz83Bwb6BjA2NYW9A61RIzI+BI50faSl3kRfX49YpZj109fPXzgwmja6u059fxRVZaX4zb/8Ej7ePywqs1wAAsMYj584LTUeWFp3vrXP72Ip9S+//g625oY4uHuDsNuXeiNZkEx9Eua4VzjaWgnApSXB3s4KbR3dEpVgZ2OF5pZOtHV1w8rCDL6erujs6hWTOQl67i4OQmSsrmsRcp6ZqZFoz1aWpmJGr29qE8Dk5uIghyTN+A621jNypfy6e/tR19gmfnwzMyPxxRNUUKNvau0QQGCorw9fLxcBu7UNrZJq28fLFWYmxqiub5ZDl9EPPPjHxiZQUV0vIJXERQIYPo9ggX2yNDeBk70terivmpvC3MxEiTSYnEIr32VAMiZzsNxHU3M77t0H9PXXiAWArgQSBwkKjA0M4OnqgM6ePrR19sJIXx9+Pq7iktHV1YaluTkaW9pgbWkuVujS8lqxoFBGbJQDeQbVDc0CWtzF+gS0tHXD091RuC+M8HCws5b+L/VGiw9BYUVdC/7tv/0GDg724m1bMgBhZHwE1/KvwcrYEmOTYxifGIe9lb24G1jNUdNESTx8GbLIQ3BdcqJspvM1mpkLiorx3bFT8A0IkoQ7dBNo2rg4SULjYmVoIyes8juG1ExKRAA3bWG3TjBy4O4Mc51aDC0OvJf3qXPRC1OdYZNaWjMZ7thPHgp3p6eF1a4OreN9ahbv9PSUpG3nc/hskuD4fj6PBzjRPxf66tVa8juie/aZfRN2PcvlarP2hfJeTUNFJaa+uBBf/uNTbNu8AYf2K2TL59XYz4rKanzz3XHYOjhj245dkiRJ0/7yeykPWpmYM0MdOiUVATmWWtozBy1/R2sP3TSUq3ocKCe2NWuUmh/q6AL1OKqtWRxHMd1KXn/tB5YIZYzY+DcCBZIWOTf4fP6NWhrnC83hnAfqPqrHm/dyzHgYcFzVc0VTGfA95C58/cVnCA70w3vvvCFWiMfvXy4AoaamTiwCcbHRM7Ud5pt/zLx4/uJlZGVl4/WtiRLi9zzn7Xz9edZ/Fx6GhH2vknU/8zPrAzywsIrFFfiBxWW21UXTOTW7/+p3zX62+l18nnrN8O/qn9VrZq7+zAf8Hpfh4/2Y3Qdeq/7OH3vu7Ptn9/PH+vqsx/B5P4+AM7ewHGeupiMsLFwAtrp42pIBCBNTEyiqLcT4JGNWlUFbtXo19HT0EOweBL0HxZv4t7lIisyI+NF/fSqb+ztvHpK0kZq0vv4BnD5zHsXllUL0Co+IfqpiT0+anLMXl3oyqhfFk0yfc/V3odc/vmDV733SO5722TxAaWqnGVx71X188Mt3hQT2vBs39wuXr0o4W9LaDYiOjRMuwtNsZo/L6UmH5GzZyfzU0IU1M58XcL26P5qMyUL7wmcTtLS2tuDi+TNQ9ffi/Z+/CT9fnydq3csBIMg3PSiMJcXMNASnPCwam5px9PhJDPT34LVNiUKWo597IeP7vOf6yvNXJPCsJcB1TR5OeVUDLt24A21dA7xx+ACcnZ1m9oElAxBYi6GjrwOmhqZg5AK1Y+3V2kJatLWwg67OQ7PpXACBFoTvT50V09m2zRs1imKg4KlNcaM4efocmtvaER2TILUYGE6o3mxWNgxliqoPLW6uNL2TP3EnIw2T46N48/A++Pv7zaTqfNaTevbz+H4W1zp55jzKKqrF7x8RFQMra6sH2vlK9bvHgQ/HjgRMhrgy8+VAbzd27dyK2OjIH3VNLBeAIFawqSkxYTPXh56G1VwJLJjWme4J1WA/YsMDEBHsBytLM6x5UBKbfKKVtiKB5S4BWpTFejo1LSTVwtIqZBWUQ9/AGNu2bkJwUMAjUUxLBiCMTowityoXPk4+Qk400jeGlYklMssyEO0fCyP9hyb/uQACD/qBASVu3MSECZY0M3NTaNwomlpacfHSVam/bmvvCD+/AAlbJFGN/rilUrZzsSYq5cSDeWx8XOL5qyrL0dRYL4lZtm7agLDQ4AURG3/qd0gWy65unL90FVnZubCwshE/vIubu/Ar1mgr7oNXuZG4JdycyXF0dXSiuroSDXU1MDLQx9bN6xEZHjYnsXG5AAR+Y01tPa7fTEVIcBAiw0N/ELL5Y5YzJtRpbGqSSrBlZeUwMtAVfzrnNWP5mW9h0dqsCHCZya/2dF60YVjoi5Uslg+GawmMmfBKuQ9MTKGrd0D4IQw99fX1lUq8np4e0NXTfWR6LRmAQA5CekkafJx80TXQKYWaWIMhoyQdyaHrYGzwMJ/BXABBreHy4GBbaF5xbjKqoWHkFRRKCeHWNoXoQv8UfXgrTSlNz4lGWZEkFB0dgYTYGNjZ2mi0IT9rGbIfJBOWllXg2o1bqG9sktCqhY79s+7XUnse5USOg7GREcJDg6ViorOTo4zZXCBquQAE9rOlpVV4KUwuRVeXm4uLRsOgBr60PtTU1uFOdg5q6xqgGhoS/sliNlbdY0ZIckwYLrgCEBZzNDR7N0mbdL2S/cExW0pnByslGxkaStXd+Lho+HgzYZaRJNR6fB9YMgCBFoSruVcxNU3S1RS0H5DkeBhtitwMIwPNLAgcPjLcc/IKlLziEWESN75QLZKb6fDIiLgdmLqZed3p+ljMRiYxc40bGhoIkXCxGmEScwM4OtjDw80VlpZMdbp4/VHLQcznY2NobGoRbZARJKwKuphtmulvx8aE/Kets7gyYupYJnDimDGzJt1wmqyL5QIQOM60AhIoMuRx08YUONjbzaRX1uRb1XOFxM/hoWEpRc19ZPHafbS2tuPbY99LVNCObZth8qCQzuL1aeXN80mAofOs/cHIhx3btsDaylKjtTbfc5/F35UIEWMpiz4fEX3JAATGpPYM9GB8alziU3kIMasXoxeszKyho6VZLQYKkERFplYtKS3D67t3IjwsRGNXw+MDQKCgsFjFNvEsxuepn1HX0Chm9PXrkmBjY7OoioSazfs4q/epP+4Z3qjWBmXE1Ha+Z/j8hTyKFigy66MiwuHq4rS4mwSZ42AEy8K4GcsJICiuwrtgNA8tI8xoR7Bobm4GczNziW5aCFBYyFg/62sVTsU0zp6/iKPfn4K5mRnefvOQzKWlAMif9fe+LM8jSGXxMNYH4Rxk0qHE+NhFsa7+VJkuGYDAxUArQlNnE/qH+sRzY25kBjc7d+jrPRpHOp+Lge6FhsYmpN5Kh7e3pxCwNCna9FOF+TzvpxbD4kQ8bPa/vhuJCbFPLM37PPuw8uyFSYDz8NyFy7hw6apkldy4IQX6C6zzsbA3Pp+rlxNAmC0B9ru5pQ2ff/mNWN1YiCrA308uae/okKJnrPBnZWUp7qie3j6xGtDUam5hLmZXWuz4e7oZDA0M5Fpizt6+PnFrEWzY2doK8KB7gqneCVBMTU1gYW4mIajMr8HnsKiPvb2SG4RKzMDAAOg+MLcwE42OYIDPJbOc84T3d3Z147e/+xMam1sEFKSsTcYbh/ZLpkhWueS7WDiJ4IHPJf9qeHhYFCIzczN5Dp/X090LJp6maZm1Kvhe9otcIobRsnYN90h+w6BKJYnCyOHiPzzw+gcGxc1BjdjG2kpcrvwGlWpIQLiFhbn0ifsULXfMS2CgryvZQdkYccRiZoxMY18pd35vT2+vEMQ5PpQBv4HZMClbfgPlyJA71k9ghlg2A0MDyZbJMGBmFmWBPl5LefEbaPkdkn6xCq6hENX5Lrqd2D9+r42NkryIeUX4HfwGtbwY9kcZ8FoSXfltYlEeHgGzdTI0moCThz/dCHwuMzHyGyhf/vzHD/8qdT4oJ54/777zBqwsF1YE8Pms5oU9dckABE7CmtZqJZLByFRZhKoe2JnbIcAt8JHsbvMBBIqAg8vFwoIcTD3LhcfYfnMzU4VPsIyIa5ycdQ0N+P0f/4Ku7m7EREXijcP7pVrlSlu6Eujs6sJvf/9n1Dc0IjjQH2+/eRiuLs7Lau6prTC1bTXIrshCYlAynG0W7xsm56jF8KSZwI3+TlYOqqprEBYaIps1D+tP/v4FVCoVfLw9xWxPNySzMDLZEjf6LZs2IDQkSEiPtEYOqgYRFBiA13ftkAOTwK+krFySsf387Tek9ktZWQUuX7uBwaEhJMXHYfPGFAEMl69cR1lFJSwtLfDB++/KQc908CxBzXwv27ZtRnREuAAGRuRwvnh7eWLblo24eSsdx46fkuvox2alyl++9w4cHOzw1bfHJLNmUKA/Nm1YJymk+Ux+Aw+wrZs3SD6IhsZmUS5oVQkLDsbGDWsFWDA5XHVNrXzvWz87KOCnqLgU12/cwvDoqJTEZkY99uvCpSuoq2+EpaU53n37TUkelJtXiJu30mSvpaWWJYK7e3rF4sGiWX6+3tize6ccqHeyckWrJpB6bec2+Hh5imy++PoIhlTDiAgPxdqkBDl0L125ivyCYnnX5o3r4enhLjI5cvSEWHEjwsOwPiVZMtR+f/KMKIMEOHv37IS1lZW4l/kNzBeTmBiHpIQ40OR/7uJlcdcQ9Pz6g/cl2y4tsqzTQQCx9/XX4Ovthbb2DknBzYJwXp7uOHRgr4CszMxs3MnOlWif/Xt3CX+HnJdTZy8IV4VziyXJs3Py8MlnXwr4oJnX2tJKwog1Sd611HazJQMQuACyKu7AydoJzjYKsaittw3ljeVYF7oO+hrmQXhcg+DPNDN+/tU3gmLXJSchIMBXBllIJPcYz64krZHUkpKMSPFbk7nM7GRsLOWsTrDB30n+77s0ZSrXMlGNOlkRF4zatK0mgPE6NXGS1/EfJXkR/Zv35XnqiAsuXibO4eziZsJ3f/XNUVy8rOTs50bz3jtvIjoyXH5Wx8HzfvU3SL+YbprPfVAwid+lvlbtf1aS9PAZkHdRk1JHdFDL4KaklgG/l99A9w8T/vB6dXIg5bmrZQN4eD8TsCjfwOdK8qgH/lz2S13ISUnopOQV4O+kzOgs2RLYKdcqkSaPf+9s2arvp3bBDUIZB5bBfpCU6O5dJY0yv0FbS2RD9E8NkZeyX5TNzDdIkhnK5qFseb3MDxkz5bvYX97PuaROuHLizHkc+e649JkZ+ljngBvbQjIdLoUNY7laENTghuuHlTZZTI3VXak1p2dkCTfExsYKwYEBMiYlpeXCOeKaDfT3hZOTo0TIFBaXyj2O9rYCMjje1A7b2jpk/OPjYkSjZQGxsvJKyUbq5eWBoAB/0chLy8rl0KEFImVdksyP5pZW4UpIsbTgQHi4u4nmm59fiO7eXtja2CAkKEAO5erqOly9fkO03oT4GPj7+Ymiw+JTI6MjcHZ0EPDCPayouEyUCSaICw0KhJ2djRzamXeyZY6SmMZQNpJVc/OK0NHZKd+enBgnB2dDQ5MAH2rlAX6+8PPzwcjwCPILi8SaYUxLTIpS5ZXgqbS8QiwxPBxdXJxE+8/JyxerCzlKPDC5riuqqgVAcR1FR0XI35i978bNW1KIycvDTYAOk7rl5hfId5sYGYp7mFaX9o5O3ErLEC8vD22CN+6TaRl3pJYIK+HSjM+8N1VVNSgoKpGS6kEBfvJc9otggP3SN9CTWjFs5RVVKCuvkGdRBswBQKvGnew8sYQ42tvJmuVZwXEsq6gSt/fa5AQBhZRJWkamgM4Af1+RGQFLdl4BcnLyoaevi8T4OAT5+8HNzWXe7J5LYb3P7sOSAQiMYkgrSYO/iz8sjC1kUtHlcKcsE2sXGMXwOEjgIiSivHL9BlycncUnRIR95sIl1MtENBIEzsVDRE0mPE1aXLicNNzgqV00tbTA0MAQ+17fBTNTE9lQMrOyJdvd2qREuZ4ay83UdPF7UsMnsib7uKSsDBnpWYIoN61PEdcHkTnD87q7e+Dj4yVIlyZBItDsB5pMcmK8mAb/8KeP0dbeqYARbS1B2wf27kFeYbGwrmkGS0lOgL2dnaSPvXTluiB3bgZRkRFC3Lx6PRVtHe0wNzXDrte2yYbFjS43rwCTE1NITopDYIA/env7BO2zkqG9vT22b90sBzSzTTK6gya6TRtS4ObqIsiccu3vG4CfnzeSExOEqcFvoDZCIszaxAQ4OTnIIiXipzyDgvxls+UBffnKDTQ1N4sGkxAfK3LjONy4mSaHeGhwoGwIXKRnL1wW0ygX57q1SbIhyLtKylhtVli53NS4Kd66nY6+vn7Y29lgx/atcujn5heK9sbvYTlqblRtbe1ITcvAoGoIAX4+oMylGltevmweNH1uSFkrWgo3Kmbq5GYbER4ihwsbNce2ljbY2dlKDQp+4//6j/8UDUM9ZhFhYWJqZLTHcmrLGSA8Sc5q8Md5yjWiBqocUwHFqx5GP/FaNfhTso4qRFP1tVzPksXygXKhBuwzQFXAIwH4PdnT1KQw3q8AzfszoPgh0HwIlvl+Hmq///Bj+Hl7iTY7k4GTkVoPgLmak6D0S6lFIxk4V6+eAbBqUPs4MFdAPAmrSjisWpFRg/iHMlA4WOpsr8o3PIwWUysBiryUb+C1cv+DCBoB5g+UgBnlYtY48B5FaXk4DjPKBZWe+7z/UeVCfe3sflGZefxaunsYfaXul3oc1eNAGajfNaOIrFaURLUMlO/ldykKw2wFaba8aB35/MtvBXzRJUTwtdws1yKfiSkMl7RINIZJqDNWPyMy+qr7C2SHEQxcyb0yk9JWOnfvrmj4C41ieHxTkA3h7l3xw1Fr4GHFQ5vaHZEtDxmWJqYpixrA6XMX5LroyAgx0xFgfHfsBGrr6mFsYoL33n5DDmSasq7duCkaw/atWxAbHSGo89yFS6iurhUN5L2fvykTg9deunJNtNHXd78mBzcP4m+Pfo/29nYEBweJSZGH9o3UNInlNjE2EfOntbWl9OvMuYvo7OxCdHQkEuNj4OHmhktXr6OkpEy0i9d2bBMTdnllFY58971o//ExUaK1sI/HTpxEfUOT1IbgN/DwzryTIyieIGfnjm2IjgoXVHzqzDk0NbXI82hC5aK8nZYpJkVq9IcO7oW/rzfa2zvEfElzelR4GHa9tl0AwtWrN3A7I1P8jQRJlC01o4/+8jdJDxwfHyupsOmXZS78yqpqOaxpfuQ7CwqLhZjFvycnxQsgImj79LMv0NbZCVdnZxzct0dABS0rau1i185tiImOREtrK46fOCO+ZjdXV3zwi5+Lz5Im2NtpGQKy3n3nLXh6uIEpeo+dOC2aQ3xstABAagQcr7TMLFhZWuCtwwdl3lB+n/z9czHXbt64QfrGMf3751+hqroWHu6uMpf09QyQmpaOS5evCROe4C8mKkI0RfpVl1N72QCCprLndy9wG9P00Qu6rrevH7/700fw8/ESK9TzKqG+oE6tXDynBMjN+OyLb6QI1BuHDsheu5SapuTyJQMQGLnQr+qXKAaahonSqD3SnGNpYikRDeqmCQfhSSBh9u+48HloEoTQNK6vp9Q2IBig9kitnYeT2hxMwEAzFAVLMg4PfZouJ3nt/ftyHc3YkpBmYkJQMA9S+vd4D5/J37ORoKPO6c/n8h6a1pj9jYcNtX32g/eRoCN1ue/dw/XrqTh/6QreffsNMZvx7zR9Ku/iN+jNfAO/jY19UteB4LuIlnkfTZDUiNgnmhNpHichh75FomQ+V+oyaGkJaOE99MPxevaRvA51vQcepuwf4335e7Vs+Vy+gyRT9oMgjSQwypZ94vvYaIblN/BdatnwXWOjY6IJsU/8Nj6Xhy3No3Rx8F086EfHxoRApZYtn82xItGJrprVq0l2Mpb75dqJSdHcSELjN9AyIdfevy/aAv3RklvhwbUsFGZkpHwvx4WuKoIg9tVAX1+uVcLhWENBkRfHTAm3LcS3R49LbQqaQBeaR/55byqacHFeJYDAb+Xco7WLFj7OzcUObya5jzwIR0dHJLPK3mImbXreE/IleT73xGs3UqV+C5UInhlLpcm5ZGAgigoJq9yHf2xfWjIAQTb/0SG0dLdgeHRIZGmobwgna2eYGCoVu34KQFjo4LA/PAx4UPJA4aG0uEGONNvniy9y/77d8PLwWHZkt4WOwctwPS0jtD4xFpr+1P+fvfeOjus+swQvcs455wwQIAmCJAIDmHOOCpattt3ttrt7urene/fMzjkz23/0bs+4nS3JsiKpQIk55xyQQRA55xwLQAEopD33KxQI0pIIUiRRRdSzdQCiXr33i9/vful+0zmQX0a/CdwIeAhw6HP/LuAyGwCCxu3AWIEHBYUoKy1HR1cHVMNDaivCDHKk0YROsEkAzaDImWzLy1ibr8I7BGgODsl+p4KjLfte4qzo+jE2hb2dPUKCg8VN6uXl+Y3t1BqAQHKk/Mp8KJQ9sLW2k3zt7t4uCU6cF/JomuKzWBCeZtERGNB0TlN9fUPjRMqL2v81kxd9kYwLYCANTVaznfZ5Judiuu9mTArjKzw9PMQtpRVzRh+7oaFYYNzcXBAaHIzAQH8BC98kyGYDQKBljG6tq9dvorW9BZ4+TvD2cZESxrR+EVDpL/0I6PoIEGwyWF3R3YeGxnbUVbfDydFZgvdJk/+4DNAagNA/0I+7BXcQ6hMKd0cPQck9vd1IL0lHSswSsSK8aAuCmIp7+yTw8MbN21D098LB0QoOjrawMJ95ISE+UXG+kOhG15fq7Gi/2o+tzm7QHi1iQkgoBtDepsD4qCFiY6IlENPLy+MvfNyvOkBg8BpTA48cOwET83EsS52LoBAv2NioXUVqcKDfcLNjx77KvVRruIzrGxYX7ACqK5tx63oe+hTDEoy+cEH8ZKln3qs1AKFvoE9qMcQEzIGbozq/X6FU4NaDm5MAQSNgX4QFgeCAAYYMUGTairevE1asjhctglwKkiqoP5Vf5d0zi/rGyHymnI6gq1OBe7cLkZFWBC9PH4m4ZuDm1EC4VxkgcN+TI4H5+AZGKux9fRU8PB2fmXl1Fi0ifVdfgRFgrFZjfRtOHb+Nnu4R/PCN1ySNVONy1BqAoBpWIac8B8rBfuFCIGKvba2Rks+LoxIlWPFbLQgsYUnuAhIgsXrjUx7kFIBkyWI0/LWbNxA7Lwhr1yfAxtZKtD5t0fxegfWo74IWjYAmSn9YNYKc7BKcPZUGb09f7Nq+Dd5enpNC4lUGCIw2P37yNHLycrDntVSERehervrzXFKa9MSpz1Sn+Km5P6ZSPGvSPx8v8qPJ/Phmd9Wj4lljXXuefRAtebLN5Jgx0ioL3vPu64znb5AAACAASURBVPd9HkFCQX4lThy9jcjQaKEBYO0YrbIgiAbf2wUytvEnLzsre4T4hEzyInwTQFgYvggjRflQ3bwE2NjCNCEJxn6BMDQzn/a4MYKexV0OHTmCgGAXrN+4GHb2T1/gadov1PIbJ8uUPmZVpf+K8zRVIGg2Is2wUwPdpqaHTUdQvKghkeCz4dFHilvp/cmPjjbHiIRdWRklOH8mA4kJi7FuzUrJ5tAIW11lUvyudcWslfLyChz8/BC8/OywcWsSrKzMZ6VCwDXQ090HhaIfzi72sLR8KD8JBCorGiVDx9fXXbIoCBjq61rFCuXn7z5JLsbvt7d1iwXG1c0BFhbqTCVelLNtrd3isnF2tpc0bN7Le6xt1JlSz+uinGL7ensH4OHphP6+Qbi42Alxkf76y/0/MDCEs6fu4kFOLf7+b/8afn5qskKtsSAMD6tQ11oPexs7mJtycRrIYdTW0wpvZ59HailMdTEsDFsIVcYdDB4+iJGSQhi6ucN8/9swi18MQ2sb4f5+0sVAssNHT6C6vhxbdyQjINBz1uYayyZu6xEQ4ORkJz8ngZmiX8xR3r5usLa2EN+6UjmI+toWESqOTupsEwqN1pYu9PUNwMnZFg4OtpPPkWyVXiW6Onvh7GIngmhAybSyPhEozzvHe3BQhfvZZQiL9IVSOSSuIifnR/v1pPUxGz7XHBCnT95Fc30v9u/ZJXS/BH2vggVBQ2A0layGa/3WnTScvXAWazYsQNy8kFlbBIn7JP1eIR7cr8CqNfEICfOdSFdWgYfHnZsPYGtnheSUGKiGR2TP5maXSTrxkuVxcsgTZN67k4/ysgaYkGEyOQZBwV6TB79CocTZU3fQ3zsgYMzWzhoXz6fDP8ADEZH+GBpUSeo4XbrkD6AcIRDhOzT/pnwhcyMDR/k5lRaCOoKWwQGVpGwzVdnM3FTa0tzYgQWLIgWIBAR5yv4nMGQkv4WlmXx/cGBI5BP//bzlj67IDu4Pzv2hz65i2+YtwlEjjLbaQpTUP9CHtMI0RAfGwMXeRc2kOKjE7fxbWBixCDaW6kIevB6JQYhYjHGVCqMNtRhKv42hwwcB5t0vXQnz1Ztg7OM/CRI0JtXH3QYkQPrTBx8hIsYba9YnyGJ/nmhWVxYJ29na0olL5zNhY2spwVp0s3CTMsq7qbETOZnFSF4aBxdXB+Ee6OzsFcESFROI0DAf6SqfcflClmxaHsYLF0fC1tZKrY2OjaOosBrXr+ZgXnwY5s4PRWNDuxziazYsFM1jaIgcEIC5uamAEA2rGedv0jc2Sn4DMtgZgCZyU1NjKSQjPBSDwxNcCyw+M4Q//fE49uxfAWX/oJRc9vB0nqjOqWZl43cp3NhPCh6ypM3Gi5ri/dxynDp6B6tSV2HF8mVyYOo6QCBHR0NDo9Rm8fHxEmZMCj+moZHULDc/Czv3LhNNeLbu+7a2Lty4moumxg5xsyxLnYdeRT/u3i6Q6rr1tW0IC/dFfEI4bt24L3ulpaULHh7OWLkmXmQmD/grlzLR2NAh1oaFiVEIDvGeZBCkEnD6xF3R7GPmBCJlaSxOn7qDoGBvuLraozC/Woo8MS1w/oJQtDR1oaamWeYqMspf4mQsLc0EsJhbqFNzqWjMXxAGLy8XFBVUo6mpQ2RHYnIMCvOr0NjYIXKmob4NXt7OqK9rh6KnHwREixIj0dLcheamDuFxmTsvFL5+brN2DTTUt+L9d05hTmQcXtu3S82/oy0AQROkGOkXCQ9nT3WaY1837uTfQkrsUthaPuRC+LYgxVFlP4ZuXsHQ6SMYq62GcdJSWO77EYw9vQUkkPiGgoK0l44OjpNmsbSMTHzx1VfYtC1RFpu2kdm8rMOKSD0vtxw3r9+XCO7UlfPg6+8uG4+H+sjImAiN9ZsWo08xgNz7ZTJPNE0mL41FeISfNLWutgUnj90W6wEruqUsj4OdndplwwM/L7cMVy9lyybfun2JWBTu3HqAbTuXoKqyCZUVTXLQEzwwzaywoAq9CqVYKCh4uKkpSNSET+bonrBGJC2JRUtzB+7nVgh1dGiELzw8nPDu749h/5ur0d7SJaBlfAyS4tPb0y/R6jwYiJ5pHvX2cUV8Ajnh1ZS6s+1qbGzH559ehI9HIN58ba9wJOgyQOB6o3WSdQsuXr4Gby8PoR6PCAuV9UPG0LLqIuzZnyrAcTZe1KJLi2uQmVEsgL6lqRNbtqeIJYBWgoRFEcjKLIWPj6vs6ZvX87A0NRZFBTVCIKYBCNTEL1/KRPrdQkRGBSAxJUYAB8EA6x8QIFw8lyHafWV5PVJXLRDft6+vG3p6+sUyEBjsibS7BQgM9hKgX1vdIu9393TEH39zDCnL5ghAqK5oEssAZRMtG6vXJaCuthVNDe3IziwRGdXe3qMGPOG+KCmqFcBCucKofeaDzYkNkv45OtqgpbULTk622LJtySPuyNm0Hmhloaz09QrCT//qLe0CCAxSzC3PQaeiC94uXjA0MEJ1axXMTcyQHLPku4MUp/iuxkeGMdLUiIHDn0F16TSMl66Axbb9MA0MQXtnJz4/dFhY0lgzYP7cOZILfvnaTZy/fBa796XKITdbtQiyL3IDS1EnAF7eLoiOCcCBD88jONQbJqZGstFWrF6AyxczBW1TYORklGLJ8rkIj1QDhLaWLhz85IJs5HUbF6tdB8ZG4gMkayUBQllpPXq6e+Hu4YSAIC9k3C1E0pIYEVLBwd7o6x9AaUk9li6PxfUrufD0dhZNIC+nDEWFNaLhpN0thIuLPfwC3HDhXAZ+/g87hfOe7o2Sohp5f2LyHHzy4VnseW0lyorrYGZhKn1qbenG6RN3sGRpnDBqtjR3wt3DUcDF/tdXwcXNYTbJhkfcSJ99cgEGo5b4xc9+IilPugoQ2G4qBUVFJUITnpGdI1TujK0g1XniogSUlJShvLoYu/Yvh7e366zc+yrVCG5czcGtG3mws7OSg3X/m6vkwO3rHcC6jYtw7XKOmOB5iNPit2tfKjLuFUE5MCSWRloQmhrbcfSrG7JXu7p6xTJHbf0Hb68TJkEBCOczEBrqg9bmTrFWObnYi0uX+y8wyAMxscG4dCETA8pBsTqSk2b5ynlgeYlf/6+vsO+NFQImKIeWr5grz6BLNDEpWpQMWgQJbDZuSRJlRgMQiotqsWzFXHS1K3DuTBp27lmGtvZuXL+SM+kapZxKXTl/sl7GbBMAtKT86Q8nEBocKdUntcqCINS2Q0qU1Zeiob1BSIncHd0R5hsOK3PSAk/xhfcp8NWNQ4j0i8CiyMS/2NTCglhbBeUHv8fI7WswcHHDyP/zaxTWN0uxn+qaGtGMyIu/dnWqFPa5fe8Wdu9PFbQ5GwECx6y1uQsff3hWbbYfHoG7uyNWrU3AZ59cxM69y2Xz3b31QDbxudP3sH3XUlhYmYtwiYkNEnDF55w+cRu1Na2wt7eBiZkxerr6MD8hDLFxwZMAgaa+oBBPXDhLH6Q7Ojp6ERsXJJt7+Yp5Yib887snsWrtApQU1SF+Ybj4Mwlgurr6JMuEAs3RyQ7hEb740zvH8aMfb0ZZaS0K8qvQ3zcAWxtLrFqXgAMfnxeAQKFCEyUtExfOpMHKygKLkqJw8XwmKssbYO9og2HVKLbtTBFLwmxcB7TmECCMD5vj7/72pzoJEKYGyLJq4m//8B6am1uEQpkmLNZhsbGxQfLihVLdMSM7A5t3JCIq+mF612w6HHiYnzh6A6FhvnJY05Tf3dUrWjytd0uWzcW92/nw9HKBo5ONuCLWbUpEfl6FuAGZDs64gdqaJhz+8pq4Dmjqp6Vhw+ZEJKXEiLWWAIHuy8hof9lfH71/WlyUa9YloLurT8z8jEW4dD5D5DBjHVhcicoHrZu//9Vh7HtjpdxbVlon7cq7X47mpk6xPNCiMSc2ELeu38fylfPBmIfmpnbpF/d+dGwgrlzMwpy4IHGJtrd2IyO9GBGRfnBzd4CpmanEXanjVGbTClBnfRQX1eDgRxexdtVarFlFea9FMQj0f/Yoe0BGRfq8iBCMjUykBoOdld1T12Lgwhqpr0X/h7/H8I3LeOAZhGPO/ujs6hFBoampEBIUKOVE8wryJECRh8dsdDEQoKXfKxIXAw9z+uvzcisnNfiY2ECYmpmISS9pyRzZaPRVMgAxN7tUzHcECDRXfn7gogQB+QW6i7mR/v29r62Ejy/5LQzkHfQJ0gTJ7167kiM+RNEIcioEOAwMqHA/pwxLlsXhQV4VFiwMR0CghwAERa9SAqnu3MwXs2BouA/+9McT2P+DNbhw9p4ETHJ/U5AsTZ2HAx+fk/dTSLAPZuYmyMksxfJV8+HkaCtCsKNdgbAIP9F6GDQ1Nfp6NokKClu6GDxcffGDN/YLta8uWRBY76OjowPDqmEpYEZfeVFxiVReZUEvarIR4aFiPQgI8JfSvF8c+hoRMZ5YuWbBI9H7s2Xeqb3TLL8oKVpcenV1rWIdYOxQTlaZuPMYdMj95x/oIVo36ed56NPKOCc2WPZVf/8g7t7OF0sC94+NjYXEAKWumi/PpUy5n1sm4IDfozuR8mHBoggJeqa5v7u7D/Z21liwOAL1dW1Smj0qJkBcA2dO3hXw0dc3KO/gIV9T1Yiurn4EBLoj7U6BuC8Ys0RrI99Nng9Pbxc01LXB0soM+XlVMDc3kdgqWhLb23okQ4MKKQEEwcRszHJiPM6VS1m4e7MYP/vJXyE0hMqcgfbEINDFUFRbJFYEzhbZzXr6uoVqOTEqCZbmlg/NoN9gQZAAxL5eYGgQ44w3gCG6ehQwO38MRkcOQuXhg5xdf4XbaZlSstfHxxMx0dHCj68aGsJHnx5EbLw/Vq5eMCsPBwK0e3cKRCOInRsigYKMAqYVgRufcQX09xNaM06DvsGK8gbY2rI4kwGi5wQKqRQvHrgPcitks2rK4DLIKCTMR/5dVdmIjg6FBB7RUsFD39rGAolJMSgtrRMfKEFcSKg6hqCkuFZcHG5uDiJEBgZVYm2g2ZCxEl5eTrh4LhNLU2lyLJPAJb6bQortooUjeUmsgBKuk85OhdxDhkyS4jCamgFNY6Pj0o6ERVGwsHjIuzFbDgoepvkPKnHiyC0sT16O1atSxcyoKwCB7aQ18NyFSxgZHsG2rRulUisPjILCYhQWlyAsJEiEnyaFkxVVWcmzrrESO/YsFQ16tikI6hLPLBhHvgB19tjoyJi4BTl2ms80qcwsSkZ5wfunlsCWlOKRUdnTUutjosic+j51NgyfReWBsUBUJng/LZMaqyVTkk0YcGxsJJ+rLT5q67HmXv7Oz/g9tpXuB36figjbry4Hzffx6yxOp363fI+lt6mmsEz3RAAuZR0/ZqbEbIw94pxUVjQID4KTnbu4F2hh46U1QYpccIoBhficWI+htrUWPX098HPzQ3RAzLfGICQEzsVoaSFGaqowUlEKdLRjxMwchU6eyO/uQ2JBOjy7W2H1f/4b+sNicOP2XVlErIbI8sL0sTIm4dDXR9HSWY+tO1LEtz4bhYSkARobyUbhhqIPX2qcGxqiXzkwUcfdUKKMuTFpxufn/I6JqYlo37woIAgqWOCK96qzDwwkB5mVESVjYEydqiTZKv2Dsmlp/qcQYAoVLytr1gaABBzy+XwPo4/5PLaRvlM+l3/n+5gyyWfzHv7NmBkKZiaSisnKizw0+B5JnRoeFfZcUxNjsSjQYsGgKFNTI8nJnm3zzzHt61Xi/Nk0VJa2Y9/uXaJp61KaI2VIVs59HD95RsqWr1qxXKrWaWIRuB5JAEPTqcZ9pOFA+frocbh4WIrvmnEtU9MhZwtA1Pdzdo0A9wWBVmtrFy6cTUNDbTd2bduOuNjoyXRPrQEIbOzQ8BDqW+tQ01oLSzML+Ln5w9HWEWYmj6YdarIYIvwiEG/ugoH3f4OR4gKeJDAIDIXCzgknm7th0KfAmo4auKSkwvZf/yfGDAzR198vhw3LB2sOAVorsrNz8fWx44iM8RK/OzXT2eiDnl1bRN9bjoDE7AyPSCbHqeN3MS8uHhvXrYatDTOH1J/rAlESQWtzSytqauoQFBQAZyfHaQE9lkG/deceTpw+Azd3W3E10P9OEKq59LJAv1delRHQWFO452tqWnD1YhaaGrqxfMlSLFuSLHE5mktrAALBQW5ZDpo6miTN0cvZC5ZmlsK2ZWNu8wg3+iRA8AhCbEMXBj55F+ZrNsF0YTIMXdzRDwMUnzsDq6Ofws3MBDb//D9gHr/oW+eXA9bdo8CpM+eRnpmOxckRWLZinmiks02TfFU2gb4f0xsBNTgYRVFhFU4fvwtbK0fs3rlNAng1a19XAILG9Dw2RrP1QyvBk0ZCLAxKJe6mZeD0mXMYHVchItpfXGBM+5Nyvfpqjk8aRv3nOjACXOu0vHZ2KFBaUou87AoYGZlhxbKlSE5cCFvbh3QCWuViGBgawJWcK1AO9cPM1HyydpqVmRUWRS0WsKC5NAAhZMwE0cfP0CEF63/67zCNiBbn0lh/H5RfHcDgV5/C4s2fwnzzLhhNcEt/2xxy4Kh9HDtxCtk5uYia4wfm1TM3mpqEml5YB1aAvon6EXjCCNDfSm2b7hyWfWWOO8lv7GycsHfXNkRGhD8CyHUFIDBdtV+pFLcCo+qfRutX+8dHUVVdg4uXr0pQ45BqUALxjI2592d282u0vpluh35zTX8E1GEP4zO+dqa2mCyS3PuqIbpnTRARFoJVK5cjNDhIMvseX19aY0Fg5kJXXxdMjIyFCpMNpb96SDUEBxsHmBg/NPcJQLj2BQKLyhBz/Q7Mt+2D5d63YGhlLYx/nbeuw/jTd2BsYwerX/xXmIaET6uAEweuo7ML12/exp279zA6NgxXNzu4uTvC0lobrAnqQBt96dnpb1LtuFO75k20iMFhdHQq0NTQgUHlCEKCg7F21QqJ7H+cSVIXAALb+OBBAc5fvorVK1MRExXx1NY/CXQeHxeGxeaWFtTU1aO1tU0i9iepN2dgQZG7obWtXUCbs7OTkJPpL+0eAe54hUKB3t4+uLg4SzaQVlwGgJmJKVycneDr6y0ZfIzD+zaKaa0BCIOqQRTWFEjcQa+yV2IQyJ6YV5En9MuPZzEcvngA0ReuIFA5Autf/AtM5y0UtsSmpiYc/4//D4vHBxCycSvME5fC8AnWg6kTJ7EQQypU19aguLgMdfX1YK0GmmElF2YGLwZw0hRqbWU9a9m+ZnD4n+nVDIJj3XUGxzGqW1tkOwNPSRLm5uaKsJBghIQEw87W5hsPVV0BCBmZ2Th87AR2bN2M+PlznxogPC4HNIDhmSb+OX2Jbejs6sKxE6cFHKxZmSoCXX9p9wjQv0+G3gf5BVizagX8/bSrSqim3MCTLFJaAxD6B/txJ/+2ECO1dbXC1soWLvau8reUOUukFoPmUvT14MrH/xtzT5+H3fxE2PziX2Dk6i4f19XV4Zf/+TusWpaM1WtWw9js2ap3qX2zw+jrV6K/v1/SfWb6YvBVzv37SFy8SBDgkyZ3pturfz8kpTYzKxtxc2Lg7f2wcM1Mjw3jCxioy3Q/muO/K9ZGVwBCVVW1ZDHMmxuHAH/tEsjPOt90e2RkZeODjw/C3c0Vb+zfg6DA2Uno9Kxj+LK/x/3S0dkpVULz8guxZeN6rFqxbLKE8stuz/d5n1YBhEtZl2BuaiZFmmgGsTSzQruiA2sWrHkEIPR3daDyX34Ct7ZOWP/1P8JixToYUDsDwLzm85euIDI8TOhUn0d1Lo3/7/sM9Pf9LgXFkeMncftOGnZu34JFCxdIZTL9pb0jQJfVpctXcebcRaxbswrLl6WIn0+brumATF0ACBxTlUol1j8GFZqYqFNodfniuPf3K/GH9/6MzKwcsRxs37IRa1avEHCnv7RzBCirOV8ffHwAnV3diIwIw0/efgueHrpXDExrAAKJkqqbq8CfLKSh3toGMDY0QaBX4CM8CAM1lej5+ZswC4+Bzb/+Txg7Ok/GGJBJjSU/eXiy7KeuCwmOAgVFQ2Mj/uOXv0VLaxsWL1yAfXt2wNVFTUykv7RzBDo7u/C/fvU7VFRUIi4uBq/v2wNvL0+dW5O6AhAIyERqGBjo3Bh/0wrmuKelZ+L377yPgcFB6RPdQX/9kx8Jh8urINu0c+c+e6smQd277yMjK0dkN4Hd/j07sWZV6nNRWJ+9dU//Ta0BCNNtukzAFx9h4L1fw3D7Pjj+7T9PlnPmM9SsYCwFTHaumY8+nm6/vus+Bl5++fVRnDp9TgI46V744ZuvfW8/6/Nom/4Z3zwCXIcXLl3Fhx8fEI55G2trKaG6JDlR66wIT5pDXQAIbGNtbT3y8gswJyYKvj7eOn+A0sX5xZeHkZWbh9a2NnEFebi5Y/PGtbL3n4d19Elzr//86UaA67C6ugYffPIZWlpa0dvbCycnJ0RFhuMHb+yD5VPEwz3dm1/M3ToHEEZ7Fej99/8bA2k30fkv/w2RK7c9IgjIinj7bhp8vL2ECY6Rv7p8ccHVNzTiD+/+GSw8QzMqF9nKFcuwZeO6SUpMXe7jq9Z2zll3dw/+87d/FGFB2mhzMzMsWrQAu3dsEwIfXbp0BSBoghS3b92MBd8zSFEb5kfq0/T0Sm2J9z86gOAgf2zesA5W1lYiA/QcLdowS4+2QZ0FMyjzdvvuPSkzvmv7FoQEB8He3k7nQJ3OAYSRpgYofv4DNJgaYOgf/wXz41c8AhAam5rx69+/g4Xx87Fh/RrtSS95xrVMTZRIlFzyxSWluJ9fgMSFCQgLC0FMVCRsbKyf8cn6r72oEdBEnmfn5IlWe+deGubNi8Wc6ChJv7O3t39Rr34hz9UVgJD3oADnLl4WUy7H+lU5QBnw9qvf/hHhYSHYu2uHzh0yL2RRavlDGdR++dp1XL12Ez94fb/MnS66hHQPINRWQ/F3b6HQ3wNGb/8Mi6KTHxl4HqYffHIQsTFRWLF8mQQs6fKlSbXiT1ajO3n6HN56Yx8iwsOeii1Ol8dAF9tOYCe5+fmF+PCTgxJYytgRjetLl/qkCwCB49nV1S1ZI+7urnCwt39mgcz+UntnLNOwSiV89fzfTF1d3T14/8NPEBwYgM0b1wtpm/7S7hEgCRktCLRm796+FcFBgVqT4kx+IdbBMTMze+IZolMAQcw3F0+j/5f/hoKoYJj+8K+xKCrpEUFA805tHasMWsPF2fmZ0LYma4E/iQSZ00rf/0xfd++l4ez5y3ht706EhuomIp3pMXzZ76fl5+DnX2Lr5g1YED//mQ+t591uBgFLkS0Tk0lN+9s0HF0BCBow/SxBipo9T78/XXqs/FhXq+ZAoQyYye2vGh5GTW0trKys4OHmpjVr6HmvyVfpeZpURwYqe3p6wNrqYX2Dme4n972tjQ28vDyENdXH2/tbmUd1DiD0v/drKI5+hpurl8J39Za/AAgcfM1mf1aTDrU/BpeUlleipLRMKJgJPGZUSjCFs7Mbbe1tEsHM/HXdTuKa6W3yct6vUPSivrFJctgdHOy1Y85Y6tbIRNoTFOiPqIhwCaQig+I37RldAQgca5rjnRwdxfX2NPuffeSeJ4vqjVt30adQwNHBFi5O9rAwU5ctn6lLzdirVlCepk8z1V79e9UjoDmHtGbeSLE+PoZBlQrtHd1o6+qBpaUVEhcvxNLkJDh9Q3EznQMIfe/8Et2nvsL5/dsQFZeMRZGJj2waagCtbR0wNzN96qAQTigzBoqKS3Hi1BlU19RIkKODnTUszc0fyZbQbwL9COjqCIyPkQRMhZ6+fvT2DUhMxMrUpUhOSvxGNkVdAAhsI2uoHD95Fps2rsP8ubHTPtQ12h5Lvt9Ly0R4sC9WpixAoJ8XLMw1ZlhdnW19u/Uj8HAEiDOZVaUaUqG2oRmXb2aguLwWcXFx2LJ5PTzc3R7ZNzoKEL6eAAhJfwEQ2ts78N4HH0vxiQ3rVk+bvYpWA0aeX71xEzdu3IKNlQUWzYtEdHiQuCtYI0KP3vVb7VUYAfrT6WMfGFShpq4RdzIfoLKmEcHBIdi8aT18fbx0rlgTD3mS0xw9cQpbN29E/Ly4aQEETUDpsRNnkJOdjWWL52J5cjxsrC2n9f1XYT3o+zD7RkDjjuvrH8DtjDxcvZOF0LBw7NiySayJhhPVS185gNDW3oE/vPO+pJXQ72tpaTGt2WdRjas3buHGjZsI8nPH2mWL4eHmpPNpktPqvP6mWTsCkpKp6MO9zDzcSs+DX0AgNm9YD09Pd50q96zJP8/OzcPcuFj4k2p5GkyKTEG9eesOzp2/iIVx4Vi7fBEsLMz1ysCUHfEkUzmVK8ZokZxOfh8bg4GB4SPBlC+6sqEU+NO7YJ5JjvX29ePKrUzczSrE2jWrsSTlIVfLKwcQ+vr6JfeUuebRURHTIqWhNvWgoBBfHzkOH1d7rF+ZCHdXZ72QeKblpv+Sro0ADwDlwCDuZuTh8p0cJCUmYmXqMlhbqwOrdMHFwHZKQPHIiBTFmg7/CfvV2NSEzw8dwbhKif3bVsPVxVG/7ycWMMdnYHAILW0d8tPRnjEZDo8EfvOe2vpmdHX3IiYyCNV1TfKfv48H/Lw9JBCWF0txt3V0w87WGrY2VjLGdAeT7Im/Uwbz53TJnySAfOI7BILNrR2yTj3cnPWWn6cUQBy35tZ2fH3qKvoGRvE3P/0RnJ2d5SmvHECQWtcqlSyS6fKx03pA02R5WQl2bViGkEC/yYX9lGP9St6uZqdUawaGRoaiKTzubmGJXJVqGNbWlmCKj6K3T1JprK0emmq5EJkRwrlhqtbzdNmonz0smgwptmcyqEwXF4Ha1N6DY2evo6WrD/v37kYgiwIZGOgWQBgeEXDAg+lJ64uHUnbufRw+chxLF8Zg6eK501IodHF+n6XN3M9ZecXIL66Ag50NPFydsGBulOzd4ZFRWRv8PS2rABU1Ddi2filOnL8pf09cMAee7i4yD5QbLC5NTgAAIABJREFUZZV1OHf1LhbERSA+LhKMg7mTkYeosCBYWZqhtLIOTg52csDzmZQhXJMagCE02hNAQm2pGEdBSYXEzHi5u6CusUXuD/D1kqq7BA+sWErAwb+rLRvqQE8+c7pA5FnGTRe/Q3B9My0XJy/ewQ/efA3z4mLVwG1oGH359VL8wDbWB4YTgO/79tFgfKpd6vs+bQqiVQcpfnsMAhcCO6tBo9M5KKqqa/Dunz5AdKgvNq1OgdU03RLPqVta/5iOjm7cTM9FR1cP/LzdsWh+jIyRZoopEHILylBZ3SDWl/ScQmTeL0R8rFoYWFqoC8v0Kwdw8XoavD1cERsdKhuY0bR8Fmlke/uUsrk1GoZGe50q6B9NN2Pkeb+YMy0tzVFSVoMuhQKL42OmBRCedIBo/cQ85wZSqGbdL8LRszewZu0apC5NmRSw5Q3lyCxJR1J0CnxcfZ54+D7npk0+TtXdD0V2DSwDXWDp97AGC9diaVkF7qZlCN9ESHDgE9cAFQnSYafdu4s9W1YgLMhvxvr1osbr+zyXVqVTF29CpRrBmuWLJPCbQZvZecUoLq+BnY2V7O+K6kaUV9UhYV4EPj96ET4erlibuhg+Xu6yx8knceNuNvJLKuHr6YalifNQ39iGj746jXnRoXB3cUJOQanIgdSk+bC3scKN9PuilMSEB8HNxRHpuYUYHx9DR5cCoYE+Ysk4fu4GTE2M1fvdwFCUgwBfT2TlFaGptQMO9jZIXhCLbkUvikqr0duvBFNGV6QsgLeHPl106trg/qmsrsd7B45j0eLF2L51k+x9nQQIPae+xrn92xAZm4hFUYmyODQXU5XOnL8ER3t7JCfRn/jdMQgcmPSMLHz+5SHsWL8UC+dFP1GwfJ9Np4vfvXQjHcVl1aIVWJibiumQm5GmR6JxV2dH3C+sQGl5DTauSsLHh87A2ckeq5cuhIujvVgdZAHW1OODz08hIjQAG1YmSerWoZOXEBkSKCbJ3PwSjI6MYnH8HDg42KKlrVOECzULgoweRZ9oAt29faLR8G837uUKqJgXHSYaAova+Pp4CHDo6lZIoRQKmOGRYSgUfVANjwqApCmZAkkPEh5dkfWNrfj40Gn4+AXg9df2ijWGc1feUIbMkgwkxUwAhBlK2PwugPC0VMsDAwM4dvI0KstK8PqOtfB0d6WSqr8mRoDWvpz8Ely/m43QQF8snBsla+G9A8fk9+b2Tri7OMLY2ETcDOtSF+HQqcuIiQjG/OgwmJoaw8jQCD29/Th54SZ8vNzQ3NKOBXGRsLa2wP/+4+d4a/d6WFiY4crtLIQH+yM6PBAnz9+EkbExHO1s0NHdg9iIEHkug0eNDA1QVlWHxPkxuHY3R74TGxkiCgnba25uKu6GhLmRuH4vV6wLVDgIapITYpGWUyCAZPuG5Xo5/9hKp7z93QeH4OsXiB+//QOxxOksQGCaY/icxVgclfTIRJN17Pfv/Anubm7Ys3PbE6mIueAvXbmBCxfO4bXtaxAVFqg/NB5bOLfS7yO/qBwpC+NEK6DF4PTlW+jo7IGxkTFCg3xhZGyEqppGLJ4fgw8OnYSnqzPWLFsIfx9PNRIdG8Xxs9cwNDQirofo8AARNh8dOoPwID+EBHgj436xAI+VyfFQDqmQnp0vLgprKwssnBstkbYU4DQUsqxvSkIcrt3NFsHAzU8wwUU+b064mC9ppuzt7xeLh72tNc5evivR6V09vSKIUpPjp+Wrnk0nBkHYR1+ewriRBX7+Nz8Wyw7nqay+FFmlWUiKSVZbELQQIDzIL8D5i1ewemWqlHp/kvWQfvHjJ0+hYgIgeHm4zqapfmJfCbhpZamub8LttDyYmZogPMQPnx+7iLjIEIn3oEWR1n+a+HduTsWh45cwNzoUxibGKCmvkc+NDAxx4uJNBPp4oqG5HfFxEeJq+PfffYK//6s9YgU4d/Ue4mJC4ePhhl+99wWcHe1gb2cDE2MjhAT44ti56/j7n+yBQtGPG2m5iJ8TjrtZ+Zg7JwwxYUGSriduzuER+W5SQqzIgOqGZgT4eIhcWLNsEe5l5aOptR1v7dn4xPXxxAF6xW5obevEbz/4Cr5+AToOEE5/jYv7tyM4KgGJMcmCUjUXyVK+PnIMDg4OWL1yubCPfddF4Xfx8jVcungRr+9YI9qtXqt8dMRooruXmY+6xmb4eLrD18sNXxy7iPmxEXJQ89B2sLNFY3M7tm9cjk++OoOwQF9EhPihqaUDtjaWsLKywG/e/xIL4qLkgCayT4iLxHsHj2PbuqWi5V+8ng5bWyvRTj79+izMTEzg7eWGppZ2xEWH4m7mAyTGx8DH0xVfHr+EZYvnoai8RshsFs2Pxr2sB6hrakeAr4doNCuXLEBBSSXyiyslr52ChSZM5v/WNrRg/7Y1cgDqr4cjoOjtF4AwYmCCv/vZT8UCQ3KV0roS5JbliAXB29Vb6wACe8AA5a7ubjjY28m+f9I+5tq9cPEyMjLSxcVALflJ35lNa4UxPY3NbVAOqlBV0yD7OzEhBsfO3sDi+VEyzjyMy6sb5POdm1bgq5MECGHw9/VEX79SDv/zV9PEyhcREiB7r7dXidXLEvCHj77GlnVL4erkiBv3ciT+IDI0AGcu3RYgHxLkC2tLCxgbGuHAkXP4Lz/dh84uhezj+TFhSM8pgKuLk7gpsvNLMawaVlsae/tEAci8XyzKBS2Qre2dWLlkIdJy8tHY2IY392zQA4THFnNlTQPe/fQYEhIWYuf2zbrqYvhP9B7/Arc2rYZr4gokz0kRLVZzUZtsaW0RsxczGZ4UzUyAQL7sw0eOYvemVMyfE65fOI8tHAYcMiipuLQaeUVlclifvXJPDmWifFsrS3R0K1BT14Rdm1LxyVdnERbki2B/b1TVNUrkMtHprYw8xEYGo6NTAUMjA6xKScDBoxewaVUSvD1dBSDQ7L9oXjQ+PXxGyKkiwwIlKNLZ0R7nr9/D2mWLxH3xxbELYlUorayFg72tAAcCiPrmdgT6eaKuoRmpyQtQWFqJvMJycXfQj8mfFFIEDYxaZ0qb/no4AjTP0sXg5OqBH/3gdQnao1unpLYYeZX3kRyTAk8XL60ECJr6Fzzkn2Q9YI8ZpJiRlYNjx05iRdJcJC+MFTZJ/aUeAaaA5hWUTwYA+nq7i4U1I6dQQD7djQRVyoEhtLR3InFBDO6k5yHQ31tchpyH/oFBXJywDvh6uUvMUfaDEpEDmfeLxGJIN0Fre5e4LGMiQ8AUfAZGMhvFw80F7q6OuJOZh40rU8CUvKKyagQHeKOuoUVkTliwL0bHxuVZXm4uohTQ1UhCIFoTmYFBd2NsVAhKK+okGHdZ0vxprZHZshYY78EspiNnr+O11/ZNVkPVOReD8uRhKP/wHyj384LqrR8jccFKmBibPDKPmuC56WoDpFP+058/QuL8SDFD6XqBp+e9qG+l5aK6rhGDg8OCyJMSYnAn4wF6lQNwsLVBgJ+nBDLV1DZh87ol+PLYJYQEeiNhbpQ0RTkwgEMnLiMylD7GYAELadn5mBujdgWMYRwL4yJEyJRU1ErQ0eCQCnkFZXB2dICzgx2CA33ExbA8KR5O9rY4evaqBEE2NLVJBDTNmgIO27vEhJmeXQDVyIjEHcyNCRMrAwXTssT5IvAYU7FzY6regjBlsfCAzS+qwBcnLiElJQXr1qxS+yHHRlFUU4TC6gKkxKTAw9mDGefPe5lN63nfFYNADpTa2jr4+npLHZYn7X/KCZZQ/+yLr2FuNIr929cI2HzS96bV0FfgJq4HpXIQ/QMDAtKZocSYFGY3KCYCim2sLKWnDHCl9s7ARt5DN6IahI2JJcHK0ly9lkbHRB6wUBAtFHy+BDxjHP3yu7mURicQ4Hto4SMQ6R8Ygq21pYDVwaFhcXcwloiBzQyepEuDF3+n64j38x66KHkf28cAyyHVsABD/l1/qUeA+4A0/kxzbOnsw89/9hO4ubqo50/XshhGmhuh+B//FcrKYtT90z9jfuo2mJk8NBPTZ1ZeUS2pMgH+vtNKW2IVuM++OARFTwf2bVkl6TnT0UBmywJrbusQ+mpDAyO4ujiIO4Gbnu4Dblj+jQKESJ2ugsaWdtn0zJumsGVsAIPf3F2dRIgwkpg50daW5lAqh+R3N1dHmBgborm1U4Q0LRNNze0iNOiioAWhs0chYIFaXktrJ+zsrGXz0/Rpa20lwU4EKs5Odujs7kVHVzfMTEzh5eEi2kSPoh9ODrYYGFJJ+z1cnfXprFMWMbNMzl65g9zCKklzJI8I98HI6Ajyq/JR0VAmLgZ3R/cZW/rfBRBycu/jxOlz2LR+LebGzZnWHuZhcvHyVVy6fAUbUhdhyeJ500qRnLEB0L9YPwLPeQQYu8E4s/PX05GauhxrVq54CPB0CSBo0E7/J+9B+eHv0bltB3x/8n/A0uJhnEFfXx/eff9DmJtb4LV9u2BvZ/fE4eQhcy89E4ePHENKQjRWLkmABWsv6EOaHx07RgfOjOL4xDnU3/D9RoB7gFaVA0cuICo6Gtu2bJzcO8wAyS3PQUNbPZLnLIGznZpEZSau7wIImVnZOHzsJLZv2YT4+XOnBRBEe+roxOeHvkZ+fgF2bVyBhfOiYGam59KYifnVv/PljQDXPt1IOXklOHr+Bnx8/PDavt1wdXlofdMpC4Jm6FQFeej5v36BoaBg2P3rv8HaxX3yMO/r78cHHx0QBLR3945pAQS1iaUTx06cRlFhIVYticeieTHinyYntR4ovLxFq3/Tyx0BIRYbHpEU1JMXbmFk3Ai7d25DaEjwJJmMclCJzOJ09A72ITk6GXbW9i+3kVPe9l0AgWWaCwqLpDqll5fntAACH80xqK2rB4s1VVVVYUFsuLjHmApLk7VaBsxcNccZG2z9i1+xERifII1iUUKVxGJk55cgLacIXl7e2LJxHYKCAh8hkdJJgDA6oETHf/4bRnMyYPmTv4fNkpUwNFMHm7EaY2ZWruTex86JhuUTeBA0K4B+qZraOpw5fxGVFRWIiwzGnIggMYtbWVlKwIweKLxi+2WWdkdTrIlCguRXjPtIyymEgZEp1q9ZhbjYGMleEIsdxtGl6MK9wruwNLfEgvAEWJnPXG37bwMIbCvdSML2ORGk+DT7lfu/sbEJ12/dQVFhMcbHhuHq5AAnRzvxZetdjrN0s7xi3SbZFOMwuO9b2rsxNm6A8PBwJCcugp+vt7APT710EiCMj42hIzcNyn//77By84T1j34O0znzYDBBq8nNTms4WbyeZmOLP7upGXfupiMnNxfGhoCbswMcHewkwMVgosLVK7Zm9N2ZZSOgoaVW9ColP7ynVwlfPz8sSV6M8LBQCSDTHK68t761DmlF9xDkFYwo/2iYmpjO2IgJQMiawqQ4ZU+yrb19fWhuaoGzs5OUe3+a/a8OyhtAZVU1SsvKRRYwbXp0ZETkif7Sj8CrMAIkt7O2toa7m6tYCoMCA+TfjNt7/BKA8KAe4wY6QLU8tfHKPgVK3vl/4XLlMmyWrIbl7jdg7BsAA2NjCVxrbmkVbYL1rR9HRd81yfxOf78SNbW1KCktR21tLTq7uyXHVi8kXoXtoe8DR4DCwNrKGp6eHggLCUZgoD+cHB0ni+doRol7Kb/6AUprS5AQsRC+7n6PMJe+7NGctCD4O8PC3+UR0C6c/+UVOHXmPIKDArEidSmsn8CD8nj7CTL4H4OdGbQ5ODiIsdExsaXM1MX0PTXfiIFkWOnDgGZqJqb/XlLCD6mGSBYrmRjaNGcEzbQQstKxRhn4Nmvb6OBELQbDCYBg9JBzaPqj8Zd3vpBaDI+YPkZHUJh2BcN/+g28G1thEh4N6//y32Di64+evj4cPXYSPT292LZ1I7yfwh+peQeFDd0VpGPl5qT5cqYvKZo0MiopPU9jPp3pds/m95ONbnR0RA7ep9FmX/SYcf0QODOrhHTkbNvja0o0cmUvbty/JmRkZFG0tXpy0O+LbLuqRykWBAtfR1gGuMBgitajiSU6cfKsWADe/uEbUvZd1y+ClKycXFhaWIrbVJvWka6P7YtqPwFmbt4DSamcP5dFwB413b+o9z7v544qVejNr4eBiRFs5viI6/55XC8cIJDdramtAZmXj8Dz4iX4VtXA2C8I5pt3wSBpOdKLynDq3AUsSU7EmlUrBCnp+tXa2gbSyTJC29ZWn6+tC/PZ0dmF/IJCRISFwmVKdLAutJ38B4VVBZLBEBsUi8iA6EdIyWaiD8OKAfRkV8PcwwFWQS4weKy6HEF0c3Mr6hsaEB4WAhsbG7EkTpc8aSb69F3vZNvr6xvw7p8/gq+PN/bs2j6twGtt68dsag+BamtbOz7+9DMh7Nu3ewfcpc6HNtkRpjcjI70D6CtogIGlKWyivHUHILB7g0MDuF+ei9r0qwgvqYZ7ZTUMOjthGBMH7HsbRcphuHp5StlajZB4ErPi9Ibt5d9FJHrh0hVcuXZThMTc2Bh9ydKXPw1P9UauuTt303D81BlsWLcaSYsXPZW766le9pxv5npr72nDlezLsLexx+LIJNhZ2824kBvuH5Rqjib2VrAOc4eh6V8yH0ppYGbkGhiAxdty7j8QV6OXpwcsLdUEOVPv4X38T8PEyFxeTfaSplSw5nka7f3hvZi0vsi9tCmPj08CEo3LQk3epi6PzEv9XP5t/JHva+7XtIkunlNnL+Crw0fhYG+PN/bvFQWBz1HfK1WQJ60K6nap/6Z5huaZmiXCPky2ayJz+Zvu/a7va/owlZSO93/Tu6Z3L+dA3eapz3hSGzTzqJ4fWsHUY/t4u6bOOX/XzOMT38WA14mD/Un3Ts7Z6Chu3rqDTw58DhMTU+zfswOJixdOi5PnOW/j7/04VVefAAQTF1tYBbvpFkDghFGIscqcUtGNWEMbOF65hPH72TAICIJx4jKYBIfBwMkFBZ29GDMwQHBgAOyofRuqF6Lm+raFODVY6/F7NRtc/Xe1UHl8g3zzc7/9Xs1mmvou/k7rwa9+947ERixbkoyd27eIwHjWPkwVdI+/65vaML2Nq+6XbMYJQakRrN8kPL5rbB/fjJo2Pqm/TxIoT9zk6gYDI8PA8LAI+6e+6KczNUNPby/+8O6fkfegAIsS4rF393a4uWq/JkHLQUdPO+4V3IVyaACLoxfDx8VXK0zbo2Txy6uHwdg4rCI9YWL97VTZnGsyK3584Ath7Vu7ZqVQyHJtFheVyN/s7Ozg5+cjLH+8l2yMzFjy9vEWqvaeHgWqa2qE1Y/1XQID/ARIMOOJBGs0uTKGg8Cjs7MLTLUkEZi7uxt8vb0khoFsjd3dPWLFjIwIk3Fs7+hEQ0OjmKB9fLyFuY73VtfUSqClnY2ttIsEZb/81e9QW18vbVy2NFk0UjNTM5RXVAoJmaOD/aQbtb6xCe1tHRKr4OPtKf1T9PaisrJaZAXv9fLyktLJNbX1UPQq5LkhQUGS1t3e0YGmpmYpdMYgNvaDLlb2gRwzpN4OC1WnwLa1taOpuUWAjr+fDxwdHYTFsLauDv1KJextbeHv7yfbh/KruaVF+u7j7S0BpHThlpVXSsyYk5OjFNjjc2n94ViyD16enrC1tZE+VFXVyLOcHB0kdobv5XixXfSp+/v5Sh84h+wDP3cjVbObqxRyYh/YLrrWIsND5VnsQ0tbu8ypn6+P1JfgPZxH9sXGxgpBAQHSxta2NrS3dwo4470M7OO7+VyyuDIwlvPY3dOD3/3hPTwoKBLAs3BBPH7wxl44OznNOMB+Glk2zuq4TV0YKG2BRZArLLwdYGCoIy4GTUdJ4tLY3iCV5oj0okzs4FpcirGcDIzVVcHAwgqjru64PGaOnpFRzFmwANErV8LSxQ0VNTVSipT+IU44gUNnVxdqa+tl47q4OMHby0sWT2VVDViTgCx+oSFBQgfa1t6OxqYW9Sb38oQrN/nQEOrqGmRBW1laTtal570Njc0SrOLr6yOLnAKBzyVvOMtTe3l5yGZtam5GS0ubvIvxExQ+Z89fwpeHj2JYpZI2/fDN1xARHirmx+4ehWwM3ssiNfw3gyt5OTs7ywbhhtdsXDNTU4lc5UahKYwLf2x0VDQsJycnaQ+FFzcK+xAQ4C+BabyvtbVdwJWfjzfs7Gwl6pvP5QakgGAbKIgYJMqNyhQxPpemXgqE8ooqEU4MiKPJnQKDwpZCkeRU3Ph8J6tysm/8nIKa93KcKRD4LitzM3kuhQiFDwUKU/J4ABM4sQ/NzS0yH0x15fzysO9tqMNYYz2MxkbFXM7NzvmlAJDMFwNqeUYYa2nCWGMduWKfZk+poaKjE0zXbMGdknL8+cNP0d/fL+1/fd9uLFwwX6utCGRNbO1qwYPKPLR3t2N+WDwCvYJgajxzmQtTJ4ABg8qqdgw1dMIy1A3mbnbfKbQYQ8RgYwYvMnCRVR4ZhPznjz6VQ5uH3fq1q6Xq65lzF5GRkQ0rayusWZ2KuDkxcggfP3lGgAK/u3XzBtlLp8+dlwOAB/UP39gHNzdXFBQU4cLlq+hRKJCSlCjF4ggizl28jKKiEjg5O+Knb78le/z+gwJcvHRFZMD6dWuQED9P7j3G6pJV1QgLVrfrxq07+PrIcQl4o4ZMfocfvfma7JMDB79EV3cXYqKjpIIlg+HOX7qK9PRMODraY92a1SKrqqpr8PmXh4URkymsvJeZGcdPnUVpabmkcb/5+j6RX7m5ebh0+aowjaYuX4IlKUmyt06fPY+Kiirpw49/+KaAnfTMbFy5dkMCuHdu24yYmCiRD8dPnkZNXT2iIsKwY9tmmR9a0q5euyn7devmjeL+4XM/+PiggBT2f/myJaBsOn32AjKzc2Xfr1+7SuJIOA8Hv/hKlkLC/HlYtXK5gLZDh4+iorJK9v2eXdvg6uKCtPQsXLh8WeZpWUoKli1NEjnHeSTfhb2dLf7hF38jz7pzLx3Xb96WA37vru0C4AgOTpw6K1ksYSFBeOO1vTJPnIvbd9Iko23fnp3w8/MVUPnVkeMy57QQpiQtBgm7PvjkoBQPI0AgMHjrzf2T9Q2eWqDM0BdGh0bQX96M4S4lrCM8Yer45AJo023qC49BmKpREiSQ5S27nKV/VYhwD4KPCjBrasRoeQmGLp1Bt3IAqvFxmFrbwCE0HCYOjkhr60axalyQ4NKURPh4eaGkrgEnsh+gf2QUCxcmyAKlRvDFoSOySIlm337rDTkMWX/+0pVrEsi4cf1a0RIJME6dPo+SsnLxGb791utyyGVkZePchctS5Gb71s2YExMpWsQXhw5L/jWDj8h9z8169fpN2Xi2NjbYsG4NbO1s8Id33hfBwcOXXOfMV1+3drVs5rz8QkGumzasEyRfWFyKQ18dlsW5aGECli9LwYByAF8fPYGqGlY/dMJbb+wXoXg3LRPXbtyUw3vjurVYED8PLa2tskF48BOVv7F/jxyat+6kyWZi+ig3Y1hoiCB1bhB+Z/7cOGzasFbaePnqDdy+ew8ODvbYunG9uHk6Ojrw7nsfyMZetGgBliQtlsPy80OHRYh7ebhj3dIkeBuNo7ywSDYkU3JiIiMxJyYKQ8MqGcPuzi4EGoxinqM1zIyNQT8/N6hGu+AcsZZDe3vHJJ+7p4ebtGugpRnjbS0wHn/UtDvV5EygOTqsQvcY0KsaEaBGwWNqZiaCoqWlBUTX9g72ApII+giIuA6oyThHRMFg74/wu8MnhbiH7+WhkJKcKEKIgk/bLrZxUDUoKY1FtYXye7R/DIK9Q2Y0rfHxceK4M5Ohv6gRRlZmsAxxh4nVd8cXEVgSVBIM8mBjAFlBUYn8JNMq1zjnuLqmTjRKBgFz77o4OwmIqKquFhng6OAgwFqtudagvbNL9gK1UYJ47ue6unq519PDXUCpWAUmrA1895zoSDno29vb5bBijYAAP1/R1HkvATTXMjVZKhLFJWWoqqoWmUAQQm1UHc/ihKLiMtm31L7ZB+5Rgm0CY4IFfz8/2X8KRY88h+3m93gv1zsP1q6uHul7ZEQ4LK0s0dLSirraOqhGhuHr7Q3vCSsIUz97enpgZm6OOdFRakWmqQW19XVSX4FAhHuE4ItykgoS20XrCq+GhiaxgrCNIUGB8hlBfF5+gexRDzc3qaFByvbyyirZT5bmFggM9JNx7+rqQkFRqbhk6C4K8PcThaGouEQUIioVVJioIDU0NgkoYh99fXwkv1+pVKK0rFLSVk3NTJAQP18MhdT+OWe8NzwiDK7OznJPWXm5HPC0GlH2EEBQHlJxYt8jI8Nl7dBaUFRcKlYWWmyoIHEOi0tLkZaWJfKLSkFkZASCAv21wgo3HdlDKoGhtl70lzTBxMkalkGuMDYzfW5Mui8NILCzFG5cLG09bcguy0Z7dyvc7F0R5hUKVzNrGNZWw4DpSn0KDN28gvG6aoz19WGgpxtD42p/FBcYa4/3j4ygaRQYtrKF65434RsbK4uHi1ZhYARzJ2fZoNwora2toElvZGxchAEXLhd9dXWtLBwbaytEhKtNilzwFAgG4+NyWFKj5IFSWlYhGiaRub8vBZWJLNqG+kZZyH6+vkJscT8vD8WlZaKJxMfPQ2RYmGg0La1tcvBaWFogMCAAtjbWQh1bWl4hYIRt8vHyEHMqtageBauwmSMqKkJKsdICQpMeNQpaCiiolD0KlGZlQtHWJiAlKiJUhBo3R11DowCP8NBgODo6gsyVLHZFSwJBCpm4uLhoviQCp6CiW8fewQ7K9nYU/O6XGG9vm7Ag0ORmKIKjr1dtJnS3t4Ul50mplDQzbmJaa/gZ55mWBs61mQFgYWsLQxs70fz/whdKe4L4eNXXpEvFxATD8xZh3NsfNrY2Mt4cG84B55kggPM2amiElnFDdPYPyjz4+/rIIUCTIq0+fJ+7qwtcJoqa0PxJCxML2nj5+GDQxBRp2bmoramTioEEgBQ01OAo8Gb60oyXWE9GR9Dd142CWdcnAAAgAElEQVTi2iLUtdbC2sIGcwLnwMfNV6ws2hZcNTo8goHaDgzWdMDMw16dzWBqpPYVTyMQTC0v1KmLU4MXH49B4Jrh3x4BjxMm1m+NQZiIK+BzeRjyXVOfS5CiiXfQPJfv0cQFaO7VuMrYzo7ODvz2j39CeEgwdu7YKgqC5hlisZpSvfLb2/UwLuOb4ijYVo0sfby/k/EKE+423st3sm20Bmr218PxUsdWaMaAnws3zcT3Nf3VjC3v1pBb8V75O+M4Jvat5rmaTLKp96qfq552Tbv4/e+6lw8mEFH3YXQyFkSTaaQ5T/iT9xAQaOZRE8v2F32YonDwHoIWWngoOxgzRuu0pn0zvfe/6/2auR7uHhBwwMG1CnWHiaPVcwU3LxUgaDrMiRkaHkJhdSGKagowMDQAZ3tn+Lj4wNXBDXZW9qIN0Vw+1lCLscoKGIyNTsgUA4x2tEN17SLGGmow3t0FjI9N5q+OGxjCMDBYzbUwZYQNPLxgtnoTDK1tJmXTVLe1Rl497sqWYBrZkQ8f9k1/e9gAIC0jCxcuXcWendsQEhKkft9UF/nUhk38fWxAieH0WxgtfMCdN621OTYwgJGyQox3tMv9msc+4VVPvpcBSGZmMLSy+e52uHvBfP0WGFlaf/t9JiYw9A+Csbff9/KLaWIjpr7om2IjNIJ4agzEt/1t6rMeFBTgzx8dwO7tW7F4UcJk4Ni0JuJ73KRpJ90u8rv8X0O1OgbViAq9SgXau9tQ116Hpo4mGMIQId6hiAqIhr21/Utr61N3c3wcI4PD6K9ohaqhC8bOExqOtbnEBGgboHnq/j32BdLA/+q3f0R4aIjQx2sO8+/7XP33X9wI0Arx0aefSczGa3t3iotVq6+JwM6x4VEMtiowUNEqyqxFmLu48QyfE/+BZgxmBCBoEDA1ok5FB2paakTw9Q30gmmRRobGUvmR/zEQydDQCEYS+TrBuEhBqhrEWH8/VPduAgNKdX/GxmHb1gGHri4YTtFKDYZHYD44pPYpvwSWRVYqHGapU3NTdRXC6WTNMA9/ZBiDpiYYNZ2+H1llbIw2TzeorJ8jrS41JR8/mETM+W5Njzn5Uizr+QTEzOTGrK1pwPXz95CQPBehEQEv7fBSYwJqeBOgYFytKQ2PqKAaVom7ZmR0WIbGwswCLvauCHAPgIuDq+wPbT9k2a+RARUG6zqhauoWa5GxrQWMCBLMjWEo+2Oijsp09slMLpInvLuzpxu//+RjhAUGYse69cJJob+0ewRo6Txw/KhYe3Zv2ASbpyTseim9m8iCocV3XDWCsYFhjCgGQO4DQ2szWPg5w9zF5i9SiZ9H22YMIExtPIECrQg9/T3oUnSid6BXLAyMWeBnBA00oYyJeqXWj78xZp3mo5ERGItZ8uFlyuCzhmZYDA49jzF74jOam9pQX9OIoFB/MdlPw5oqzxxmxLGnO5T2ttMywco4MJCfpjVJy9JxCfvEkX1xNzTVtSDteh5iE8LhH+L9Ug9e9aypD0maZRksZmRgJG4Dc1Nzqalgb+MAB2t7WJlbiylV1y66G4a7lVC1KDDWN4Sx4RFglLYSzWZ+hiwULRuErv5evH/pOII9vLE5fonEPegv7R6B3kElDt25LDFSWxOWwdrcQgsbTJeculninTM2hKG5KYwcLGHqYiOxPc8ra+HxzmsFQBAZMXHwEwxM9SONQQ0O1B9PCJRnmEKDlyh/GHF79twlKWMdFhYsMQbTvXjg66+XPwIFhcU4cPAQtm7ZgIQF814qQFDDAw1IUEsBQ64aAgVDtQ+W7ja1gNDdBSJWEvrDh0dB7nj+HB9Vu1VmkiL5ea02Ur3//sDHCA0IxM616/Uuhuc1sC/wOYoJC4KZiSl2r98ocU3ad01IB4oAI0PhFDE0MxaLATPVXqRM0BqAoH2T8uwtIvkGU5OY4sh0nBc5gc/eSv03p44Ao7SZUrd7xzYkTsQg6EfoBY/AI6D9JSL4F9QtZun86nfqGAQGvDHATn9p9wiQA+XjTz+XGIT9e3ZK8Lj2XY8pBS9RR9BJgPA4Cc93/ftZJvubAuI0z5nOYa8HCM8y6jP7HT1AmNnxfxXePhmkGBaCvbv0QYq6MKc6F6T4kgdV5wACwQDzXpm2x7Q6cgQwDZGpayTGIFeCUjkI5YBS0CDTaJgbyzxk2nFZSIVWWpLy9Pb2yd+Zj29mZj6R8mgtRXvU5l1DIQlhLjCfMzI8IvwH31aEReMaIS/AyTPn8NYbryE6Mvy5pp285PXxyr9OM2ckxPnok4PYvWOr0K3qC+288lP/3DqoCTBl2vJv/vCucArs3rlNgqKno1A8t4boHzTtEdAoleTP+OTgF2JBIPMlzwJN6uq0H/YK36hzAIG58HfTMoTOs0+pxNqVqcLmxZKYqqEhIUjJLyqGnS2JVXyE14A5zeXllbCztxPGrbKyCoSEhKCsolzSKUmekbosGe9/eECImIggSK5B8HD56nUhRiKoIDkJU+AeLyjFxUYqVX5Owp3snDxU1lQjfu5cJCyYj+CgCdpoHfYfv2p7gHNGAh6ujwf5RSgoLERRSSniYudI4bCgAH8Bn3qg8KrN/PPtD9cRqX5r6uqE3TAr574oEeTSiI4Ih6+vr7qMsH7vP9+B/x5PE3k9NCT8L6z/kZ2dK0+LjopETHQEAvz95TzRzxmYQvksJPbfY3a+51cJEO6lZwrX9pBqECHBwQIWVq9ajvz8Qgn3IjsYyYVIc0raZDKSkWrTy9sLdrbWuHz5unzGRRAeFiraPilXSalKFjQGSpKhrby8Ssh5uLfJYNbZ2fmNAIEC4n7eA+E+6O7uhqOTo6Q39vb2i3WDpDtrV68UZj79gfM9F8Bz+DqXvHJgALm5D3Dx8hX0KPrg4qyem96+fqiGVIidE4U1q1cIUZR+zp7DoL+Cj+A6ogZ6685dXLtxW7JL7KXuypj8nfVOliQlIjlpsWim+ks7RoDW53tpGcKuS5pnEqIx2I803SMjw0hcvAjLlyTJXM52kKCTAIFERKwBEBocJFrerTv3EBMVIcyGLs7OgtgLC0uEipV87dQGyY7I4id2Nta4cu06/Hz90NffJ1SrNC8vW5Ik3OAe/HfeAwT6+6GxuQXurq5CexwaHCzsgPPmzoGLi4twkfMiSxmtBkeOnRAz1ZLkJFhbW6G5tVVqDdByQarn+fNisW3rJlhrY56tduzbl9YK1nNgzMHR46eFmZNWI1qXSH9rbWkl852dcx8L5s8TTn9qhPpLPwKPjwDZWG/cvI2z5y8iNCQEixcuwMjYKDo7uoQF9f6DByguLpN9T/mii+mpr9qs0918Lz0DR46dlAJTKcmLhWuHNXgom0ntnZmdgw1rV2P1qlSZx9l86RxAIOUmrQGs3026YaJ1cmyTF52TyUJKLERCBO/qqi4yRM29s6tbKqYxToGVycjFTe51mproTiD/NmsokGu8tLxcctDJee7n4yMFTQaUSqE/Jmc6gYlGIyDqZO2EysoqqQJIyubs3Pu4eOkqdu3YKoDl2MkzuHsvHb/4258iijEJenPjjO45Fts5fOyEFOtirYrQkGApcMMiW6yd4e/vi+Mnz4qW8U//8LdSy2K2axIzOmFa+HJaD1iQ7MDnh0RJ2bd7J+xsbaQuyf0H+di1faukOX7w8QGwcNXP/vptqYGgX0czO5ms4fHhJweFap/FtFj4igon9/q2LRvFasDyzyws9+O3f4BAFsCbxXwWOgcQhJltZGSSP5wbjm4AFhLhhiRKZyEostGZmpkKpwKDDTXc3LyfZiW6AIgmCThYJZLf5XM1P+V7RkYTNQB4H/8bE3cDYxA0/O20TLBMLQsYLVuaIs/Le5CPm7fvSpW3AH9fqQvwn7/5o2ijWzZtULMr6q8ZGYFJwf7ZIQECS1OSMDAwhMqqKqlOt3xZMqIjI8GI9Hf+9CG2yZytn9VCYkYmSstfyn2enpGFI8dOYcvm9VKLRaFQ4F56uhRnYlE4WidZV+XMuQt4683XED8vTg8QZnBeufcf5BcKtfLK1GWYFzdHFEcqdNm5eVi3eqWUuO7s6pSKlNs2bZCy3bPZ8qNzAGHq+uKEs7IaSW6YdcAa6iwbTOsAq8KRmpKHMQsXkUqTf2cBH1YQ9Pb0kOpoLIDEixXV+O+Orm75N3OYaXlgMSNWGWMAYnNLm1SO8/b2FHcC308XAqNgGZTEd9+4eUd+0jLBwkV0N+zYuglffnUUixbGSylhfld/zcwIcM5YtOrgF18jft5cod46dfqc0BozloRzRrKUVSuW4dTZi1i4YB7+6odv6gHCzEyX1r6VSgmtBYxben3fXly/dQtZOXkYGhoURcPCwkJKw2/cuBZffX0cO7dvwfKlyfp1NIMzSiWR1oJDXx/Fa/t2o6KiEhcvX5uU15wzlr3/8Y/exMHPvxJwQKAnFP2z9NJ5gMCgwK+OnEBcbDQMDYykbnhC/FwYm5hI6VAGnbDemI+3l5Q97enukVKqjF6ny6Gvr1dKARcWlWJZSpIgfqZDdnR2Y8WyFFy+dgNLU5KRmZUDXx8vqe7IZ2kAAv3WHx/4XAIh58+NlUCX4tJyZGXniHbq7eUltdV//ft3sWn9GmzfumlWI9KZ3mcECCzL++nnh6R+PbU61qCvq6/H9eu3sTAhHqGhwZLW+sGHn2D9ujXYuW2zXrDP9MRp2ftphUxLy8Cxk6exY9sW2NhaSwnq+3n5qKiqwvIlyXD3cEd3twInT53Bm6/vQ0L8PP06msF55N6/fz9f5PWGdasREOAnlW8LioslZo3xCB7u7jAxNsGBz7/Epg1rsWL50lktr18JgPD5l4clU8DM3ALV1TXicqDmTp6E4ZERREdFwNXFGcdPnkFc3Bw4OzpKoMqwagTOzk4IDwsRXyIPB9ZoJ38CU2CY0cBa7CnJiaisrJYDhbEOURHh8nxe9GcfOnxU6qjv27sTwYGByMjKwplzl4SZy8vLE2fOnselq9fxi7/5iVgaZrNPawblw+Sr6T746vBxAQb7dm+XmvViVfj8EDZvXC8A4czZC7hy7Qb+8e/+Vkpu633H2jBz2tMGHjaUDQc+OwQ3Nxdh4GSZcQZA5+Q+wP69O2FhaYmPPj4owc0//5sfS0l3/Tqa2TmkfGdcCOeBTLf29na4fTddMlH27toucSKfffmVWJoZg8B4s9ksr18BgNCDYydOY/7cOKF0p0WBJqH0zCw5jBlnwMOcmnx5RYVUk3N0dEB9Q6OQJTEX3snRAffzC5G4aIEsDJoGLSwtJKqdAZEbN6xD7v08sTj0dHdj+fIlkv7Gi5pETm4ejh4/BWcXR6xYtlQWX3lFpRw8tXUNuHbjpgTCvbZ3lz7daWblg7ydADIzKxfHT52RrJUVy5ZIHEregwJJf6UQofk4MjwM+/bs0P4SsFowprOxCf39Sly6fFWAZPz8uVi0cIFkVzU2Nkn8QX5hkZi0N65bjTWrVuhdi1qwSCjvr9+4hZOnzyMyMkyUv6HBIXWWm6eHyO0r128idWmKxB4R9M3mS+cBAvPZs7JzYWNtI5o/68wzvTC/oFDSWOguoOmPbgSixerqOgk05GHPdEhaChhvwOwExjA0t7bB0twcllZWgvwbGxoxJyZaIpbJ4GhpZYGwkBDhUNBcFBRp6ZlCqjQyOirWCk1OPS0MIcGB2LxxnQiN2YxGtWWjUfsji+a9jExcvXpDYkkYzczF0tvbKzwaMmcb1kmmjH7OtGXmtKsdXDft7R24eOWaBCza2tqKHBkbHUVXd7fEQdGtsDJ1KRwnFArt6sHsaw3njG7gazdu4fqt/7+9Kwtu87rOH3aA2AgQJMEN3KmN1mLLqhY7YlvHdRzvdZy00/ahk860mb51+pTXPqeT6TTTl7hN29huJ06VJnEVO5ZiyZYtyRJlUisp7jsJYt9+/Fg654DQYlMCPJYogDq/h2Pox/3vPfjOBc53zz3n3FO8SKQFIlUDCkfCiEai7GV+5utP8XYy1bJ4mK+qJgikuGJFPHqt1epYofSDToFChR92ylooZD1QNCq9ptTIYmTqzfcoECV/W7YDeSSymQx7JChqmfukzAa9/jZXYaGaWhLTs3O4MDiEyZkZZDNZJiRUnWv71j7eyhD3YuV81W7obGaWCebM7Dzr2OUq6Gzblj4usS3koHJ0VomSFMhmFKNj4xgcHOJtK/qeexsbsGtnPxNNKv8u3/3K0R7pjBZ1k1NTXPmSFokU0E4B6Lse6Uffll44HQ7RGVnPaqukWDnTbH1JaMuBIuJpK4OyIoiIiJGpbK0R8aM0WfrhIH2R3kRnla2zSpOOIuSJYNL2FV20qKC5JMSg0jR1Ux5OmV/TGb0mnX1+8Ve50m+MZEIQNgZnGUUQEAQEAUFAEKgqBIQgVJW6RFhBQBAQBAQBQWBjEBCCsDE4yyiCgCAgCAgCgkBVISAEoarUJcIKAoKAICAICAIbg4AQhI3BWUYRBAQBQUAQEASqCgEhCFWlLhFWEBAEBAFBQBDYGAQeSoJAhXCuT11HFmpZRy9n1CynwdVYyzsbnNpSGWdqX06ak5qm0ygzsNpuFl+6k/qpNkM+C7Q2tsLb4C2r/42ZSvd3FEpFnJ6bQSDih4bKW5S4KOVMSakwmijdrPTpmVS3IpVKw2QxcuGsUlcuk0MiqcBSQyd7liFQHrCaHejp6H6oa7uXwlXeFwQEgcpB4KEkCCuBFXxy+XeALVlWvnsyriASSKCxzVWW5mLhBKKhJLw+dxkGPI9YJIlYWIG3rP7zUGJZ9NY9iv6+R8rovyyRK74RnY45fH0Q88lR6Iylq5upiorQagwOl5WNfqlLSaURWonDVW+F0Vy6fTqlYnUpCo/XAYNJX6p7ZNU8rNkGPLF7ACajqWR7aSAICAKCwING4KEkCP6gH2dHT0DrTHBp5lJXIqYgshqHt71w/kKpKxpMIBJMoqmDKvHd3ZhxJbZwEvGQgqaO0gSEj7iO5NDt2I3tPf0PD0FIp3F58jMspkegN5cmCOlUBkF/DE5XDczW0gY/lUwjuBSHq8EKc03p9koqg9WFCDxNDhjNZRCEdB7mZD0O7DwMk0EIQqnvkLwvCAgCDx6BTUMQyHDmclnkkINOq0cul2F0dVrDF4yoEIQHP/GKErDe8jnk8hloNXrk6citfI5f31rNUBGCUDlKE0kEAUHgoUBg0xCEbDaDqeBlTIWvoNPVj/HAEOqsLdjWsB96TWGFVzQ4QhAqZ25TidrF6AQuLn6IbvduhNN+ZLIqtjcegMVghYb+02iRVlXxIFSO2kQSQUAQeAgQ2DQEgVaiy9FpvHv9J8hkFSTVGJ7f9j14bK1Yjk3BaqxFXQ0F9WkhBKFyZjYfnJIO4+i1f0U4tYxsLoPHW5+Bz7Udc5FRmPVWdLj6kc9phCBUjtpEEkFAEHgIENg0BIF0pWbTOD39a5ya/gV2NDyBga5vYyp0CUMLH2B38wD66vdCq9EJQaiwiU1bDOOrQ/j5xR+gyd6Nb2z9LhaiE1iMTGIpNok/6P1T1JlahSBUmN5EHEFAENjcCGwagkAr0WBiGScm/gsL0TGYDXZ8Y8t3YdKacWHxOJodPej1PCoEocLmMx+7rMbwyfQvcW3lDAxaEw51vAKPtZW3HiaCwzjU8TJsercQhArTnYgjCAgCmxuBTUMQMtkMJoMXcW35NJOBseAQety70e3eheGlE6iztqLXs0cIQoXNZwosXYxO4szMO+hw7cBKfAYWvR0Oswej/nO8RfRoy1MwaqxCECpMdyKOICAIbG4ENg1BIDc17WWr2RTHG8TSQWihg8Vgx2x4BDZTLRpsPmgpBiHgx+mR30FjLy/NMUlpjsEvUQchVEhz9Ha4eLy7XbSCpjoIlObobS+d5ghKc4zl0OPcgx291V8HgT5/Qo0ing7BafZAyST5zx+f49gRi8HBnp8avROXxi9gQRmBjrME757qSHUKQqtxOCjNscZQsj0VSQqtpTmaLKXbUxGmwGIMdU12GMuqg5CDRWnEoZ1SB2Fz/6TKpxMENg8Cm4Yg3EklZIAoNoEMtV5HP/zAajCAsxc/RgrRsgolpZUMlEQadldNWZqnnPpUQoXTXVNGnYI8UkkV6aQKh9tasn9OC1SBHe270dvZV0b/JbusuAYFnSnI5NIsm1FnQS6bx6XRYUyvjkFTutAhMmoGiVgaFqsRBoMO0NydUFDlSyKCFpuprPZUXTMeScLqsEBP/Ze48rk86izN2Lfr92A0lK6zUKo/eV8QEAQEgfuNwKYnCOsBqKoqlLRSyLkvXXMHyIHbakoUPSqORcaAu6b2ZfTP7WmNW07/haZcbMdg+GKNh/s9YR5U/1wgSkkhs1bfoqQcXE4hB2gpTbIcJay112jK1gP1X9Bxef3rtXqYTKaySGnJzycNBAFBQBC4zwg8lAThPmMq3QsCgoAgIAgIAlWPgBCEqlehfABBQBAQBAQBQeDeIyAE4d5jKj0KAoKAICAICAJVj4AQhFtUyJkQSpjz8m+9THoKTszDoDPBYrDxnjaVCKbIe9oTd5rroNXeHqhG5YLjagQmnRlmAz2vQTqjcHYFVQcs9lP1M+gBfoBsLotIahW5fBZWoxMGrRFRJQA1l4bN5GLcqVTz3S7SUyjl5+fNektBt/kswslVrrrpMNGBW6UP9HqAMMjQgoAgIAjcFwSEINwCK0XODy+ewLWVs0hnkmwgjFoT2tw7oKhxNNo7scXzOHQ6HRMEOj+ADNLjbX8EIhEc9MhUQINQcgWDc79Fu2sHOt106qIWocQKLiwcQ7trO9+nzAoKvuNnbgl0o3tlBdbdlylRPZ1SOuTx628irKzg0ean0eTowonx/4Y/OYtDHa+i8xaMb8OXAk7XiAPp6d2Rf8Pe1mfQ4d7BuFPWy6czR/nAqMdan4ZhLfvl83r5wr/5oKkCfqK/6plHIqkgIAisj4AQhNs8CFkEEktcwY8MhMPiwS7vABdXOjt7FLWWBnjtXfBYmtFg92E8OIREOoy22m2IKyFoNDoE4gtodnaxx+HE5M+wpX4fmmzdWE3Ow26sw0J4FPW2Nj5lkmxUTAkhk0+jo7YfRr2Zz5MIJBbgqmnkegBtzj4Y9HI88HrTN6Um8PbFf2R9HWh7Hr7abTg68joCyXl8c9tfo712BxYiY0ipMTQ7exlTIn6z4VEomQSaHN3I5lS8ceEfsK/tm7Ab3XDXNHO7kZVPodPo0Fa7BcHkEtO+uBpGi6OH6zWQp2k6fAUGrRnNjm72CpHeZsLXUGN0sN5qjHYmhnIJAoKAIFCNCAhBWEdr4VRhVUnlfg93fguRdBC/vvIvbBSMegsblxe2/S1GA+fYKHS6d+Hc7G9g1tUgoUZ4++BA+4s4P/8e6q3tWI5OwmJ04BHvk1wxkE6bXInNYC46BrvRxeRhp/cwj3d25h0+spq8GeQc/9Yjfw+Hpa4a59Z9l5kIwpHL/4RgYgE9dXvgsnhxzX8Gy7EZHO76NlJqHKP+T5HOKTDpLHhh2/cwOH8cY6vnmMy5rc3Y1TSAI5d+CKepnrco9FoD9re/gEtLH0KvMaK7bg+Oj78Jq8GBhBpGo60TT3a8iuMTbyHExAHocu9El3sPfjP6OleB1CCPXs9e7GoeWNteuu9QyACCgCAgCNxzBIQglEkQjl79MRps7VzG+fjYGxjoeg1L8WmsxufRVbcbn80fw5OdrzKJODV9BE90vILhxZNYic6wB+CP+/+OvQrHx3+KTtdOrhKYzir4w54/w7GxN/g9m7EWgeQSG6Br/tMY8Z/Fd3Z+H04hCOtOfCII/3vln6GoSSYH2bwKnVaPieAQn+dA7n7aAqK/8cBneLbvr3By6m30eh5Dq2MLHwjVaPfhyMUfYl/bc1xp8/TMr7CzaQDjq+fZO0BtP57+BR5veRaB5AImQsN4rPnrODb2U2yrP4hUNs5xEH2evTgz+w7anFvhMNWhwdaGLvcumAyWe/6llQ4FAUFAENgIBIQglEkQ3hv5d/hqt6LJ0YOjIz/Gk76XsZS4SRAuLX2Ep3v+AtF0EMfG/gP7fS9yPAO5tGmr4IDvJd5aODHx1hpBmIZRb8VA56t4f+wNJDNRJgi0J37Q9yLGghdwdfkTfGeXEIQ7fRGIIPzyyo84eDSXy2M1MYsdjYcwOP9b7G17FsHEImJKkGM9ZiPX8MyWv8SHE/+DbQ0H+AhpMuy0DfD28A/wVM+fo9ZSj5OTP8f2xoMYXx1cIwh78encURxqfwX++Ayu+j/BTu/v4/jYm6xH2hbSafTocPdjdOXcGmHwo8XRi/2+52A3uzfieyxjCAKCgCBwzxEQgrAuQfDjvdGfwFPTgq91vspbDO+P/ifvcXvt3Xh35HUcbH8Ry+RBSCzwSvHK8ik8RQRBCfDqcr/veVxdOQOfcyufK0CHEO33vYDPFo6h000ehGmY9DYc7nwZ74+9hXQ2CZ9zOy4vnYLZYEUsHUJSDQtBuMuUJ4JAWz9Oi4czROajY2yUT078DHuan+L4g2QmzgGkc5ERPLf1b3B56SMEU0u8FWAzurClYR9+deVH7Mmhlf9HU0ewtWE/JgIXmCD01D2G8/Pv4lDHS7wtdHXlNL7W+RpOTR3huATalmiwdqDR3s5EosZgRzjlZ2/EwfaX4BCCcM9/tKRDQUAQ2BgEhCCsg3M6k8Jc5DobFq+tA2pOYWNDh0DR4U/zkVHUW9ugZOJQsknYjG5Q3EKTvavQNjrO75OhqDV7QCdNLseneIuC0hzJMNH+uFarR6PNx0F22XwGOo2RA99oRUr3VuJT+JPd34fV6NiY2VBlo1CKIgUFmtcySBLpKDzWFixGx1FX08KHdwWTy2y0s7k0WpxbWGek23w+B6+9k0+NnA5dRpO9mz0RtPXjNDcgpgTY82A31yGQmEeD1YdUJo6w4kezo5e9E3QKJQUhkt4prXIucg2RpB8GnZn7JlmK539UGTDi2/AAAAQMSURBVLQiriAgCAgCEIJwh0lABoQTFtfSD/nfVKefogUoNZHuc0pb8TWlJmoLqY433l97b+2ZtafXnqWHC/1Tf0QQJgOXcHb2/0BHIMfUEHrcj2Gg+zXoPldjQebtTQSKeircKeDN6YcFTa2lnhZqIdymS0Zfy2rMraWV3q7bG/mKt+izMAbrOU990xyhfrU8HslCtTRonOI90ZUgIAgIAtWKgBCECtEcmRvKvw/E5xFJr8Kss6LR1g4TF1mSSxAQBAQBQaAaELi1PgovJPL5soqtrVcTp/h5qe5OYeFx58Jv96N+jhCECptxxUly64q3wkQUcQQBQUAQqFgE1vsNvfVe8bd1vXvsI/xc8bo7Ge71xslmswgEAnA4HDAajVAUBcFgEPX19dDr9TcwI4NPbekvnU4jHo8jmUzCbrfD4/HcRgSo7eLiImpra1FTU1gw0j0ah6q8UuE+s9mMTCbDY9I9IhL3ogKsEISKneYimCAgCAgCgsCXQUBVVTbIZJjJmNpsNhgMBoRCIUSjUVgsFr5P/4/FYmxk6X1qR/fpNRlrMtpOp5OHjkQisFqtbHyLBCKVSiEcDrOhJgNd7JNIw8jICFpaWngMGnN6ehq9vb181Dv1T8abZCSjT4Y9kUhwOyIQbW1taGhouI0gEIk4f/48Ojs7UVdXqIlDZOCDDz6Ay+ViGZqamlhOIibUV3NzM7/+qhVdhSB8mdknbQUBQUAQEAQqEgEyzktLSxgbG2ODSQaXDH17ezsuXLjAq3MiAkQMfD4f5ufn2VA3NjbeWHHTSn9qaooJBhlrMuATExNs8Ol5usigk9EnMlIkIGTEiQAQiVhYWOD7ND4ZbZKJ+qXnyXAToZidneU/Ig4kAxl6t9t92zYCkQAy9tTX4OAgOjo6uA8iGfRZT506xSSGxiFZ6D5dRDz27dvHbYUgVORUFaEEAUFAEBAENhIBMtKXL1/mFfX27dvZyM/NzTFBuH79OlpbW294Dsh4jo+Ps7GmlTm1JSJAbSYnJ9nYkweA3P30byIUtCInw0x9ktEvbhkQiSAiQgaatgnIqNPV19fH7WkcIiEkH41F7eh58kDQv4mQkKEn70AxjqDoZSCZ+vv7MTQ0xDJQHzQeyX/y5EkmQiQXjU/EhcgPvUf9Eekgz8dXucSD8FXQk2cFAUFAEBAEKgIBWnEPDw+zoaXVP11kUOkiI+z3+9loFv+INJCR7+7uZlJBRtjr9fIKnIgBGWsy5vQckQwyxDTGzMwMkwAyyrSqJyNOY9I2RjG2gPopxgvQ80Q4aJVPHgTyCJD34OrVq2zAiZyQnMV4AnqWxqOtCvJIkHzkQSAyQYSGvBIk38cff8zkYXV1leUiwlGMaSCPBbWnz/pVvAj/D4CsBqJrsZS8AAAAAElFTkSuQmCC;" vertex="1" parent="1">
          <mxGeometry x="870" y="80" width="520" height="309" as="geometry" />
        </mxCell>
        <mxCell id="BfwlwAvqfzgkCYm5cFhf-73" style="edgeStyle=orthogonalEdgeStyle;curved=1;orthogonalLoop=1;jettySize=auto;html=1;exitX=0.5;exitY=0;exitDx=0;exitDy=0;entryX=0.5;entryY=1;entryDx=0;entryDy=0;fontFamily=Times New Roman;fontSize=16;fontColor=#000000;startArrow=none;startFill=0;endArrow=classic;endFill=1;strokeColor=#000000;strokeWidth=2;" edge="1" parent="1" source="BfwlwAvqfzgkCYm5cFhf-4" target="BfwlwAvqfzgkCYm5cFhf-6">
          <mxGeometry relative="1" as="geometry" />
        </mxCell>
        <mxCell id="BfwlwAvqfzgkCYm5cFhf-4" value="&lt;font style=&quot;font-size: 23px;&quot;&gt;Self-Attention&lt;/font&gt;" style="rounded=1;whiteSpace=wrap;html=1;fontFamily=Times New Roman;fillColor=#ffe6cc;strokeColor=none;" vertex="1" parent="1">
          <mxGeometry x="79" y="770" width="320" height="50" as="geometry" />
        </mxCell>
        <mxCell id="BfwlwAvqfzgkCYm5cFhf-74" style="edgeStyle=orthogonalEdgeStyle;curved=1;orthogonalLoop=1;jettySize=auto;html=1;exitX=0.5;exitY=0;exitDx=0;exitDy=0;entryX=0.5;entryY=1;entryDx=0;entryDy=0;fontFamily=Times New Roman;fontSize=16;fontColor=#000000;startArrow=none;startFill=0;endArrow=classic;endFill=1;strokeColor=#000000;strokeWidth=2;" edge="1" parent="1" source="BfwlwAvqfzgkCYm5cFhf-6" target="BfwlwAvqfzgkCYm5cFhf-7">
          <mxGeometry relative="1" as="geometry" />
        </mxCell>
        <mxCell id="BfwlwAvqfzgkCYm5cFhf-6" value="&lt;font style=&quot;font-size: 23px;&quot;&gt;Add &amp;amp; Normalize&lt;/font&gt;" style="rounded=1;whiteSpace=wrap;html=1;fontFamily=Times New Roman;fillColor=#d5e8d4;strokeColor=none;" vertex="1" parent="1">
          <mxGeometry x="79" y="690" width="320" height="50" as="geometry" />
        </mxCell>
        <mxCell id="BfwlwAvqfzgkCYm5cFhf-75" style="edgeStyle=orthogonalEdgeStyle;curved=1;orthogonalLoop=1;jettySize=auto;html=1;exitX=0.5;exitY=0;exitDx=0;exitDy=0;entryX=0.5;entryY=1;entryDx=0;entryDy=0;fontFamily=Times New Roman;fontSize=16;fontColor=#000000;startArrow=none;startFill=0;endArrow=classic;endFill=1;strokeColor=#000000;strokeWidth=2;" edge="1" parent="1" source="BfwlwAvqfzgkCYm5cFhf-7" target="BfwlwAvqfzgkCYm5cFhf-8">
          <mxGeometry relative="1" as="geometry" />
        </mxCell>
        <mxCell id="BfwlwAvqfzgkCYm5cFhf-7" value="&lt;font style=&quot;font-size: 23px;&quot;&gt;FFNs&lt;/font&gt;" style="rounded=1;whiteSpace=wrap;html=1;fontFamily=Times New Roman;fillColor=#dae8fc;strokeColor=none;" vertex="1" parent="1">
          <mxGeometry x="79" y="610" width="320" height="50" as="geometry" />
        </mxCell>
        <mxCell id="BfwlwAvqfzgkCYm5cFhf-76" style="edgeStyle=orthogonalEdgeStyle;curved=1;orthogonalLoop=1;jettySize=auto;html=1;exitX=0.5;exitY=0;exitDx=0;exitDy=0;entryX=0.5;entryY=1;entryDx=0;entryDy=0;fontFamily=Times New Roman;fontSize=16;fontColor=#000000;startArrow=none;startFill=0;endArrow=classic;endFill=1;strokeColor=#000000;strokeWidth=2;" edge="1" parent="1" source="BfwlwAvqfzgkCYm5cFhf-8" target="BfwlwAvqfzgkCYm5cFhf-9">
          <mxGeometry relative="1" as="geometry" />
        </mxCell>
        <mxCell id="BfwlwAvqfzgkCYm5cFhf-8" value="&lt;font style=&quot;font-size: 23px;&quot;&gt;Add &amp;amp; Normalize&lt;/font&gt;" style="rounded=1;whiteSpace=wrap;html=1;fontFamily=Times New Roman;fillColor=#d5e8d4;strokeColor=none;" vertex="1" parent="1">
          <mxGeometry x="79" y="530" width="320" height="50" as="geometry" />
        </mxCell>
        <mxCell id="BfwlwAvqfzgkCYm5cFhf-77" style="edgeStyle=orthogonalEdgeStyle;curved=1;orthogonalLoop=1;jettySize=auto;html=1;exitX=0.5;exitY=0;exitDx=0;exitDy=0;entryX=0.5;entryY=1;entryDx=0;entryDy=0;fontFamily=Times New Roman;fontSize=16;fontColor=#000000;startArrow=none;startFill=0;endArrow=classic;endFill=1;strokeColor=#000000;strokeWidth=2;" edge="1" parent="1" source="BfwlwAvqfzgkCYm5cFhf-9" target="BfwlwAvqfzgkCYm5cFhf-10">
          <mxGeometry relative="1" as="geometry" />
        </mxCell>
        <mxCell id="BfwlwAvqfzgkCYm5cFhf-9" value="&lt;font style=&quot;font-size: 23px;&quot;&gt;Self-Attention&lt;/font&gt;" style="rounded=1;whiteSpace=wrap;html=1;fontFamily=Times New Roman;fillColor=#ffe6cc;strokeColor=none;" vertex="1" parent="1">
          <mxGeometry x="79" y="430" width="320" height="50" as="geometry" />
        </mxCell>
        <mxCell id="BfwlwAvqfzgkCYm5cFhf-78" style="edgeStyle=orthogonalEdgeStyle;curved=1;orthogonalLoop=1;jettySize=auto;html=1;exitX=0.5;exitY=0;exitDx=0;exitDy=0;entryX=0.5;entryY=1;entryDx=0;entryDy=0;fontFamily=Times New Roman;fontSize=16;fontColor=#000000;startArrow=none;startFill=0;endArrow=classic;endFill=1;strokeColor=#000000;strokeWidth=2;" edge="1" parent="1" source="BfwlwAvqfzgkCYm5cFhf-10" target="BfwlwAvqfzgkCYm5cFhf-11">
          <mxGeometry relative="1" as="geometry" />
        </mxCell>
        <mxCell id="BfwlwAvqfzgkCYm5cFhf-10" value="&lt;font style=&quot;font-size: 23px;&quot;&gt;Add &amp;amp; Normalize&lt;/font&gt;" style="rounded=1;whiteSpace=wrap;html=1;fontFamily=Times New Roman;fillColor=#d5e8d4;strokeColor=none;" vertex="1" parent="1">
          <mxGeometry x="79" y="350" width="320" height="50" as="geometry" />
        </mxCell>
        <mxCell id="BfwlwAvqfzgkCYm5cFhf-79" style="edgeStyle=orthogonalEdgeStyle;curved=1;orthogonalLoop=1;jettySize=auto;html=1;exitX=0.5;exitY=0;exitDx=0;exitDy=0;entryX=0.5;entryY=1;entryDx=0;entryDy=0;fontFamily=Times New Roman;fontSize=16;fontColor=#000000;startArrow=none;startFill=0;endArrow=classic;endFill=1;strokeColor=#000000;strokeWidth=2;" edge="1" parent="1" source="BfwlwAvqfzgkCYm5cFhf-11" target="BfwlwAvqfzgkCYm5cFhf-12">
          <mxGeometry relative="1" as="geometry" />
        </mxCell>
        <mxCell id="BfwlwAvqfzgkCYm5cFhf-11" value="&lt;font style=&quot;font-size: 23px;&quot;&gt;FFNs&lt;/font&gt;" style="rounded=1;whiteSpace=wrap;html=1;fontFamily=Times New Roman;fillColor=#dae8fc;strokeColor=none;" vertex="1" parent="1">
          <mxGeometry x="79" y="270" width="320" height="50" as="geometry" />
        </mxCell>
        <mxCell id="BfwlwAvqfzgkCYm5cFhf-12" value="&lt;font style=&quot;font-size: 23px;&quot;&gt;Add &amp;amp; Normalize&lt;/font&gt;" style="rounded=1;whiteSpace=wrap;html=1;fontFamily=Times New Roman;fillColor=#d5e8d4;strokeColor=none;" vertex="1" parent="1">
          <mxGeometry x="79" y="190" width="320" height="50" as="geometry" />
        </mxCell>
        <mxCell id="BfwlwAvqfzgkCYm5cFhf-37" value="" style="shape=table;startSize=0;container=1;collapsible=0;childLayout=tableLayout;fontFamily=Times New Roman;fontSize=23;fillColor=#D0E3CF;strokeColor=#82b366;" vertex="1" parent="1">
          <mxGeometry x="108" y="873" width="120" height="30" as="geometry" />
        </mxCell>
        <mxCell id="BfwlwAvqfzgkCYm5cFhf-38" value="" style="shape=tableRow;horizontal=0;startSize=0;swimlaneHead=0;swimlaneBody=0;top=0;left=0;bottom=0;right=0;collapsible=0;dropTarget=0;fillColor=none;points=[[0,0.5],[1,0.5]];portConstraint=eastwest;fontFamily=Times New Roman;fontSize=23;" vertex="1" parent="BfwlwAvqfzgkCYm5cFhf-37">
          <mxGeometry width="120" height="30" as="geometry" />
        </mxCell>
        <mxCell id="BfwlwAvqfzgkCYm5cFhf-39" value="" style="shape=partialRectangle;html=1;whiteSpace=wrap;connectable=0;overflow=hidden;fillColor=none;top=0;left=0;bottom=0;right=0;pointerEvents=1;fontFamily=Times New Roman;fontSize=23;" vertex="1" parent="BfwlwAvqfzgkCYm5cFhf-38">
          <mxGeometry width="30" height="30" as="geometry">
            <mxRectangle width="30" height="30" as="alternateBounds" />
          </mxGeometry>
        </mxCell>
        <mxCell id="BfwlwAvqfzgkCYm5cFhf-40" value="" style="shape=partialRectangle;html=1;whiteSpace=wrap;connectable=0;overflow=hidden;fillColor=none;top=0;left=0;bottom=0;right=0;pointerEvents=1;fontFamily=Times New Roman;fontSize=23;" vertex="1" parent="BfwlwAvqfzgkCYm5cFhf-38">
          <mxGeometry x="30" width="30" height="30" as="geometry">
            <mxRectangle width="30" height="30" as="alternateBounds" />
          </mxGeometry>
        </mxCell>
        <mxCell id="BfwlwAvqfzgkCYm5cFhf-47" style="shape=partialRectangle;html=1;whiteSpace=wrap;connectable=0;overflow=hidden;fillColor=none;top=0;left=0;bottom=0;right=0;pointerEvents=1;fontFamily=Times New Roman;fontSize=23;" vertex="1" parent="BfwlwAvqfzgkCYm5cFhf-38">
          <mxGeometry x="60" width="30" height="30" as="geometry">
            <mxRectangle width="30" height="30" as="alternateBounds" />
          </mxGeometry>
        </mxCell>
        <mxCell id="BfwlwAvqfzgkCYm5cFhf-41" value="" style="shape=partialRectangle;html=1;whiteSpace=wrap;connectable=0;overflow=hidden;fillColor=none;top=0;left=0;bottom=0;right=0;pointerEvents=1;fontFamily=Times New Roman;fontSize=23;" vertex="1" parent="BfwlwAvqfzgkCYm5cFhf-38">
          <mxGeometry x="90" width="30" height="30" as="geometry">
            <mxRectangle width="30" height="30" as="alternateBounds" />
          </mxGeometry>
        </mxCell>
        <mxCell id="BfwlwAvqfzgkCYm5cFhf-42" value="" style="shape=table;startSize=0;container=1;collapsible=0;childLayout=tableLayout;fontFamily=Times New Roman;fontSize=23;fillColor=#D0E3CF;strokeColor=#82b366;" vertex="1" parent="1">
          <mxGeometry x="270" y="873" width="120" height="30" as="geometry" />
        </mxCell>
        <mxCell id="BfwlwAvqfzgkCYm5cFhf-43" value="" style="shape=tableRow;horizontal=0;startSize=0;swimlaneHead=0;swimlaneBody=0;top=0;left=0;bottom=0;right=0;collapsible=0;dropTarget=0;fillColor=none;points=[[0,0.5],[1,0.5]];portConstraint=eastwest;fontFamily=Times New Roman;fontSize=23;" vertex="1" parent="BfwlwAvqfzgkCYm5cFhf-42">
          <mxGeometry width="120" height="30" as="geometry" />
        </mxCell>
        <mxCell id="BfwlwAvqfzgkCYm5cFhf-48" style="shape=partialRectangle;html=1;whiteSpace=wrap;connectable=0;overflow=hidden;fillColor=none;top=0;left=0;bottom=0;right=0;pointerEvents=1;fontFamily=Times New Roman;fontSize=23;" vertex="1" parent="BfwlwAvqfzgkCYm5cFhf-43">
          <mxGeometry width="30" height="30" as="geometry">
            <mxRectangle width="30" height="30" as="alternateBounds" />
          </mxGeometry>
        </mxCell>
        <mxCell id="BfwlwAvqfzgkCYm5cFhf-44" value="" style="shape=partialRectangle;html=1;whiteSpace=wrap;connectable=0;overflow=hidden;fillColor=none;top=0;left=0;bottom=0;right=0;pointerEvents=1;fontFamily=Times New Roman;fontSize=23;" vertex="1" parent="BfwlwAvqfzgkCYm5cFhf-43">
          <mxGeometry x="30" width="30" height="30" as="geometry">
            <mxRectangle width="30" height="30" as="alternateBounds" />
          </mxGeometry>
        </mxCell>
        <mxCell id="BfwlwAvqfzgkCYm5cFhf-45" value="" style="shape=partialRectangle;html=1;whiteSpace=wrap;connectable=0;overflow=hidden;fillColor=none;top=0;left=0;bottom=0;right=0;pointerEvents=1;fontFamily=Times New Roman;fontSize=23;" vertex="1" parent="BfwlwAvqfzgkCYm5cFhf-43">
          <mxGeometry x="60" width="30" height="30" as="geometry">
            <mxRectangle width="30" height="30" as="alternateBounds" />
          </mxGeometry>
        </mxCell>
        <mxCell id="BfwlwAvqfzgkCYm5cFhf-46" value="" style="shape=partialRectangle;html=1;whiteSpace=wrap;connectable=0;overflow=hidden;fillColor=none;top=0;left=0;bottom=0;right=0;pointerEvents=1;fontFamily=Times New Roman;fontSize=23;" vertex="1" parent="BfwlwAvqfzgkCYm5cFhf-43">
          <mxGeometry x="90" width="30" height="30" as="geometry">
            <mxRectangle width="30" height="30" as="alternateBounds" />
          </mxGeometry>
        </mxCell>
        <mxCell id="BfwlwAvqfzgkCYm5cFhf-50" value="" style="endArrow=none;dashed=1;html=1;dashPattern=1 3;strokeWidth=2;rounded=0;fontFamily=Times New Roman;fontSize=23;fillColor=#d5e8d4;strokeColor=#7AA860;" edge="1" parent="1">
          <mxGeometry width="50" height="50" relative="1" as="geometry">
            <mxPoint x="236" y="888" as="sourcePoint" />
            <mxPoint x="266" y="888" as="targetPoint" />
          </mxGeometry>
        </mxCell>
        <mxCell id="BfwlwAvqfzgkCYm5cFhf-51" value="S" style="text;strokeColor=none;fillColor=none;html=1;fontSize=24;fontStyle=1;verticalAlign=middle;align=center;fontFamily=Times New Roman;fontColor=#7AA860;" vertex="1" parent="1">
          <mxGeometry x="39" y="868" width="100" height="40" as="geometry" />
        </mxCell>
        <mxCell id="BfwlwAvqfzgkCYm5cFhf-62" style="edgeStyle=orthogonalEdgeStyle;rounded=0;orthogonalLoop=1;jettySize=auto;html=1;entryX=0.5;entryY=1;entryDx=0;entryDy=0;fontFamily=Times New Roman;fontSize=16;fontColor=#000000;strokeColor=#000000;strokeWidth=2;" edge="1" parent="1" source="BfwlwAvqfzgkCYm5cFhf-52" target="BfwlwAvqfzgkCYm5cFhf-4">
          <mxGeometry relative="1" as="geometry" />
        </mxCell>
        <mxCell id="BfwlwAvqfzgkCYm5cFhf-52" value="" style="verticalLabelPosition=bottom;verticalAlign=top;html=1;shape=mxgraph.flowchart.summing_function;fontFamily=Times New Roman;fontSize=23;fillColor=#d5e8d4;strokeColor=#82b366;" vertex="1" parent="1">
          <mxGeometry x="229" y="846" width="20" height="20" as="geometry" />
        </mxCell>
        <mxCell id="BfwlwAvqfzgkCYm5cFhf-54" value="&lt;font style=&quot;font-weight: normal; font-size: 16px;&quot; color=&quot;#000000&quot;&gt;Positional Encoding&lt;/font&gt;" style="text;strokeColor=none;fillColor=none;html=1;fontSize=24;fontStyle=1;verticalAlign=middle;align=center;fontFamily=Times New Roman;fontColor=#7AA860;" vertex="1" parent="1">
          <mxGeometry x="110" y="833" width="100" height="40" as="geometry" />
        </mxCell>
        <mxCell id="BfwlwAvqfzgkCYm5cFhf-63" value="" style="endArrow=none;html=1;fontFamily=Times New Roman;fontSize=16;fontColor=#000000;strokeColor=#000000;dashed=1;curved=1;endFill=0;strokeWidth=2;" edge="1" parent="1">
          <mxGeometry width="50" height="50" relative="1" as="geometry">
            <mxPoint x="239" y="830" as="sourcePoint" />
            <mxPoint x="58" y="740" as="targetPoint" />
            <Array as="points">
              <mxPoint x="68" y="830" />
              <mxPoint x="58" y="830" />
              <mxPoint x="58" y="820" />
              <mxPoint x="58" y="810" />
              <mxPoint x="58" y="750" />
            </Array>
          </mxGeometry>
        </mxCell>
        <mxCell id="BfwlwAvqfzgkCYm5cFhf-72" value="" style="endArrow=classic;html=1;fontFamily=Times New Roman;fontSize=16;fontColor=#000000;strokeColor=#000000;dashed=1;curved=1;endFill=1;strokeWidth=2;" edge="1" parent="1">
          <mxGeometry width="50" height="50" relative="1" as="geometry">
            <mxPoint x="58" y="740" as="sourcePoint" />
            <mxPoint x="79" y="720" as="targetPoint" />
            <Array as="points">
              <mxPoint x="58" y="730" />
              <mxPoint x="58" y="720" />
              <mxPoint x="68" y="720" />
            </Array>
          </mxGeometry>
        </mxCell>
        <mxCell id="BfwlwAvqfzgkCYm5cFhf-80" value="" style="endArrow=none;html=1;fontFamily=Times New Roman;fontSize=16;fontColor=#000000;strokeColor=#000000;dashed=1;curved=1;endFill=0;strokeWidth=2;" edge="1" parent="1">
          <mxGeometry width="50" height="50" relative="1" as="geometry">
            <mxPoint x="239" y="670.0000000000002" as="sourcePoint" />
            <mxPoint x="58" y="579.9999999999998" as="targetPoint" />
            <Array as="points">
              <mxPoint x="68" y="670" />
              <mxPoint x="58" y="670" />
              <mxPoint x="58" y="660" />
              <mxPoint x="58" y="650" />
              <mxPoint x="58" y="590" />
            </Array>
          </mxGeometry>
        </mxCell>
        <mxCell id="BfwlwAvqfzgkCYm5cFhf-81" value="" style="endArrow=classic;html=1;fontFamily=Times New Roman;fontSize=16;fontColor=#000000;strokeColor=#000000;dashed=1;curved=1;endFill=1;strokeWidth=2;" edge="1" parent="1">
          <mxGeometry width="50" height="50" relative="1" as="geometry">
            <mxPoint x="58" y="579.9999999999998" as="sourcePoint" />
            <mxPoint x="79" y="559.9999999999998" as="targetPoint" />
            <Array as="points">
              <mxPoint x="58" y="570" />
              <mxPoint x="58" y="560" />
              <mxPoint x="68" y="560" />
            </Array>
          </mxGeometry>
        </mxCell>
        <mxCell id="BfwlwAvqfzgkCYm5cFhf-86" value="" style="endArrow=none;html=1;fontFamily=Times New Roman;fontSize=16;fontColor=#000000;strokeColor=#000000;dashed=1;curved=1;endFill=0;strokeWidth=2;" edge="1" parent="1">
          <mxGeometry width="50" height="50" relative="1" as="geometry">
            <mxPoint x="239" y="490.00000000000045" as="sourcePoint" />
            <mxPoint x="58" y="399.9999999999998" as="targetPoint" />
            <Array as="points">
              <mxPoint x="68" y="490" />
              <mxPoint x="58" y="490" />
              <mxPoint x="58" y="480" />
              <mxPoint x="58" y="470" />
              <mxPoint x="58" y="410" />
            </Array>
          </mxGeometry>
        </mxCell>
        <mxCell id="BfwlwAvqfzgkCYm5cFhf-87" value="" style="endArrow=classic;html=1;fontFamily=Times New Roman;fontSize=16;fontColor=#000000;strokeColor=#000000;dashed=1;curved=1;endFill=1;strokeWidth=2;" edge="1" parent="1">
          <mxGeometry width="50" height="50" relative="1" as="geometry">
            <mxPoint x="58" y="399.9999999999998" as="sourcePoint" />
            <mxPoint x="79" y="379.9999999999998" as="targetPoint" />
            <Array as="points">
              <mxPoint x="58" y="390" />
              <mxPoint x="58" y="380" />
              <mxPoint x="68" y="380" />
            </Array>
          </mxGeometry>
        </mxCell>
        <mxCell id="BfwlwAvqfzgkCYm5cFhf-91" value="" style="rounded=1;whiteSpace=wrap;html=1;fontFamily=Times New Roman;fontSize=16;strokeWidth=2;fillColor=none;strokeColor=#7AA860;arcSize=5;" vertex="1" parent="1">
          <mxGeometry x="50" y="180" width="360" height="320" as="geometry" />
        </mxCell>
        <mxCell id="BfwlwAvqfzgkCYm5cFhf-94" value="" style="rounded=1;whiteSpace=wrap;html=1;fontFamily=Times New Roman;fontSize=16;strokeWidth=2;fillColor=none;strokeColor=#7AA860;arcSize=5;" vertex="1" parent="1">
          <mxGeometry x="50" y="517" width="360" height="323" as="geometry" />
        </mxCell>
        <mxCell id="BfwlwAvqfzgkCYm5cFhf-88" value="" style="endArrow=none;html=1;fontFamily=Times New Roman;fontSize=16;fontColor=#000000;strokeColor=#000000;dashed=1;curved=1;endFill=0;strokeWidth=2;" edge="1" parent="1">
          <mxGeometry width="50" height="50" relative="1" as="geometry">
            <mxPoint x="240" y="330.00000000000045" as="sourcePoint" />
            <mxPoint x="59" y="239.99999999999977" as="targetPoint" />
            <Array as="points">
              <mxPoint x="69" y="330" />
              <mxPoint x="59" y="330" />
              <mxPoint x="59" y="320" />
              <mxPoint x="59" y="310" />
              <mxPoint x="59" y="250" />
            </Array>
          </mxGeometry>
        </mxCell>
        <mxCell id="BfwlwAvqfzgkCYm5cFhf-89" value="" style="endArrow=classic;html=1;fontFamily=Times New Roman;fontSize=16;fontColor=#000000;strokeColor=#000000;dashed=1;curved=1;endFill=1;strokeWidth=2;" edge="1" parent="1">
          <mxGeometry width="50" height="50" relative="1" as="geometry">
            <mxPoint x="59" y="239.99999999999977" as="sourcePoint" />
            <mxPoint x="80" y="219.99999999999977" as="targetPoint" />
            <Array as="points">
              <mxPoint x="59" y="230" />
              <mxPoint x="59" y="220" />
              <mxPoint x="69" y="220" />
            </Array>
          </mxGeometry>
        </mxCell>
        <mxCell id="BfwlwAvqfzgkCYm5cFhf-103" value="Encoder 1" style="text;strokeColor=none;fillColor=none;html=1;fontSize=24;fontStyle=1;verticalAlign=middle;align=center;fontFamily=Times New Roman;fontColor=#7AA860;direction=north;flipV=0;flipH=0;horizontal=0;" vertex="1" parent="1">
          <mxGeometry x="7" y="630" width="40" height="100" as="geometry" />
        </mxCell>
        <mxCell id="BfwlwAvqfzgkCYm5cFhf-104" value="Encoder 2" style="text;strokeColor=none;fillColor=none;html=1;fontSize=24;fontStyle=1;verticalAlign=middle;align=center;fontFamily=Times New Roman;fontColor=#7AA860;direction=north;flipV=0;flipH=0;horizontal=0;" vertex="1" parent="1">
          <mxGeometry x="7" y="287" width="40" height="100" as="geometry" />
        </mxCell>
      </root>
    </mxGraphModel>
  </diagram>
</mxfile>
